solid ascii
  facet normal -0.000000e+00 -1.000000e+00 0.000000e+00
    outer loop
      vertex   2.333250e+02 -1.345490e+02 1.343798e+01
      vertex   2.333250e+02 -1.345490e+02 1.643798e+01
      vertex   8.332500e+01 -1.345490e+02 1.343798e+01
    endloop
  endfacet
  facet normal 0.000000e+00 -1.000000e+00 0.000000e+00
    outer loop
      vertex   8.332500e+01 -1.345490e+02 1.343798e+01
      vertex   2.333250e+02 -1.345490e+02 1.643798e+01
      vertex   8.332500e+01 -1.345490e+02 1.643798e+01
    endloop
  endfacet
  facet normal 0.000000e+00 -0.000000e+00 1.000000e+00
    outer loop
      vertex   2.333250e+02 -1.345490e+02 1.643798e+01
      vertex   2.333250e+02 -1.325490e+02 1.643798e+01
      vertex   8.332500e+01 -1.345490e+02 1.643798e+01
    endloop
  endfacet
  facet normal 0.000000e+00 -0.000000e+00 1.000000e+00
    outer loop
      vertex   8.332500e+01 -1.345490e+02 1.643798e+01
      vertex   2.333250e+02 -1.325490e+02 1.643798e+01
      vertex   8.332500e+01 -1.325490e+02 1.643798e+01
    endloop
  endfacet
  facet normal -0.000000e+00 -0.000000e+00 -1.000000e+00
    outer loop
      vertex   2.333250e+02 -1.325490e+02 1.343798e+01
      vertex   2.333250e+02 -1.345490e+02 1.343798e+01
      vertex   8.332500e+01 -1.325490e+02 1.343798e+01
    endloop
  endfacet
  facet normal -0.000000e+00 -0.000000e+00 -1.000000e+00
    outer loop
      vertex   8.332500e+01 -1.325490e+02 1.343798e+01
      vertex   2.333250e+02 -1.345490e+02 1.343798e+01
      vertex   8.332500e+01 -1.345490e+02 1.343798e+01
    endloop
  endfacet
  facet normal -0.000000e+00 -1.000000e+00 0.000000e+00
    outer loop
      vertex   2.333250e+02 -1.345490e+02 5.343798e+01
      vertex   2.333250e+02 -1.345490e+02 5.643798e+01
      vertex   8.332500e+01 -1.345490e+02 5.343798e+01
    endloop
  endfacet
  facet normal 0.000000e+00 -1.000000e+00 0.000000e+00
    outer loop
      vertex   8.332500e+01 -1.345490e+02 5.343798e+01
      vertex   2.333250e+02 -1.345490e+02 5.643798e+01
      vertex   8.332500e+01 -1.345490e+02 5.643798e+01
    endloop
  endfacet
  facet normal 0.000000e+00 -0.000000e+00 1.000000e+00
    outer loop
      vertex   2.333250e+02 -1.345490e+02 5.643798e+01
      vertex   2.333250e+02 -1.325490e+02 5.643798e+01
      vertex   8.332500e+01 -1.345490e+02 5.643798e+01
    endloop
  endfacet
  facet normal 0.000000e+00 -0.000000e+00 1.000000e+00
    outer loop
      vertex   8.332500e+01 -1.345490e+02 5.643798e+01
      vertex   2.333250e+02 -1.325490e+02 5.643798e+01
      vertex   8.332500e+01 -1.325490e+02 5.643798e+01
    endloop
  endfacet
  facet normal -0.000000e+00 -0.000000e+00 -1.000000e+00
    outer loop
      vertex   2.333250e+02 -1.325490e+02 5.343798e+01
      vertex   2.333250e+02 -1.345490e+02 5.343798e+01
      vertex   8.332500e+01 -1.325490e+02 5.343798e+01
    endloop
  endfacet
  facet normal -0.000000e+00 -0.000000e+00 -1.000000e+00
    outer loop
      vertex   8.332500e+01 -1.325490e+02 5.343798e+01
      vertex   2.333250e+02 -1.345490e+02 5.343798e+01
      vertex   8.332500e+01 -1.345490e+02 5.343798e+01
    endloop
  endfacet
  facet normal -0.000000e+00 -1.000000e+00 0.000000e+00
    outer loop
      vertex   2.333250e+02 -1.345490e+02 3.343798e+01
      vertex   2.333250e+02 -1.345490e+02 3.643798e+01
      vertex   8.332500e+01 -1.345490e+02 3.343798e+01
    endloop
  endfacet
  facet normal 0.000000e+00 -1.000000e+00 0.000000e+00
    outer loop
      vertex   8.332500e+01 -1.345490e+02 3.343798e+01
      vertex   2.333250e+02 -1.345490e+02 3.643798e+01
      vertex   8.332500e+01 -1.345490e+02 3.643798e+01
    endloop
  endfacet
  facet normal 0.000000e+00 -0.000000e+00 1.000000e+00
    outer loop
      vertex   2.333250e+02 -1.345490e+02 3.643798e+01
      vertex   2.333250e+02 -1.325490e+02 3.643798e+01
      vertex   8.332500e+01 -1.345490e+02 3.643798e+01
    endloop
  endfacet
  facet normal 0.000000e+00 -0.000000e+00 1.000000e+00
    outer loop
      vertex   8.332500e+01 -1.345490e+02 3.643798e+01
      vertex   2.333250e+02 -1.325490e+02 3.643798e+01
      vertex   8.332500e+01 -1.325490e+02 3.643798e+01
    endloop
  endfacet
  facet normal -0.000000e+00 -0.000000e+00 -1.000000e+00
    outer loop
      vertex   2.333250e+02 -1.325490e+02 3.343798e+01
      vertex   2.333250e+02 -1.345490e+02 3.343798e+01
      vertex   8.332500e+01 -1.325490e+02 3.343798e+01
    endloop
  endfacet
  facet normal -0.000000e+00 -0.000000e+00 -1.000000e+00
    outer loop
      vertex   8.332500e+01 -1.325490e+02 3.343798e+01
      vertex   2.333250e+02 -1.345490e+02 3.343798e+01
      vertex   8.332500e+01 -1.345490e+02 3.343798e+01
    endloop
  endfacet
  facet normal -0.000000e+00 -1.000000e+00 0.000000e+00
    outer loop
      vertex   2.333250e+02 -1.325490e+02 5.643798e+01
      vertex   2.333250e+02 -1.325490e+02 7.579518e+01
      vertex   8.332500e+01 -1.325490e+02 5.643798e+01
    endloop
  endfacet
  facet normal 0.000000e+00 -1.000000e+00 0.000000e+00
    outer loop
      vertex   8.332500e+01 -1.325490e+02 5.643798e+01
      vertex   2.333250e+02 -1.325490e+02 7.579518e+01
      vertex   8.332500e+01 -1.325490e+02 7.579518e+01
    endloop
  endfacet
  facet normal 0.000000e+00 -1.000000e+00 0.000000e+00
    outer loop
      vertex   8.332500e+01 -1.325490e+02 5.343798e+01
      vertex   8.332500e+01 -1.325490e+02 3.643798e+01
      vertex   2.333250e+02 -1.325490e+02 5.343798e+01
    endloop
  endfacet
  facet normal 0.000000e+00 -1.000000e+00 -0.000000e+00
    outer loop
      vertex   2.333250e+02 -1.325490e+02 5.343798e+01
      vertex   8.332500e+01 -1.325490e+02 3.643798e+01
      vertex   2.333250e+02 -1.325490e+02 3.643798e+01
    endloop
  endfacet
  facet normal -0.000000e+00 -1.000000e+00 0.000000e+00
    outer loop
      vertex   2.333250e+02 -1.325490e+02 1.643798e+01
      vertex   2.333250e+02 -1.325490e+02 3.343798e+01
      vertex   8.332500e+01 -1.325490e+02 1.643798e+01
    endloop
  endfacet
  facet normal 0.000000e+00 -1.000000e+00 0.000000e+00
    outer loop
      vertex   8.332500e+01 -1.325490e+02 1.643798e+01
      vertex   2.333250e+02 -1.325490e+02 3.343798e+01
      vertex   8.332500e+01 -1.325490e+02 3.343798e+01
    endloop
  endfacet
  facet normal 0.000000e+00 -1.000000e+00 0.000000e+00
    outer loop
      vertex   8.332500e+01 -1.325490e+02 1.343798e+01
      vertex   8.332500e+01 -1.325490e+02 -5.919219e+00
      vertex   2.333250e+02 -1.325490e+02 1.343798e+01
    endloop
  endfacet
  facet normal 0.000000e+00 -1.000000e+00 -0.000000e+00
    outer loop
      vertex   2.333250e+02 -1.325490e+02 1.343798e+01
      vertex   8.332500e+01 -1.325490e+02 -5.919219e+00
      vertex   2.333250e+02 -1.325490e+02 -5.919219e+00
    endloop
  endfacet
  facet normal 0.000000e+00 -3.172066e-15 -1.000000e+00
    outer loop
      vertex   8.332500e+01 -1.325490e+02 -5.919219e+00
      vertex   8.332500e+01 -1.297490e+02 -5.919219e+00
      vertex   2.333250e+02 -1.325490e+02 -5.919219e+00
    endloop
  endfacet
  facet normal 0.000000e+00 -3.172066e-15 -1.000000e+00
    outer loop
      vertex   2.333250e+02 -1.325490e+02 -5.919219e+00
      vertex   8.332500e+01 -1.297490e+02 -5.919219e+00
      vertex   2.333250e+02 -1.297490e+02 -5.919219e+00
    endloop
  endfacet
  facet normal -0.000000e+00 1.000000e+00 0.000000e+00
    outer loop
      vertex   8.332500e+01 -1.297490e+02 -5.919219e+00
      vertex   8.332500e+01 -1.297490e+02 7.579518e+01
      vertex   2.333250e+02 -1.297490e+02 -5.919219e+00
    endloop
  endfacet
  facet normal 0.000000e+00 1.000000e+00 -0.000000e+00
    outer loop
      vertex   2.333250e+02 -1.297490e+02 -5.919219e+00
      vertex   8.332500e+01 -1.297490e+02 7.579518e+01
      vertex   2.333250e+02 -1.297490e+02 7.579518e+01
    endloop
  endfacet
  facet normal -0.000000e+00 0.000000e+00 1.000000e+00
    outer loop
      vertex   8.332500e+01 -1.297490e+02 7.579518e+01
      vertex   8.332500e+01 -1.325490e+02 7.579518e+01
      vertex   2.333250e+02 -1.297490e+02 7.579518e+01
    endloop
  endfacet
  facet normal -0.000000e+00 0.000000e+00 1.000000e+00
    outer loop
      vertex   2.333250e+02 -1.297490e+02 7.579518e+01
      vertex   8.332500e+01 -1.325490e+02 7.579518e+01
      vertex   2.333250e+02 -1.325490e+02 7.579518e+01
    endloop
  endfacet
  facet normal -1.000000e+00 0.000000e+00 -0.000000e+00
    outer loop
      vertex   8.332500e+01 -1.325490e+02 7.579518e+01
      vertex   8.332500e+01 -1.297490e+02 7.579518e+01
      vertex   8.332500e+01 -1.325490e+02 5.643798e+01
    endloop
  endfacet
  facet normal -1.000000e+00 0.000000e+00 -0.000000e+00
    outer loop
      vertex   8.332500e+01 -1.325490e+02 5.643798e+01
      vertex   8.332500e+01 -1.297490e+02 7.579518e+01
      vertex   8.332500e+01 -1.325490e+02 5.343798e+01
    endloop
  endfacet
  facet normal -1.000000e+00 -0.000000e+00 -0.000000e+00
    outer loop
      vertex   8.332500e+01 -1.345490e+02 5.643798e+01
      vertex   8.332500e+01 -1.325490e+02 5.343798e+01
      vertex   8.332500e+01 -1.345490e+02 5.343798e+01
    endloop
  endfacet
  facet normal -1.000000e+00 0.000000e+00 0.000000e+00
    outer loop
      vertex   8.332500e+01 -1.345490e+02 5.643798e+01
      vertex   8.332500e+01 -1.325490e+02 5.643798e+01
      vertex   8.332500e+01 -1.325490e+02 5.343798e+01
    endloop
  endfacet
  facet normal -1.000000e+00 0.000000e+00 -0.000000e+00
    outer loop
      vertex   8.332500e+01 -1.325490e+02 5.343798e+01
      vertex   8.332500e+01 -1.297490e+02 7.579518e+01
      vertex   8.332500e+01 -1.325490e+02 3.643798e+01
    endloop
  endfacet
  facet normal -1.000000e+00 0.000000e+00 0.000000e+00
    outer loop
      vertex   8.332500e+01 -1.325490e+02 3.643798e+01
      vertex   8.332500e+01 -1.297490e+02 7.579518e+01
      vertex   8.332500e+01 -1.297490e+02 -5.919219e+00
    endloop
  endfacet
  facet normal -1.000000e+00 -0.000000e+00 -0.000000e+00
    outer loop
      vertex   8.332500e+01 -1.325490e+02 3.343798e+01
      vertex   8.332500e+01 -1.297490e+02 -5.919219e+00
      vertex   8.332500e+01 -1.325490e+02 1.643798e+01
    endloop
  endfacet
  facet normal -1.000000e+00 0.000000e+00 0.000000e+00
    outer loop
      vertex   8.332500e+01 -1.325490e+02 3.343798e+01
      vertex   8.332500e+01 -1.325490e+02 3.643798e+01
      vertex   8.332500e+01 -1.297490e+02 -5.919219e+00
    endloop
  endfacet
  facet normal -1.000000e+00 0.000000e+00 0.000000e+00
    outer loop
      vertex   8.332500e+01 -1.325490e+02 3.343798e+01
      vertex   8.332500e+01 -1.345490e+02 3.643798e+01
      vertex   8.332500e+01 -1.325490e+02 3.643798e+01
    endloop
  endfacet
  facet normal -1.000000e+00 0.000000e+00 0.000000e+00
    outer loop
      vertex   8.332500e+01 -1.325490e+02 3.343798e+01
      vertex   8.332500e+01 -1.345490e+02 3.343798e+01
      vertex   8.332500e+01 -1.345490e+02 3.643798e+01
    endloop
  endfacet
  facet normal -1.000000e+00 0.000000e+00 0.000000e+00
    outer loop
      vertex   8.332500e+01 -1.325490e+02 -5.919219e+00
      vertex   8.332500e+01 -1.325490e+02 1.343798e+01
      vertex   8.332500e+01 -1.297490e+02 -5.919219e+00
    endloop
  endfacet
  facet normal -1.000000e+00 0.000000e+00 0.000000e+00
    outer loop
      vertex   8.332500e+01 -1.297490e+02 -5.919219e+00
      vertex   8.332500e+01 -1.325490e+02 1.343798e+01
      vertex   8.332500e+01 -1.325490e+02 1.643798e+01
    endloop
  endfacet
  facet normal -1.000000e+00 -0.000000e+00 -0.000000e+00
    outer loop
      vertex   8.332500e+01 -1.325490e+02 1.643798e+01
      vertex   8.332500e+01 -1.325490e+02 1.343798e+01
      vertex   8.332500e+01 -1.345490e+02 1.643798e+01
    endloop
  endfacet
  facet normal -1.000000e+00 -0.000000e+00 -0.000000e+00
    outer loop
      vertex   8.332500e+01 -1.345490e+02 1.643798e+01
      vertex   8.332500e+01 -1.325490e+02 1.343798e+01
      vertex   8.332500e+01 -1.345490e+02 1.343798e+01
    endloop
  endfacet
  facet normal 1.000000e+00 0.000000e+00 1.835345e-15
    outer loop
      vertex   2.333250e+02 -1.325490e+02 7.579518e+01
      vertex   2.333250e+02 -1.325490e+02 5.643798e+01
      vertex   2.333250e+02 -1.297490e+02 7.579518e+01
    endloop
  endfacet
  facet normal 1.000000e+00 1.268826e-14 0.000000e+00
    outer loop
      vertex   2.333250e+02 -1.297490e+02 7.579518e+01
      vertex   2.333250e+02 -1.325490e+02 5.643798e+01
      vertex   2.333250e+02 -1.325490e+02 5.343798e+01
    endloop
  endfacet
  facet normal 1.000000e+00 1.268826e-14 0.000000e+00
    outer loop
      vertex   2.333250e+02 -1.325490e+02 3.643798e+01
      vertex   2.333250e+02 -1.297490e+02 7.579518e+01
      vertex   2.333250e+02 -1.325490e+02 5.343798e+01
    endloop
  endfacet
  facet normal 1.000000e+00 1.268826e-14 0.000000e+00
    outer loop
      vertex   2.333250e+02 -1.325490e+02 3.643798e+01
      vertex   2.333250e+02 -1.325490e+02 3.343798e+01
      vertex   2.333250e+02 -1.297490e+02 7.579518e+01
    endloop
  endfacet
  facet normal 1.000000e+00 -0.000000e+00 0.000000e+00
    outer loop
      vertex   2.333250e+02 -1.325490e+02 3.643798e+01
      vertex   2.333250e+02 -1.345490e+02 3.343798e+01
      vertex   2.333250e+02 -1.325490e+02 3.343798e+01
    endloop
  endfacet
  facet normal 1.000000e+00 0.000000e+00 0.000000e+00
    outer loop
      vertex   2.333250e+02 -1.325490e+02 3.643798e+01
      vertex   2.333250e+02 -1.345490e+02 3.643798e+01
      vertex   2.333250e+02 -1.345490e+02 3.343798e+01
    endloop
  endfacet
  facet normal 1.000000e+00 -0.000000e+00 0.000000e+00
    outer loop
      vertex   2.333250e+02 -1.345490e+02 5.643798e+01
      vertex   2.333250e+02 -1.345490e+02 5.343798e+01
      vertex   2.333250e+02 -1.325490e+02 5.643798e+01
    endloop
  endfacet
  facet normal 1.000000e+00 -0.000000e+00 0.000000e+00
    outer loop
      vertex   2.333250e+02 -1.325490e+02 5.643798e+01
      vertex   2.333250e+02 -1.345490e+02 5.343798e+01
      vertex   2.333250e+02 -1.325490e+02 5.343798e+01
    endloop
  endfacet
  facet normal 1.000000e+00 1.268826e-14 0.000000e+00
    outer loop
      vertex   2.333250e+02 -1.297490e+02 7.579518e+01
      vertex   2.333250e+02 -1.325490e+02 3.343798e+01
      vertex   2.333250e+02 -1.297490e+02 -5.919219e+00
    endloop
  endfacet
  facet normal 1.000000e+00 1.268826e-14 0.000000e+00
    outer loop
      vertex   2.333250e+02 -1.297490e+02 -5.919219e+00
      vertex   2.333250e+02 -1.325490e+02 3.343798e+01
      vertex   2.333250e+02 -1.325490e+02 1.643798e+01
    endloop
  endfacet
  facet normal 1.000000e+00 0.000000e+00 -0.000000e+00
    outer loop
      vertex   2.333250e+02 -1.325490e+02 1.343798e+01
      vertex   2.333250e+02 -1.325490e+02 1.643798e+01
      vertex   2.333250e+02 -1.345490e+02 1.343798e+01
    endloop
  endfacet
  facet normal 1.000000e+00 1.268826e-14 0.000000e+00
    outer loop
      vertex   2.333250e+02 -1.325490e+02 1.343798e+01
      vertex   2.333250e+02 -1.297490e+02 -5.919219e+00
      vertex   2.333250e+02 -1.325490e+02 1.643798e+01
    endloop
  endfacet
  facet normal 1.000000e+00 -5.821835e-30 -1.835345e-15
    outer loop
      vertex   2.333250e+02 -1.325490e+02 1.343798e+01
      vertex   2.333250e+02 -1.325490e+02 -5.919219e+00
      vertex   2.333250e+02 -1.297490e+02 -5.919219e+00
    endloop
  endfacet
  facet normal 1.000000e+00 0.000000e+00 0.000000e+00
    outer loop
      vertex   2.333250e+02 -1.325490e+02 1.643798e+01
      vertex   2.333250e+02 -1.345490e+02 1.643798e+01
      vertex   2.333250e+02 -1.345490e+02 1.343798e+01
    endloop
  endfacet
endsolid
