solid ascii
  facet normal 0.000000e+00 0.000000e+00 -1.000000e+00
    outer loop
      vertex   8.332500e+01 -1.288012e+02 4.784727e+01
      vertex   8.332500e+01 3.108279e+00 4.784727e+01
      vertex   2.333250e+02 -1.288012e+02 4.784727e+01
    endloop
  endfacet
  facet normal 0.000000e+00 0.000000e+00 -1.000000e+00
    outer loop
      vertex   2.333250e+02 -1.288012e+02 4.784727e+01
      vertex   8.332500e+01 3.108279e+00 4.784727e+01
      vertex   2.333250e+02 3.108279e+00 4.784727e+01
    endloop
  endfacet
  facet normal -0.000000e+00 1.000000e+00 0.000000e+00
    outer loop
      vertex   8.332500e+01 3.108279e+00 4.784727e+01
      vertex   8.332500e+01 3.108279e+00 5.064727e+01
      vertex   2.333250e+02 3.108279e+00 4.784727e+01
    endloop
  endfacet
  facet normal 0.000000e+00 1.000000e+00 -0.000000e+00
    outer loop
      vertex   2.333250e+02 3.108279e+00 4.784727e+01
      vertex   8.332500e+01 3.108279e+00 5.064727e+01
      vertex   2.333250e+02 3.108279e+00 5.064727e+01
    endloop
  endfacet
  facet normal -0.000000e+00 0.000000e+00 1.000000e+00
    outer loop
      vertex   8.332500e+01 3.108279e+00 5.064727e+01
      vertex   8.332500e+01 -1.288012e+02 5.064727e+01
      vertex   2.333250e+02 3.108279e+00 5.064727e+01
    endloop
  endfacet
  facet normal -0.000000e+00 0.000000e+00 1.000000e+00
    outer loop
      vertex   2.333250e+02 3.108279e+00 5.064727e+01
      vertex   8.332500e+01 -1.288012e+02 5.064727e+01
      vertex   2.333250e+02 -1.288012e+02 5.064727e+01
    endloop
  endfacet
  facet normal 0.000000e+00 -1.000000e+00 0.000000e+00
    outer loop
      vertex   8.332500e+01 -1.288012e+02 5.064727e+01
      vertex   8.332500e+01 -1.288012e+02 4.784727e+01
      vertex   2.333250e+02 -1.288012e+02 5.064727e+01
    endloop
  endfacet
  facet normal 0.000000e+00 -1.000000e+00 -0.000000e+00
    outer loop
      vertex   2.333250e+02 -1.288012e+02 5.064727e+01
      vertex   8.332500e+01 -1.288012e+02 4.784727e+01
      vertex   2.333250e+02 -1.288012e+02 4.784727e+01
    endloop
  endfacet
  facet normal -1.000000e+00 0.000000e+00 0.000000e+00
    outer loop
      vertex   8.332500e+01 -1.288012e+02 4.784727e+01
      vertex   8.332500e+01 -1.288012e+02 5.064727e+01
      vertex   8.332500e+01 3.108279e+00 4.784727e+01
    endloop
  endfacet
  facet normal -1.000000e+00 0.000000e+00 0.000000e+00
    outer loop
      vertex   8.332500e+01 3.108279e+00 4.784727e+01
      vertex   8.332500e+01 -1.288012e+02 5.064727e+01
      vertex   8.332500e+01 3.108279e+00 5.064727e+01
    endloop
  endfacet
  facet normal 1.000000e+00 -0.000000e+00 0.000000e+00
    outer loop
      vertex   2.333250e+02 -1.288012e+02 5.064727e+01
      vertex   2.333250e+02 -1.288012e+02 4.784727e+01
      vertex   2.333250e+02 3.108279e+00 5.064727e+01
    endloop
  endfacet
  facet normal 1.000000e+00 -0.000000e+00 0.000000e+00
    outer loop
      vertex   2.333250e+02 3.108279e+00 5.064727e+01
      vertex   2.333250e+02 -1.288012e+02 4.784727e+01
      vertex   2.333250e+02 3.108279e+00 4.784727e+01
    endloop
  endfacet
endsolid
