ISO-10303-21;
HEADER;

/* File generated by HOOPS Exchange Version 24.2.0 */

FILE_DESCRIPTION(('HOOPS Exchange Step'),'2;1');

FILE_NAME('C:\\Users\\andy\\OneDrive\\Desktop\\Scraper CAD\\Front Scraper\\Hose1.stp',
'2026-05-10T16:22:04-05:00',
('andy'),
('Unknown organisation'),
'HOOPS Exchange 2024.2',
'HOOPS Exchange',
'Unknown authorisation');

FILE_SCHEMA( ('AP203_CONFIGURATION_CONTROLLED_3D_DESIGN_OF_MECHANICAL_PARTS_AND_ASSEMBLIES_MIM_LF') );

ENDSEC;

DATA;
#3=(NAMED_UNIT(*)PLANE_ANGLE_UNIT()SI_UNIT($,.RADIAN.));
#4=PLANE_ANGLE_MEASURE_WITH_UNIT(PLANE_ANGLE_MEASURE(0.0174532925),#3);
#5=(CONVERSION_BASED_UNIT('DEGREE',#4)NAMED_UNIT(#6)PLANE_ANGLE_UNIT());
#6=DIMENSIONAL_EXPONENTS(0.,0.,0.,0.,0.,0.,0.);
#7=(NAMED_UNIT(*)SI_UNIT($,.STERADIAN.)SOLID_ANGLE_UNIT());
#8=(LENGTH_UNIT()NAMED_UNIT(*)SI_UNIT(.MILLI.,.METRE.));
#9=UNCERTAINTY_MEASURE_WITH_UNIT(LENGTH_MEASURE(1.000000E-05),#8,'DISTANCE_ACCURACY_VALUE','Maximum Tolerance applied to model');
#10=(GEOMETRIC_REPRESENTATION_CONTEXT(3)GLOBAL_UNCERTAINTY_ASSIGNED_CONTEXT((#9))GLOBAL_UNIT_ASSIGNED_CONTEXT((#8,#5,#7))REPRESENTATION_CONTEXT('','root'));
#12=CARTESIAN_POINT('',(0.,0.,0.));
#13=DIRECTION('',(0.,0.,1.));
#14=DIRECTION('',(1.,0.,0.));
#15=AXIS2_PLACEMENT_3D('',#12,#13,#14);
#27=CARTESIAN_POINT('',(-6.38302302,299.380011436,-1.2647937));
#28=DIRECTION('',(0.018384766,-0.979086489,0.202612061));
#29=DIRECTION('',(-0.,-0.202646311,-0.979251997));
#30=AXIS2_PLACEMENT_3D('',#27,#28,#29);
#31=PLANE('',#30);
#32=CARTESIAN_POINT('',(-9.689856295,301.945103449,11.430611904));
#33=VERTEX_POINT('',#32);
#34=CARTESIAN_POINT('',(-6.38302302,299.380011436,-1.2647937));
#35=DIRECTION('',(0.018384766,-0.979086489,0.202612061));
#36=DIRECTION('',(-0.247379896,0.191891197,0.949726779));
#37=AXIS2_PLACEMENT_3D('',#34,#35,#36);
#38=CIRCLE('',#37,13.367429327);
#39=EDGE_CURVE('',#33,#33,#38,.T.);
#40=ORIENTED_EDGE('',*,*,#39,.F.);
#41=EDGE_LOOP('',(#40));
#42=FACE_BOUND('',#41,.T.);
#43=ADVANCED_FACE('',(#42),#31,.F.);
#44=CARTESIAN_POINT('',(17.810536276,340.95174105,309.146448348));
#45=DIRECTION('',(0.428567844,0.778167319,0.459113523));
#46=DIRECTION('',(-0.476141488,-0.23733781,0.846734933));
#47=AXIS2_PLACEMENT_3D('',#44,#45,#46);
#48=PLANE('',#47);
#49=CARTESIAN_POINT('',(21.437793704,345.948898226,297.290665349));
#50=VERTEX_POINT('',#49);
#51=CARTESIAN_POINT('',(17.810536276,340.95174105,309.146448348));
#52=DIRECTION('',(0.428567844,0.778167319,0.459113523));
#53=DIRECTION('',(0.27135041,0.373830828,-0.886915705));
#54=AXIS2_PLACEMENT_3D('',#51,#52,#53);
#55=CIRCLE('',#54,13.367429327);
#56=EDGE_CURVE('',#50,#50,#55,.T.);
#57=ORIENTED_EDGE('',*,*,#56,.T.);
#58=EDGE_LOOP('',(#57));
#59=FACE_BOUND('',#58,.T.);
#60=ADVANCED_FACE('',(#59),#48,.T.);
#61=CARTESIAN_POINT('',(-9.689856295,301.945103449,11.430611904));
#62=CARTESIAN_POINT('',(-9.48186098,296.456018055,12.593852801));
#63=CARTESIAN_POINT('',(-9.421941831,291.509891166,14.234889361));
#64=CARTESIAN_POINT('',(-9.508328457,282.503426266,18.318960046));
#65=CARTESIAN_POINT('',(-9.654822617,278.439879713,20.762896651));
#66=CARTESIAN_POINT('',(-10.081743807,271.015668377,26.386845451));
#67=CARTESIAN_POINT('',(-10.362861285,267.654508929,29.569686482));
#68=CARTESIAN_POINT('',(-10.989948001,261.542424372,36.631711805));
#69=CARTESIAN_POINT('',(-11.336152252,258.79337392,40.512075103));
#70=CARTESIAN_POINT('',(-12.010503759,253.875966806,48.884363209));
#71=CARTESIAN_POINT('',(-12.338272573,251.709119509,53.37583959));
#72=CARTESIAN_POINT('',(-12.881214678,247.929961553,62.83252497));
#73=CARTESIAN_POINT('',(-13.095568622,246.318059513,67.797030462));
#74=CARTESIAN_POINT('',(-13.324064904,243.59581608,78.030758615));
#75=CARTESIAN_POINT('',(-13.337236767,242.48480833,83.299481895));
#76=CARTESIAN_POINT('',(-13.111259921,240.688379394,93.960573162));
#77=CARTESIAN_POINT('',(-12.871814334,240.001316207,99.352718217));
#78=CARTESIAN_POINT('',(-12.479173125,239.454501873,105.145693355));
#79=CARTESIAN_POINT('',(-12.465111507,239.422804347,105.574983711));
#80=CARTESIAN_POINT('',(-12.466929865,239.378059063,106.432337663));
#81=CARTESIAN_POINT('',(-12.48780971,239.367486846,106.860243543));
#82=CARTESIAN_POINT('',(-12.542628185,239.337723605,108.14375239));
#83=CARTESIAN_POINT('',(-12.576198887,239.324112254,108.99891558));
#84=CARTESIAN_POINT('',(-12.66823,239.301809102,111.562868854));
#85=CARTESIAN_POINT('',(-12.718011191,239.31164815,113.270124019));
#86=CARTESIAN_POINT('',(-12.834592228,239.414036662,118.385632454));
#87=CARTESIAN_POINT('',(-12.86862225,239.579444906,121.787652486));
#88=CARTESIAN_POINT('',(-12.855159227,240.357480162,131.96699531));
#89=CARTESIAN_POINT('',(-12.692056599,241.251909313,138.717935839));
#90=CARTESIAN_POINT('',(-11.864410645,244.987818267,158.837911012));
#91=CARTESIAN_POINT('',(-10.860065016,248.883840344,172.076424862));
#92=CARTESIAN_POINT('',(-8.724146521,258.649400153,196.900645135));
#93=CARTESIAN_POINT('',(-7.619343301,264.290738268,208.431677161));
#94=CARTESIAN_POINT('',(-4.770613679,277.180179177,230.358492367));
#95=CARTESIAN_POINT('',(-3.026474374,284.42769228,240.753544932));
#96=CARTESIAN_POINT('',(1.562190424,300.19049277,259.990826925));
#97=CARTESIAN_POINT('',(4.406231593,308.704348561,268.83240468));
#98=CARTESIAN_POINT('',(11.643878023,326.679825471,284.588204366));
#99=CARTESIAN_POINT('',(16.035523002,336.139784979,291.503354024));
#100=CARTESIAN_POINT('',(21.437793704,345.948898226,297.290665349));
#101=CARTESIAN_POINT('',(-35.589093656,300.13829071,5.049577576));
#102=CARTESIAN_POINT('',(-35.434615417,294.690718211,6.418278177));
#103=CARTESIAN_POINT('',(-35.429816008,289.811445632,8.274764902));
#104=CARTESIAN_POINT('',(-35.628110704,281.010740212,12.810223015));
#105=CARTESIAN_POINT('',(-35.831473568,277.086036736,15.490128774));
#106=CARTESIAN_POINT('',(-36.369412005,270.040589125,21.605658563));
#107=CARTESIAN_POINT('',(-36.704834188,266.919324857,25.044169904));
#108=CARTESIAN_POINT('',(-37.427087667,261.426432257,32.633646716));
#109=CARTESIAN_POINT('',(-37.814418033,259.056807092,36.7858934));
#110=CARTESIAN_POINT('',(-38.534314389,255.084307463,45.709498121));
#111=CARTESIAN_POINT('',(-38.866815786,253.48349013,50.480559686));
#112=CARTESIAN_POINT('',(-39.337605223,251.068501659,60.486548174));
#113=CARTESIAN_POINT('',(-39.475028562,250.25605283,65.720897225));
#114=CARTESIAN_POINT('',(-39.395288177,249.383540523,76.453549061));
#115=CARTESIAN_POINT('',(-39.175783192,249.324549338,81.9511624));
#116=CARTESIAN_POINT('',(-38.24667345,249.825596511,92.984482054));
#117=CARTESIAN_POINT('',(-37.533619375,250.384398544,98.519180554));
#118=CARTESIAN_POINT('',(-36.486233971,251.19606114,104.395995135));
#119=CARTESIAN_POINT('',(-36.438088846,251.233546907,104.82855342));
#120=CARTESIAN_POINT('',(-36.402636001,251.264295252,105.688159079));
#121=CARTESIAN_POINT('',(-36.425268029,251.250030855,106.114652572));
#122=CARTESIAN_POINT('',(-36.479926486,251.220355499,107.394430827));
#123=CARTESIAN_POINT('',(-36.513377114,251.20679629,108.246586954));
#124=CARTESIAN_POINT('',(-36.605026253,251.184588951,110.79994986));
#125=CARTESIAN_POINT('',(-36.654525478,251.194408022,112.498051616));
#126=CARTESIAN_POINT('',(-36.770336541,251.296120433,117.579776147));
#127=CARTESIAN_POINT('',(-36.80394995,251.460271705,120.950831144));
#128=CARTESIAN_POINT('',(-36.790640268,252.229281843,131.012018652));
#129=CARTESIAN_POINT('',(-36.629584205,253.110640275,137.650420656));
#130=CARTESIAN_POINT('',(-35.819759348,256.766062994,157.336749988));
#131=CARTESIAN_POINT('',(-34.844141081,260.552519421,170.158675593));
#132=CARTESIAN_POINT('',(-32.794684695,269.922768785,193.978009947));
#133=CARTESIAN_POINT('',(-31.721394824,275.405020244,205.215787095));
#134=CARTESIAN_POINT('',(-28.908192073,288.133784414,226.869374724));
#135=CARTESIAN_POINT('',(-27.168187651,295.379322448,237.285224846));
#136=CARTESIAN_POINT('',(-22.509636521,311.382210212,256.815551229));
#137=CARTESIAN_POINT('',(-19.591248608,320.139509127,265.931002834));
#138=CARTESIAN_POINT('',(-12.03226217,338.913083004,282.386413851));
#139=CARTESIAN_POINT('',(-7.390973299,348.930833713,289.72742309));
#140=CARTESIAN_POINT('',(-1.602296912,359.441558806,295.928680722));
#141=CARTESIAN_POINT('',(-28.975427106,295.008106682,-20.341233633));
#142=CARTESIAN_POINT('',(-28.99554258,287.683036366,-18.638664036));
#143=CARTESIAN_POINT('',(-29.230063333,280.86183357,-16.228407787));
#144=CARTESIAN_POINT('',(-30.061403762,268.325982349,-10.147273645));
#145=CARTESIAN_POINT('',(-30.658115432,262.614480381,-6.477266328));
#146=CARTESIAN_POINT('',(-32.126838673,252.387287785,1.879595886));
#147=CARTESIAN_POINT('',(-32.998315969,247.872066365,6.563680442));
#148=CARTESIAN_POINT('',(-34.920026769,240.045729493,16.676046042));
#149=CARTESIAN_POINT('',(-35.97028933,236.732867901,22.10325031));
#150=CARTESIAN_POINT('',(-38.154312368,231.264769708,33.46922445));
#151=CARTESIAN_POINT('',(-39.288765146,229.108571519,39.408594727));
#152=CARTESIAN_POINT('',(-41.535894379,225.903333089,51.610461069));
#153=CARTESIAN_POINT('',(-42.649344838,224.855197928,57.8737863));
#154=CARTESIAN_POINT('',(-44.71442558,223.815099863,70.552830212));
#155=CARTESIAN_POINT('',(-45.665655561,223.825541972,76.968858235));
#156=CARTESIAN_POINT('',(-47.220098253,224.798513966,89.780740293));
#157=CARTESIAN_POINT('',(-47.820455412,225.763091534,96.176032399));
#158=CARTESIAN_POINT('',(-48.180300096,227.195731202,102.980573131));
#159=CARTESIAN_POINT('',(-48.204773586,227.264944989,103.482872953));
#160=CARTESIAN_POINT('',(-48.251394986,227.328639269,104.483631379));
#161=CARTESIAN_POINT('',(-48.273482907,227.310641705,104.981851533));
#162=CARTESIAN_POINT('',(-48.3372999,227.275995346,106.476030976));
#163=CARTESIAN_POINT('',(-48.376337763,227.260174278,107.470544801));
#164=CARTESIAN_POINT('',(-48.483252949,227.234270263,110.449102762));
#165=CARTESIAN_POINT('',(-48.540931785,227.245743527,112.428161081));
#166=CARTESIAN_POINT('',(-48.675755518,227.364153975,118.344146056));
#167=CARTESIAN_POINT('',(-48.714690396,227.555109729,122.25984804));
#168=CARTESIAN_POINT('',(-48.699281019,228.445828051,133.913350863));
#169=CARTESIAN_POINT('',(-48.512852666,229.463401698,141.557125527));
#170=CARTESIAN_POINT('',(-47.587183174,233.641914177,164.060491104));
#171=CARTESIAN_POINT('',(-46.484293248,237.925847742,178.490347319));
#172=CARTESIAN_POINT('',(-44.21178377,248.315910505,204.902064801));
#173=CARTESIAN_POINT('',(-43.021927565,254.39444944,217.366855884));
#174=CARTESIAN_POINT('',(-39.890564264,268.562487512,241.468910233));
#175=CARTESIAN_POINT('',(-37.949391443,276.652191363,253.107674381));
#176=CARTESIAN_POINT('',(-32.712817144,294.640587946,275.061177889));
#177=CARTESIAN_POINT('',(-29.416605824,304.542093062,285.378195947));
#178=CARTESIAN_POINT('',(-20.811457506,325.913771878,304.110915958));
#179=CARTESIAN_POINT('',(-15.497909604,337.388744549,312.525812282));
#180=CARTESIAN_POINT('',(-8.856811768,349.447244455,319.64024672));
#181=CARTESIAN_POINT('',(-3.076189745,296.814919422,-13.960199305));
#182=CARTESIAN_POINT('',(-3.042788143,289.44833621,-12.463089412));
#183=CARTESIAN_POINT('',(-3.222189156,282.560279104,-10.268283328));
#184=CARTESIAN_POINT('',(-3.941621515,269.818668404,-4.638536614));
#185=CARTESIAN_POINT('',(-4.481464481,263.968323357,-1.204498451));
#186=CARTESIAN_POINT('',(-5.839170474,253.362367037,6.660782773));
#187=CARTESIAN_POINT('',(-6.656343065,248.607250438,11.089197019));
#188=CARTESIAN_POINT('',(-8.482887103,240.161721608,20.674111131));
#189=CARTESIAN_POINT('',(-9.492023549,236.469434729,25.829432013));
#190=CARTESIAN_POINT('',(-11.630501737,230.056429052,36.644089538));
#191=CARTESIAN_POINT('',(-12.760221933,227.334200897,42.303874631));
#192=CARTESIAN_POINT('',(-15.079503834,222.764792982,53.956437865));
#193=CARTESIAN_POINT('',(-16.269884899,220.917204611,59.949919537));
#194=CARTESIAN_POINT('',(-18.643202306,218.02737542,72.130039767));
#195=CARTESIAN_POINT('',(-19.827109136,216.985800965,78.31717773));
#196=CARTESIAN_POINT('',(-22.084684724,215.661296848,90.756831402));
#197=CARTESIAN_POINT('',(-23.158650372,215.380009197,97.009570062));
#198=CARTESIAN_POINT('',(-24.17323925,215.454171934,103.73027135));
#199=CARTESIAN_POINT('',(-24.231796246,215.454202429,104.229303244));
#200=CARTESIAN_POINT('',(-24.31568885,215.442403081,105.227809963));
#201=CARTESIAN_POINT('',(-24.336024588,215.428097696,105.727442504));
#202=CARTESIAN_POINT('',(-24.4000016,215.393363453,107.225352539));
#203=CARTESIAN_POINT('',(-24.439159536,215.377490243,108.222873427));
#204=CARTESIAN_POINT('',(-24.546456696,215.351490415,111.212021756));
#205=CARTESIAN_POINT('',(-24.604417497,215.362983655,113.200233485));
#206=CARTESIAN_POINT('',(-24.740011205,215.482070204,119.150002362));
#207=CARTESIAN_POINT('',(-24.779362695,215.674282931,123.096669383));
#208=CARTESIAN_POINT('',(-24.763799978,216.57402637,134.868327521));
#209=CARTESIAN_POINT('',(-24.575325059,217.604670736,142.62464071));
#210=CARTESIAN_POINT('',(-23.631834471,221.863669449,165.561652127));
#211=CARTESIAN_POINT('',(-22.500217183,226.257168665,180.408096589));
#212=CARTESIAN_POINT('',(-20.141245597,237.042541873,207.824699989));
#213=CARTESIAN_POINT('',(-18.919876042,243.280167464,220.582745949));
#214=CARTESIAN_POINT('',(-15.752985869,257.608882276,244.958027876));
#215=CARTESIAN_POINT('',(-13.807678166,265.700561196,256.575994467));
#216=CARTESIAN_POINT('',(-8.640990199,283.448870505,278.236453584));
#217=CARTESIAN_POINT('',(-5.419125623,293.106932497,288.279597793));
#218=CARTESIAN_POINT('',(2.864682686,313.680514345,306.312706473));
#219=CARTESIAN_POINT('',(7.928586697,324.597695815,314.301743216));
#220=CARTESIAN_POINT('',(14.183278848,335.954583874,321.002231347));
#221=CARTESIAN_POINT('',(22.823047615,298.621732161,-7.579164976));
#222=CARTESIAN_POINT('',(22.909966294,291.213636055,-6.287514789));
#223=CARTESIAN_POINT('',(22.785685021,284.258724638,-4.30815887));
#224=CARTESIAN_POINT('',(22.178160733,271.311354459,0.870200417));
#225=CARTESIAN_POINT('',(21.69518647,265.322166333,4.068269426));
#226=CARTESIAN_POINT('',(20.448497724,254.337446288,11.441969661));
#227=CARTESIAN_POINT('',(19.685629838,249.34243451,15.614713597));
#228=CARTESIAN_POINT('',(17.954252563,240.277713723,24.672176219));
#229=CARTESIAN_POINT('',(16.986242232,236.206001557,29.555613716));
#230=CARTESIAN_POINT('',(14.893308894,228.848088395,39.818954626));
#231=CARTESIAN_POINT('',(13.76832128,225.559830275,45.199154536));
#232=CARTESIAN_POINT('',(11.37688671,219.626252876,56.302414662));
#233=CARTESIAN_POINT('',(10.109575041,216.979211294,62.026052773));
#234=CARTESIAN_POINT('',(7.428020967,212.239650977,73.707249321));
#235=CARTESIAN_POINT('',(6.011437289,210.146059957,79.665497225));
#236=CARTESIAN_POINT('',(3.050728804,206.524079731,91.73292251));
#237=CARTESIAN_POINT('',(1.503154669,204.996926859,97.843107725));
#238=CARTESIAN_POINT('',(-0.166178404,203.712612666,104.47996957));
#239=CARTESIAN_POINT('',(-0.258818907,203.643459869,104.975733536));
#240=CARTESIAN_POINT('',(-0.379982713,203.556166892,105.971988547));
#241=CARTESIAN_POINT('',(-0.398566269,203.545553687,106.473033475));
#242=CARTESIAN_POINT('',(-0.462703299,203.510731559,107.974674101));
#243=CARTESIAN_POINT('',(-0.501981309,203.494806207,108.975202053));
#244=CARTESIAN_POINT('',(-0.609660444,203.468710566,111.97494075));
#245=CARTESIAN_POINT('',(-0.66790321,203.480223784,113.972305889));
#246=CARTESIAN_POINT('',(-0.804266891,203.599986433,119.955858669));
#247=CARTESIAN_POINT('',(-0.844034995,203.793456132,123.933490726));
#248=CARTESIAN_POINT('',(-0.828318938,204.702224689,135.82330418));
#249=CARTESIAN_POINT('',(-0.637797453,205.745939773,143.692155894));
#250=CARTESIAN_POINT('',(0.323514231,210.085424722,167.062813151));
#251=CARTESIAN_POINT('',(1.483858882,214.588489588,182.325845858));
#252=CARTESIAN_POINT('',(3.929292576,225.769173241,210.747335177));
#253=CARTESIAN_POINT('',(5.182175481,232.165885488,223.798636015));
#254=CARTESIAN_POINT('',(8.384592526,246.65527704,248.447145519));
#255=CARTESIAN_POINT('',(10.334035111,254.748931029,260.044314553));
#256=CARTESIAN_POINT('',(15.430836746,272.257153063,281.41172928));
#257=CARTESIAN_POINT('',(18.578354577,281.671771931,291.180999639));
#258=CARTESIAN_POINT('',(26.540822879,301.447256811,308.514496988));
#259=CARTESIAN_POINT('',(31.355082997,311.806647081,316.077674149));
#260=CARTESIAN_POINT('',(37.223369463,322.461923293,322.364215974));
#261=CARTESIAN_POINT('',(16.209381065,303.751916189,17.811646233));
#262=CARTESIAN_POINT('',(16.470893457,298.2213179,18.769427424));
#263=CARTESIAN_POINT('',(16.585932346,293.2083367,20.195013819));
#264=CARTESIAN_POINT('',(16.611453791,283.996112321,23.827697077));
#265=CARTESIAN_POINT('',(16.521828334,279.793722689,26.035664528));
#266=CARTESIAN_POINT('',(16.205924391,271.990747628,31.168032338));
#267=CARTESIAN_POINT('',(15.979111619,268.389693001,34.09520306));
#268=CARTESIAN_POINT('',(15.447191665,261.658416487,40.629776894));
#269=CARTESIAN_POINT('',(15.142113529,258.529940748,44.238256806));
#270=CARTESIAN_POINT('',(14.513306872,252.667626149,52.059228297));
#271=CARTESIAN_POINT('',(14.190270641,249.934748887,56.271119494));
#272=CARTESIAN_POINT('',(13.575175867,244.791421446,65.178501767));
#273=CARTESIAN_POINT('',(13.283891317,242.380066197,69.873163698));
#274=CARTESIAN_POINT('',(12.747158369,237.808091637,79.60796817));
#275=CARTESIAN_POINT('',(12.501309658,235.645067322,84.64780139));
#276=CARTESIAN_POINT('',(12.024153607,231.551162276,94.936664271));
#277=CARTESIAN_POINT('',(11.789990706,229.61823387,100.18625588));
#278=CARTESIAN_POINT('',(11.527887721,227.712942605,105.895391575));
#279=CARTESIAN_POINT('',(11.507865833,227.612061787,106.321414003));
#280=CARTESIAN_POINT('',(11.468776271,227.491822875,107.176516248));
#281=CARTESIAN_POINT('',(11.449648609,227.484942837,107.605834514));
#282=CARTESIAN_POINT('',(11.394670115,227.455091711,108.893073953));
#283=CARTESIAN_POINT('',(11.36097934,227.441428218,109.751244206));
#284=CARTESIAN_POINT('',(11.268566253,227.419029254,112.325787848));
#285=CARTESIAN_POINT('',(11.218503096,227.428888279,114.042196423));
#286=CARTESIAN_POINT('',(11.101152086,227.531952891,119.191488761));
#287=CARTESIAN_POINT('',(11.06670545,227.698618108,122.624473829));
#288=CARTESIAN_POINT('',(11.080321813,228.485678481,132.921971968));
#289=CARTESIAN_POINT('',(11.245471008,229.39317835,139.785451023));
#290=CARTESIAN_POINT('',(12.090938057,233.20957354,160.339072035));
#291=CARTESIAN_POINT('',(13.124011049,237.215161267,173.994174132));
#292=CARTESIAN_POINT('',(15.346391652,247.376031521,199.823280323));
#293=CARTESIAN_POINT('',(16.482708222,253.176456293,211.647567227));
#294=CARTESIAN_POINT('',(19.366964716,266.226573941,233.84761001));
#295=CARTESIAN_POINT('',(21.115238903,273.476062113,244.221865019));
#296=CARTESIAN_POINT('',(25.634017368,288.998775329,263.166102621));
#297=CARTESIAN_POINT('',(28.403711793,297.269187995,271.733806526));
#298=CARTESIAN_POINT('',(35.320018215,314.446567937,286.789994881));
#299=CARTESIAN_POINT('',(39.462019302,323.348736245,293.279284957));
#300=CARTESIAN_POINT('',(44.47788432,332.456237645,298.652649976));
#301=CARTESIAN_POINT('',(-9.689856295,301.945103449,11.430611904));
#302=CARTESIAN_POINT('',(-9.48186098,296.456018055,12.593852801));
#303=CARTESIAN_POINT('',(-9.421941831,291.509891166,14.234889361));
#304=CARTESIAN_POINT('',(-9.508328457,282.503426266,18.318960046));
#305=CARTESIAN_POINT('',(-9.654822617,278.439879713,20.762896651));
#306=CARTESIAN_POINT('',(-10.081743807,271.015668377,26.386845451));
#307=CARTESIAN_POINT('',(-10.362861285,267.654508929,29.569686482));
#308=CARTESIAN_POINT('',(-10.989948001,261.542424372,36.631711805));
#309=CARTESIAN_POINT('',(-11.336152252,258.79337392,40.512075103));
#310=CARTESIAN_POINT('',(-12.010503759,253.875966806,48.884363209));
#311=CARTESIAN_POINT('',(-12.338272573,251.709119509,53.37583959));
#312=CARTESIAN_POINT('',(-12.881214678,247.929961553,62.83252497));
#313=CARTESIAN_POINT('',(-13.095568622,246.318059513,67.797030462));
#314=CARTESIAN_POINT('',(-13.324064904,243.59581608,78.030758615));
#315=CARTESIAN_POINT('',(-13.337236767,242.48480833,83.299481895));
#316=CARTESIAN_POINT('',(-13.111259921,240.688379394,93.960573162));
#317=CARTESIAN_POINT('',(-12.871814334,240.001316207,99.352718217));
#318=CARTESIAN_POINT('',(-12.479173125,239.454501873,105.145693355));
#319=CARTESIAN_POINT('',(-12.465111507,239.422804347,105.574983711));
#320=CARTESIAN_POINT('',(-12.466929865,239.378059063,106.432337663));
#321=CARTESIAN_POINT('',(-12.48780971,239.367486846,106.860243543));
#322=CARTESIAN_POINT('',(-12.542628185,239.337723605,108.14375239));
#323=CARTESIAN_POINT('',(-12.576198887,239.324112254,108.99891558));
#324=CARTESIAN_POINT('',(-12.66823,239.301809102,111.562868854));
#325=CARTESIAN_POINT('',(-12.718011191,239.31164815,113.270124019));
#326=CARTESIAN_POINT('',(-12.834592228,239.414036662,118.385632454));
#327=CARTESIAN_POINT('',(-12.86862225,239.579444906,121.787652486));
#328=CARTESIAN_POINT('',(-12.855159227,240.357480162,131.96699531));
#329=CARTESIAN_POINT('',(-12.692056599,241.251909313,138.717935839));
#330=CARTESIAN_POINT('',(-11.864410645,244.987818267,158.837911012));
#331=CARTESIAN_POINT('',(-10.860065016,248.883840344,172.076424862));
#332=CARTESIAN_POINT('',(-8.724146521,258.649400153,196.900645135));
#333=CARTESIAN_POINT('',(-7.619343301,264.290738268,208.431677161));
#334=CARTESIAN_POINT('',(-4.770613679,277.180179177,230.358492367));
#335=CARTESIAN_POINT('',(-3.026474374,284.42769228,240.753544932));
#336=CARTESIAN_POINT('',(1.562190424,300.19049277,259.990826925));
#337=CARTESIAN_POINT('',(4.406231593,308.704348561,268.83240468));
#338=CARTESIAN_POINT('',(11.643878023,326.679825471,284.588204366));
#339=CARTESIAN_POINT('',(16.035523002,336.139784979,291.503354024));
#340=CARTESIAN_POINT('',(21.437793704,345.948898226,297.290665349));
#341=(BOUNDED_SURFACE()
B_SPLINE_SURFACE(3,3,((#61,#62,#63,#64,#65,#66,#67,#68,#69,#70,#71,#72,#73,#74,#75,#76,#77,#78,#79,#80,#81,#82,#83,#84,#85,#86,
#87,#88,#89,#90,#91,#92,#93,#94,#95,#96,#97,#98,#99,#100),(#101,#102,#103,#104,#105,#106,#107,#108,#109,#110,#111,#112,#113,#114,#115,#116,#117,#118,#119,#120,#121,#122,#123,#124,#125,#126,
#127,#128,#129,#130,#131,#132,#133,#134,#135,#136,#137,#138,#139,#140),(#141,#142,#143,#144,#145,#146,#147,#148,#149,#150,#151,#152,#153,#154,#155,#156,#157,#158,#159,#160,#161,#162,#163,#164,#165,#166,
#167,#168,#169,#170,#171,#172,#173,#174,#175,#176,#177,#178,#179,#180),(#181,#182,#183,#184,#185,#186,#187,#188,#189,#190,#191,#192,#193,#194,#195,#196,#197,#198,#199,#200,#201,#202,#203,#204,#205,#206,
#207,#208,#209,#210,#211,#212,#213,#214,#215,#216,#217,#218,#219,#220),(#221,#222,#223,#224,#225,#226,#227,#228,#229,#230,#231,#232,#233,#234,#235,#236,#237,#238,#239,#240,#241,#242,#243,#244,#245,#246,
#247,#248,#249,#250,#251,#252,#253,#254,#255,#256,#257,#258,#259,#260),(#261,#262,#263,#264,#265,#266,#267,#268,#269,#270,#271,#272,#273,#274,#275,#276,#277,#278,#279,#280,#281,#282,#283,#284,#285,#286,
#287,#288,#289,#290,#291,#292,#293,#294,#295,#296,#297,#298,#299,#300),(#301,#302,#303,#304,#305,#306,#307,#308,#309,#310,#311,#312,#313,#314,#315,#316,#317,#318,#319,#320,#321,#322,#323,#324,#325,#326,
#327,#328,#329,#330,#331,#332,#333,#334,#335,#336,#337,#338,#339,#340)),.UNSPECIFIED.,.T.,.F.,.U.)
B_SPLINE_SURFACE_WITH_KNOTS((4,3,4),(4,2,2,2,2,2,2,2,2,2,2,2,2,2,2,2,2,2,2,4),(0.,0.5,1.),(0.,0.044349263,0.088698526,0.13304779,0.177397053,0.221746316,0.266095579,0.310444842,0.354794105,0.358349357,0.361904609,0.369015113,0.383236121,0.411678136,0.468562167,0.582330228,0.686747671,0.791165114,0.895582557,1.),.UNSPECIFIED.)
GEOMETRIC_REPRESENTATION_ITEM()
RATIONAL_B_SPLINE_SURFACE(((1.,1.,1.,1.,1.,1.,1.,1.,1.,1.,1.,1.,1.,1.,1.,1.,1.,1.,1.,1.,1.,1.,1.,1.,1.,1.,
1.,1.,1.,1.,1.,1.,1.,1.,1.,1.,1.,1.,1.,1.),(0.333333333,0.333333333,0.333333333,0.333333333,0.333333333,0.333333333,0.333333333,0.333333333,0.333333333,0.333333333,0.333333333,0.333333333,0.333333333,0.333333333,0.333333333,0.333333333,0.333333333,0.333333333,0.333333333,0.333333333,0.333333333,0.333333333,0.333333333,0.333333333,0.333333333,0.333333333,
0.333333333,0.333333333,0.333333333,0.333333333,0.333333333,0.333333333,0.333333333,0.333333333,0.333333333,0.333333333,0.333333333,0.333333333,0.333333333,0.333333333),(0.333333333,0.333333333,0.333333333,0.333333333,0.333333333,0.333333333,0.333333333,0.333333333,0.333333333,0.333333333,0.333333333,0.333333333,0.333333333,0.333333333,0.333333333,0.333333333,0.333333333,0.333333333,0.333333333,0.333333333,0.333333333,0.333333333,0.333333333,0.333333333,0.333333333,0.333333333,
0.333333333,0.333333333,0.333333333,0.333333333,0.333333333,0.333333333,0.333333333,0.333333333,0.333333333,0.333333333,0.333333333,0.333333333,0.333333333,0.333333333),(1.,1.,1.,1.,1.,1.,1.,1.,1.,1.,1.,1.,1.,1.,1.,1.,1.,1.,1.,1.,1.,1.,1.,1.,1.,1.,
1.,1.,1.,1.,1.,1.,1.,1.,1.,1.,1.,1.,1.,1.),(0.333333333,0.333333333,0.333333333,0.333333333,0.333333333,0.333333333,0.333333333,0.333333333,0.333333333,0.333333333,0.333333333,0.333333333,0.333333333,0.333333333,0.333333333,0.333333333,0.333333333,0.333333333,0.333333333,0.333333333,0.333333333,0.333333333,0.333333333,0.333333333,0.333333333,0.333333333,
0.333333333,0.333333333,0.333333333,0.333333333,0.333333333,0.333333333,0.333333333,0.333333333,0.333333333,0.333333333,0.333333333,0.333333333,0.333333333,0.333333333),(0.333333333,0.333333333,0.333333333,0.333333333,0.333333333,0.333333333,0.333333333,0.333333333,0.333333333,0.333333333,0.333333333,0.333333333,0.333333333,0.333333333,0.333333333,0.333333333,0.333333333,0.333333333,0.333333333,0.333333333,0.333333333,0.333333333,0.333333333,0.333333333,0.333333333,0.333333333,
0.333333333,0.333333333,0.333333333,0.333333333,0.333333333,0.333333333,0.333333333,0.333333333,0.333333333,0.333333333,0.333333333,0.333333333,0.333333333,0.333333333),(1.,1.,1.,1.,1.,1.,1.,1.,1.,1.,1.,1.,1.,1.,1.,1.,1.,1.,1.,1.,1.,1.,1.,1.,1.,1.,
1.,1.,1.,1.,1.,1.,1.,1.,1.,1.,1.,1.,1.,1.)))
REPRESENTATION_ITEM('')
SURFACE()
);
#342=CARTESIAN_POINT('',(21.437793704,345.948898226,297.290665349));
#343=CARTESIAN_POINT('',(16.035523002,336.139784979,291.503354024));
#344=CARTESIAN_POINT('',(11.643878023,326.679825471,284.588204366));
#345=CARTESIAN_POINT('',(4.406231593,308.704348561,268.83240468));
#346=CARTESIAN_POINT('',(1.562190424,300.19049277,259.990826925));
#347=CARTESIAN_POINT('',(-3.026474374,284.42769228,240.753544932));
#348=CARTESIAN_POINT('',(-4.770613679,277.180179177,230.358492367));
#349=CARTESIAN_POINT('',(-7.619343301,264.290738268,208.431677161));
#350=CARTESIAN_POINT('',(-8.724146521,258.649400153,196.900645135));
#351=CARTESIAN_POINT('',(-10.860065016,248.883840344,172.076424862));
#352=CARTESIAN_POINT('',(-11.864410645,244.987818267,158.837911012));
#353=CARTESIAN_POINT('',(-12.692056599,241.251909313,138.717935839));
#354=CARTESIAN_POINT('',(-12.855159227,240.357480162,131.96699531));
#355=CARTESIAN_POINT('',(-12.86862225,239.579444906,121.787652486));
#356=CARTESIAN_POINT('',(-12.834592228,239.414036662,118.385632454));
#357=CARTESIAN_POINT('',(-12.718011191,239.31164815,113.270124019));
#358=CARTESIAN_POINT('',(-12.66823,239.301809102,111.562868854));
#359=CARTESIAN_POINT('',(-12.576198887,239.324112254,108.99891558));
#360=CARTESIAN_POINT('',(-12.542628185,239.337723605,108.14375239));
#361=CARTESIAN_POINT('',(-12.48780971,239.367486846,106.860243543));
#362=CARTESIAN_POINT('',(-12.466929865,239.378059063,106.432337663));
#363=CARTESIAN_POINT('',(-12.465111507,239.422804347,105.574983711));
#364=CARTESIAN_POINT('',(-12.479173125,239.454501873,105.145693355));
#365=CARTESIAN_POINT('',(-12.871814334,240.001316207,99.352718217));
#366=CARTESIAN_POINT('',(-13.111259921,240.688379394,93.960573162));
#367=CARTESIAN_POINT('',(-13.337236767,242.48480833,83.299481895));
#368=CARTESIAN_POINT('',(-13.324064904,243.59581608,78.030758615));
#369=CARTESIAN_POINT('',(-13.095568622,246.318059513,67.797030462));
#370=CARTESIAN_POINT('',(-12.881214678,247.929961553,62.83252497));
#371=CARTESIAN_POINT('',(-12.338272573,251.709119509,53.37583959));
#372=CARTESIAN_POINT('',(-12.010503759,253.875966806,48.884363209));
#373=CARTESIAN_POINT('',(-11.336152252,258.79337392,40.512075103));
#374=CARTESIAN_POINT('',(-10.989948001,261.542424372,36.631711805));
#375=CARTESIAN_POINT('',(-10.362861285,267.654508929,29.569686482));
#376=CARTESIAN_POINT('',(-10.081743807,271.015668377,26.386845451));
#377=CARTESIAN_POINT('',(-9.654822617,278.439879713,20.762896651));
#378=CARTESIAN_POINT('',(-9.508328457,282.503426266,18.318960046));
#379=CARTESIAN_POINT('',(-9.421941831,291.509891166,14.234889361));
#380=CARTESIAN_POINT('',(-9.48186098,296.456018055,12.593852801));
#381=CARTESIAN_POINT('',(-9.689856295,301.945103449,11.430611904));
#382=B_SPLINE_CURVE_WITH_KNOTS('',3,(#342,#343,#344,#345,#346,#347,#348,#349,#350,#351,#352,#353,#354,#355,#356,#357,#358,#359,#360,#361,#362,#363,#364,#365,#366,#367,
#368,#369,#370,#371,#372,#373,#374,#375,#376,#377,#378,#379,#380,#381),.UNSPECIFIED.,.F.,.F.,(4,2,2,2,2,2,2,2,2,2,2,2,2,2,2,2,2,2,2,4),(0.,0.104417443,0.208834886,0.313252329,0.417669772,0.531437833,0.588321864,0.616763879,0.630984887,0.638095391,0.641650643,0.645205895,0.689555158,0.733904421,0.778253684,0.822602947,0.86695221,0.911301474,0.955650737,1.),.UNSPECIFIED.);
#383=EDGE_CURVE('',#50,#33,#382,.T.);
#384=ORIENTED_EDGE('',*,*,#383,.T.);
#385=ORIENTED_EDGE('',*,*,#39,.T.);
#386=ORIENTED_EDGE('',*,*,#383,.F.);
#387=ORIENTED_EDGE('',*,*,#56,.F.);
#388=EDGE_LOOP('',(#384,#385,#386,#387));
#389=FACE_BOUND('',#388,.T.);
#390=ADVANCED_FACE('',(#389),#341,.T.);
#391=CLOSED_SHELL('',(#43,#60,#390));
#392=MANIFOLD_SOLID_BREP('Hose 1',#391);
#393=COLOUR_RGB('',0.188235298,0.188235298,0.188235298);
#394=FILL_AREA_STYLE_COLOUR('',#393);
#395=FILL_AREA_STYLE('',(#394));
#396=SURFACE_STYLE_FILL_AREA(#395);
#397=SURFACE_SIDE_STYLE('',(#396));
#398=SURFACE_STYLE_USAGE(.BOTH.,#397);
#399=PRESENTATION_STYLE_ASSIGNMENT((#398));
#26=STYLED_ITEM('',(#399),#392);
#16=SHAPE_REPRESENTATION('root',(#15),#10);
#17=ADVANCED_BREP_SHAPE_REPRESENTATION('root',(#392),#10);
#407=SHAPE_REPRESENTATION_RELATIONSHIP('','',#16,#17);
#408=APPLICATION_CONTEXT('configuration controlled 3D design of mechanical parts and assemblies');
#409=APPLICATION_PROTOCOL_DEFINITION('international standard','configuration_control_3d_design_ed2_mim',2004,#408);
#410=PRODUCT_CONTEXT('',#408,'mechanical');
#411=PRODUCT_DEFINITION_CONTEXT('part definition',#408,'design');
#24=PRODUCT('root','root','',(#410));
#412=PRODUCT_RELATED_PRODUCT_CATEGORY('part','',(#24));
#413=PRODUCT_DEFINITION_FORMATION_WITH_SPECIFIED_SOURCE('','',#24,.NOT_KNOWN.);
#25=PRODUCT_DEFINITION('design','',#413,#411);
#23=PRODUCT_DEFINITION_SHAPE('','',#25);
#414=SHAPE_DEFINITION_REPRESENTATION(#23,#16);
#11=DRAUGHTING_MODEL('',(),#10);
#1=MECHANICAL_DESIGN_GEOMETRIC_PRESENTATION_REPRESENTATION('',(#26),#10);
ENDSEC;
END-ISO-10303-21;
