ISO-10303-21;
HEADER;

/* File generated by HOOPS Exchange Version 24.2.0 */

FILE_DESCRIPTION(('HOOPS Exchange Step'),'2;1');

FILE_NAME('C:\\Users\\andy\\OneDrive\\Desktop\\Scraper CAD\\Front Scraper\\Hose2.stp',
'2026-05-10T16:22:15-05:00',
('andy'),
('Unknown organisation'),
'HOOPS Exchange 2024.2',
'HOOPS Exchange',
'Unknown authorisation');

FILE_SCHEMA( ('AP203_CONFIGURATION_CONTROLLED_3D_DESIGN_OF_MECHANICAL_PARTS_AND_ASSEMBLIES_MIM_LF') );

ENDSEC;

DATA;
#3=(NAMED_UNIT(*)PLANE_ANGLE_UNIT()SI_UNIT($,.RADIAN.));
#4=PLANE_ANGLE_MEASURE_WITH_UNIT(PLANE_ANGLE_MEASURE(0.0174532925),#3);
#5=(CONVERSION_BASED_UNIT('DEGREE',#4)NAMED_UNIT(#6)PLANE_ANGLE_UNIT());
#6=DIMENSIONAL_EXPONENTS(0.,0.,0.,0.,0.,0.,0.);
#7=(NAMED_UNIT(*)SI_UNIT($,.STERADIAN.)SOLID_ANGLE_UNIT());
#8=(LENGTH_UNIT()NAMED_UNIT(*)SI_UNIT(.MILLI.,.METRE.));
#9=UNCERTAINTY_MEASURE_WITH_UNIT(LENGTH_MEASURE(1.000000E-05),#8,'DISTANCE_ACCURACY_VALUE','Maximum Tolerance applied to model');
#10=(GEOMETRIC_REPRESENTATION_CONTEXT(3)GLOBAL_UNCERTAINTY_ASSIGNED_CONTEXT((#9))GLOBAL_UNIT_ASSIGNED_CONTEXT((#8,#5,#7))REPRESENTATION_CONTEXT('','root'));
#12=CARTESIAN_POINT('',(0.,0.,0.));
#13=DIRECTION('',(0.,0.,1.));
#14=DIRECTION('',(1.,0.,0.));
#15=AXIS2_PLACEMENT_3D('',#12,#13,#14);
#27=CARTESIAN_POINT('',(-1.729576953,118.619800736,15.529415487));
#28=DIRECTION('',(0.00929504,0.999872496,0.012984411));
#29=DIRECTION('',(-0.,-0.012984972,0.999915692));
#30=AXIS2_PLACEMENT_3D('',#27,#28,#29);
#31=PLANE('',#30);
#32=CARTESIAN_POINT('',(-4.717158611,118.502328784,26.714109312));
#33=VERTEX_POINT('',#32);
#34=CARTESIAN_POINT('',(-1.729576953,118.619800736,15.529415487));
#35=DIRECTION('',(0.00929504,0.999872496,0.012984411));
#36=DIRECTION('',(-0.258052296,-0.010146637,0.966077667));
#37=AXIS2_PLACEMENT_3D('',#34,#35,#36);
#38=CIRCLE('',#37,11.577427166);
#39=EDGE_CURVE('',#33,#33,#38,.T.);
#40=ORIENTED_EDGE('',*,*,#39,.F.);
#41=EDGE_LOOP('',(#40));
#42=FACE_BOUND('',#41,.T.);
#43=ADVANCED_FACE('',(#42),#31,.F.);
#44=CARTESIAN_POINT('',(21.234319898,202.79058461,345.577175762));
#45=DIRECTION('',(0.641986969,0.705686004,0.299766568));
#46=DIRECTION('',(0.719541481,-0.689554673,0.082306801));
#47=AXIS2_PLACEMENT_3D('',#44,#45,#46);
#48=PLANE('',#47);
#49=CARTESIAN_POINT('',(28.491479593,194.591162715,349.337486059));
#50=VERTEX_POINT('',#49);
#51=CARTESIAN_POINT('',(21.234319898,202.79058461,345.577175762));
#52=DIRECTION('',(0.641986969,0.705686004,0.299766568));
#53=DIRECTION('',(0.626836999,-0.708224874,0.324796714));
#54=AXIS2_PLACEMENT_3D('',#51,#52,#53);
#55=CIRCLE('',#54,11.577427166);
#56=EDGE_CURVE('',#50,#50,#55,.T.);
#57=ORIENTED_EDGE('',*,*,#56,.T.);
#58=EDGE_LOOP('',(#57));
#59=FACE_BOUND('',#58,.T.);
#60=ADVANCED_FACE('',(#59),#48,.T.);
#61=CARTESIAN_POINT('',(-4.717158612,118.502328784,26.714109312));
#62=CARTESIAN_POINT('',(-4.634856139,124.034717205,26.794199648));
#63=CARTESIAN_POINT('',(-4.724689118,129.067001488,27.503655874));
#64=CARTESIAN_POINT('',(-5.169788778,138.313975385,29.946336174));
#65=CARTESIAN_POINT('',(-5.525171478,142.533523944,31.679939965));
#66=CARTESIAN_POINT('',(-6.45236233,150.337217118,36.054186238));
#67=CARTESIAN_POINT('',(-7.025189592,153.922460701,38.698743304));
#68=CARTESIAN_POINT('',(-8.34947751,160.521421488,44.82661199));
#69=CARTESIAN_POINT('',(-9.10128511,163.532689196,48.311460213));
#70=CARTESIAN_POINT('',(-10.731615513,168.959755135,55.999977455));
#71=CARTESIAN_POINT('',(-11.609869006,171.373873199,60.202987924));
#72=CARTESIAN_POINT('',(-13.427295355,175.570068675,69.148346999));
#73=CARTESIAN_POINT('',(-14.366140434,177.35175432,73.889919381));
#74=CARTESIAN_POINT('',(-17.170680178,181.720944437,88.607241931));
#75=CARTESIAN_POINT('',(-19.019518587,183.325348571,99.078048573));
#76=CARTESIAN_POINT('',(-20.816390839,183.698170701,110.621485522));
#77=CARTESIAN_POINT('',(-21.076329372,183.710835846,111.932930084));
#78=CARTESIAN_POINT('',(-21.563001047,183.699755921,114.560076401));
#79=CARTESIAN_POINT('',(-21.802891116,183.674057444,115.873326531));
#80=CARTESIAN_POINT('',(-22.512106927,183.540166258,119.813822491));
#81=CARTESIAN_POINT('',(-22.970992328,183.375168376,122.441864254));
#82=CARTESIAN_POINT('',(-24.304374602,182.682432731,130.34088519));
#83=CARTESIAN_POINT('',(-25.135722874,181.956517932,135.627207358));
#84=CARTESIAN_POINT('',(-27.43859362,179.232280291,151.617910199));
#85=CARTESIAN_POINT('',(-28.719004416,176.680023222,162.452384272));
#86=CARTESIAN_POINT('',(-30.587945729,171.73785563,184.099629847));
#87=CARTESIAN_POINT('',(-31.199289623,169.393808984,194.705289243));
#88=CARTESIAN_POINT('',(-31.352512927,165.253299435,216.104204414));
#89=CARTESIAN_POINT('',(-30.894314262,163.456683063,226.898484925));
#90=CARTESIAN_POINT('',(-28.580781721,161.050326642,247.135042033));
#91=CARTESIAN_POINT('',(-26.921236423,160.308394138,256.589020259));
#92=CARTESIAN_POINT('',(-23.438122501,160.097653054,270.707547527));
#93=CARTESIAN_POINT('',(-22.111396404,160.177952581,275.403128999));
#94=CARTESIAN_POINT('',(-19.859090426,160.568212176,282.405594519));
#95=CARTESIAN_POINT('',(-19.064623325,160.743273233,284.732904241));
#96=CARTESIAN_POINT('',(-17.805776529,161.078833283,288.2102134));
#97=CARTESIAN_POINT('',(-17.374969856,161.202848108,289.367038224));
#98=CARTESIAN_POINT('',(-16.711784942,161.407797464,291.098417802));
#99=CARTESIAN_POINT('',(-16.487893822,161.479268496,291.674901097));
#100=CARTESIAN_POINT('',(-16.147790666,161.591292073,292.538605299));
#101=CARTESIAN_POINT('',(-16.033711887,161.629436097,292.826336576));
#102=CARTESIAN_POINT('',(-15.804128054,161.707344086,293.40144926));
#103=CARTESIAN_POINT('',(-15.68973434,161.746856745,293.689335949));
#104=CARTESIAN_POINT('',(-12.897109777,162.69403874,299.946815248));
#105=CARTESIAN_POINT('',(-9.95647716,163.958360792,305.840493253));
#106=CARTESIAN_POINT('',(-3.56398905,167.339102274,317.106016434));
#107=CARTESIAN_POINT('',(-0.110580985,169.455919212,322.478621537));
#108=CARTESIAN_POINT('',(7.288613526,174.707950454,332.29886878));
#109=CARTESIAN_POINT('',(11.236668821,177.845450253,336.747644217));
#110=CARTESIAN_POINT('',(17.488520645,183.441937044,342.365078671));
#111=CARTESIAN_POINT('',(19.626900757,185.45557697,344.060750162));
#112=CARTESIAN_POINT('',(23.995970894,189.791335967,347.031314159));
#113=CARTESIAN_POINT('',(26.226602358,192.113495432,348.305958521));
#114=CARTESIAN_POINT('',(28.491479593,194.591162715,349.337486059));
#115=CARTESIAN_POINT('',(17.652427449,118.216820442,32.686326955));
#116=CARTESIAN_POINT('',(17.751220545,123.749857276,32.704680879));
#117=CARTESIAN_POINT('',(17.678852244,128.790392358,33.348122534));
#118=CARTESIAN_POINT('',(17.270512748,138.076385599,35.649790145));
#119=CARTESIAN_POINT('',(16.934438673,142.326698701,37.308376078));
#120=CARTESIAN_POINT('',(16.047070049,150.224035344,41.524002545));
#121=CARTESIAN_POINT('',(15.494777501,153.872182279,44.084928883));
#122=CARTESIAN_POINT('',(14.21110671,160.640751136,50.038928271));
#123=CARTESIAN_POINT('',(13.479407114,163.75880722,53.433504504));
#124=CARTESIAN_POINT('',(11.885426789,169.455537222,60.939382887));
#125=CARTESIAN_POINT('',(11.023426189,172.032704078,65.050006115));
#126=CARTESIAN_POINT('',(9.22882518,176.620214853,73.816439773));
#127=CARTESIAN_POINT('',(8.296506196,178.630410113,78.471502583));
#128=CARTESIAN_POINT('',(5.485226566,183.782294301,92.955179274));
#129=CARTESIAN_POINT('',(3.593513866,186.047842826,103.306574064));
#130=CARTESIAN_POINT('',(1.685402793,187.205805944,114.80733578));
#131=CARTESIAN_POINT('',(1.429255482,187.191690535,116.119765314));
#132=CARTESIAN_POINT('',(0.943684068,187.18063258,118.740974755));
#133=CARTESIAN_POINT('',(0.704677643,187.154998305,120.049416137));
#134=CARTESIAN_POINT('',(-0.000935484,187.021779181,123.969901743));
#135=CARTESIAN_POINT('',(-0.456147306,186.857881162,126.577148096));
#136=CARTESIAN_POINT('',(-1.77521164,186.172567951,134.391362156));
#137=CARTESIAN_POINT('',(-2.592606113,185.457313363,139.591243286));
#138=CARTESIAN_POINT('',(-4.845604347,182.792014484,155.235691577));
#139=CARTESIAN_POINT('',(-6.082128419,180.31784318,165.724974427));
#140=CARTESIAN_POINT('',(-7.873998159,175.579480803,186.47952932));
#141=CARTESIAN_POINT('',(-8.442913255,173.373697942,196.473960667));
#142=CARTESIAN_POINT('',(-8.584598616,169.544870077,216.261936568));
#143=CARTESIAN_POINT('',(-8.157844736,167.922105644,226.052714564));
#144=CARTESIAN_POINT('',(-6.097882061,165.779492741,244.071286248));
#145=CARTESIAN_POINT('',(-4.628036894,165.128489296,252.416256648));
#146=CARTESIAN_POINT('',(-1.582661481,164.944200486,264.760425063));
#147=CARTESIAN_POINT('',(-0.427448066,165.014691462,268.846684569));
#148=CARTESIAN_POINT('',(1.525034574,165.352987453,274.916987278));
#149=CARTESIAN_POINT('',(2.212488603,165.504523658,276.930606827));
#150=CARTESIAN_POINT('',(3.299973098,165.794399852,279.934560278));
#151=CARTESIAN_POINT('',(3.671853822,165.901457252,280.933133664));
#152=CARTESIAN_POINT('',(4.243937884,166.078250499,282.426674963));
#153=CARTESIAN_POINT('',(4.437010043,166.139883825,282.923802181));
#154=CARTESIAN_POINT('',(4.730208229,166.236456595,283.668389105));
#155=CARTESIAN_POINT('',(4.828539284,166.269334623,283.916400777));
#156=CARTESIAN_POINT('',(5.026402335,166.336477745,284.412051981));
#157=CARTESIAN_POINT('',(5.125426174,166.368076226,284.660323175));
#158=CARTESIAN_POINT('',(7.446099968,167.66969271,290.016996267));
#159=CARTESIAN_POINT('',(9.873449939,169.135239935,295.003713029));
#160=CARTESIAN_POINT('',(15.053736149,172.578842788,304.32371149));
#161=CARTESIAN_POINT('',(17.806233098,174.559366563,308.654513214));
#162=CARTESIAN_POINT('',(23.514514964,179.092456061,316.309509644));
#163=CARTESIAN_POINT('',(26.466356481,181.641711658,319.631325092));
#164=CARTESIAN_POINT('',(30.981013517,185.932696221,323.691834286));
#165=CARTESIAN_POINT('',(32.501157957,187.44121008,324.893084035));
#166=CARTESIAN_POINT('',(35.576911334,190.635448201,326.974944721));
#167=CARTESIAN_POINT('',(37.132617194,192.3211,327.855990897));
#168=CARTESIAN_POINT('',(38.714501404,194.113929999,328.567089985));
#169=CARTESIAN_POINT('',(23.627590765,118.451764346,10.316939306));
#170=CARTESIAN_POINT('',(23.681812492,125.832100866,10.342789659));
#171=CARTESIAN_POINT('',(23.502474205,132.844181346,11.216344226));
#172=CARTESIAN_POINT('',(22.731295612,146.000510157,14.494377377));
#173=CARTESIAN_POINT('',(22.139584458,152.13989554,16.898456519));
#174=CARTESIAN_POINT('',(20.627598581,163.422220637,22.95564627));
#175=CARTESIAN_POINT('',(19.70836407,168.564085805,26.604813546));
#176=CARTESIAN_POINT('',(17.635454655,177.843160459,34.823418814));
#177=CARTESIAN_POINT('',(16.482152279,181.982903093,39.391286813));
#178=CARTESIAN_POINT('',(14.019347839,189.337942293,49.172719115));
#179=CARTESIAN_POINT('',(12.709587273,192.555092122,54.386921627));
#180=CARTESIAN_POINT('',(9.995828616,198.154627854,65.249428418));
#181=CARTESIAN_POINT('',(8.591456384,200.537648628,70.898537558));
#182=CARTESIAN_POINT('',(4.322170141,206.527680397,88.231996993));
#183=CARTESIAN_POINT('',(1.392935649,208.992689059,100.301869892));
#184=CARTESIAN_POINT('',(-1.693062733,210.091838334,113.790978412));
#185=CARTESIAN_POINT('',(-1.967693283,210.084188249,115.346901802));
#186=CARTESIAN_POINT('',(-2.539277408,210.071172499,118.432442552));
#187=CARTESIAN_POINT('',(-2.819499454,210.041021912,119.966624634));
#188=CARTESIAN_POINT('',(-3.64323994,209.885501517,124.543489361));
#189=CARTESIAN_POINT('',(-4.169815893,209.695085012,127.560430431));
#190=CARTESIAN_POINT('',(-5.680755512,208.910080552,136.511419552));
#191=CARTESIAN_POINT('',(-6.596193376,208.102387441,142.345177235));
#192=CARTESIAN_POINT('',(-9.066195713,205.180325326,159.496827773));
#193=CARTESIAN_POINT('',(-10.344429636,202.577263529,170.46829477));
#194=CARTESIAN_POINT('',(-12.131655761,197.851179979,191.169067238));
#195=CARTESIAN_POINT('',(-12.688049546,195.678009667,201.024986294));
#196=CARTESIAN_POINT('',(-12.826046359,191.948301191,220.300715251));
#197=CARTESIAN_POINT('',(-12.408281408,190.392350516,229.715709127));
#198=CARTESIAN_POINT('',(-10.453079395,188.358701653,246.817934207));
#199=CARTESIAN_POINT('',(-9.073737708,187.759367701,254.595454692));
#200=CARTESIAN_POINT('',(-6.288020809,187.590797661,265.886987801));
#201=CARTESIAN_POINT('',(-5.240121704,187.655856755,269.589167346));
#202=CARTESIAN_POINT('',(-3.48659613,187.959679795,275.040869789));
#203=CARTESIAN_POINT('',(-2.87178333,188.095325208,276.841264535));
#204=CARTESIAN_POINT('',(-1.903375213,188.353460038,279.516279634));
#205=CARTESIAN_POINT('',(-1.57287247,188.448619321,280.403694695));
#206=CARTESIAN_POINT('',(-1.065440037,188.605432579,281.728443502));
#207=CARTESIAN_POINT('',(-0.894349859,188.660050319,282.168964633));
#208=CARTESIAN_POINT('',(-0.634776216,188.745547693,282.828157909));
#209=CARTESIAN_POINT('',(-0.547761901,188.77464193,283.047624281));
#210=CARTESIAN_POINT('',(-0.372751069,188.834030222,283.486028723));
#211=CARTESIAN_POINT('',(-0.283040031,188.862160272,283.704587891));
#212=CARTESIAN_POINT('',(1.337529018,189.97517846,288.618430555));
#213=CARTESIAN_POINT('',(3.137157707,191.227550901,293.150206546));
#214=CARTESIAN_POINT('',(7.054889868,194.133141611,301.440313569));
#215=CARTESIAN_POINT('',(9.169448914,195.788032996,305.19464482));
#216=CARTESIAN_POINT('',(13.469377866,199.444528371,311.607448167));
#217=CARTESIAN_POINT('',(15.646266684,201.438251233,314.261274459));
#218=CARTESIAN_POINT('',(18.855875696,204.638261459,317.395246895));
#219=CARTESIAN_POINT('',(19.918298254,205.740628369,318.301929325));
#220=CARTESIAN_POINT('',(22.045912476,208.040580605,319.860605377));
#221=CARTESIAN_POINT('',(23.111318185,209.238012681,320.51353054));
#222=CARTESIAN_POINT('',(24.200182014,210.512773789,321.046469391));
#223=CARTESIAN_POINT('',(1.258004705,118.737272688,4.344721662));
#224=CARTESIAN_POINT('',(1.295735808,126.116960796,4.432308427));
#225=CARTESIAN_POINT('',(1.098932843,133.120790476,5.371877566));
#226=CARTESIAN_POINT('',(0.290994085,146.238099944,8.790923406));
#227=CARTESIAN_POINT('',(-0.320025693,152.346720783,11.270020406));
#228=CARTESIAN_POINT('',(-1.871833798,163.53540241,17.485829963));
#229=CARTESIAN_POINT('',(-2.811603024,168.614364227,21.218627967));
#230=CARTESIAN_POINT('',(-4.925129565,177.723830811,29.611102533));
#231=CARTESIAN_POINT('',(-6.098539944,181.75678507,34.269242523));
#232=CARTESIAN_POINT('',(-8.597694463,188.842160206,44.233313684));
#233=CARTESIAN_POINT('',(-9.923707922,191.896261243,49.539903436));
#234=CARTESIAN_POINT('',(-12.660291919,197.104481677,60.581335645));
#235=CARTESIAN_POINT('',(-14.071190245,199.258992835,66.316954356));
#236=CARTESIAN_POINT('',(-18.333736603,204.466330533,83.88405965));
#237=CARTESIAN_POINT('',(-21.220096805,206.270194803,96.0733444));
#238=CARTESIAN_POINT('',(-24.194856366,206.584203092,109.605128153));
#239=CARTESIAN_POINT('',(-24.473278137,206.60333356,111.160066573));
#240=CARTESIAN_POINT('',(-25.045962522,206.590295839,114.251544198));
#241=CARTESIAN_POINT('',(-25.327068212,206.560081051,115.790535028));
#242=CARTESIAN_POINT('',(-26.154411383,206.403888594,120.38741011));
#243=CARTESIAN_POINT('',(-26.684660915,206.212372226,123.425146589));
#244=CARTESIAN_POINT('',(-28.209918473,205.419945332,132.460942586));
#245=CARTESIAN_POINT('',(-29.139310138,204.60159201,138.381141306));
#246=CARTESIAN_POINT('',(-31.659184985,201.620591133,155.879046395));
#247=CARTESIAN_POINT('',(-32.981305632,198.939443572,167.195704615));
#248=CARTESIAN_POINT('',(-34.845603331,194.009554806,188.789167765));
#249=CARTESIAN_POINT('',(-35.444425914,191.698120709,199.25631487));
#250=CARTESIAN_POINT('',(-35.59396067,187.65673055,220.142983098));
#251=CARTESIAN_POINT('',(-35.144750934,185.926927935,230.561479488));
#252=CARTESIAN_POINT('',(-32.935979055,183.629535554,249.881689993));
#253=CARTESIAN_POINT('',(-31.366937237,182.939272543,258.768218303));
#254=CARTESIAN_POINT('',(-28.143481829,182.744250229,271.834110264));
#255=CARTESIAN_POINT('',(-26.924070042,182.819117874,276.145611776));
#256=CARTESIAN_POINT('',(-24.87072113,183.174904518,282.52947703));
#257=CARTESIAN_POINT('',(-24.148895258,183.334074784,284.643561949));
#258=CARTESIAN_POINT('',(-23.00912484,183.637893468,287.791932756));
#259=CARTESIAN_POINT('',(-22.619696149,183.750010177,288.837599255));
#260=CARTESIAN_POINT('',(-22.021162862,183.934979544,290.400186341));
#261=CARTESIAN_POINT('',(-21.819253723,183.99943499,290.920063549));
#262=CARTESIAN_POINT('',(-21.512775111,184.10038317,291.698374103));
#263=CARTESIAN_POINT('',(-21.410013071,184.134743404,291.95756008));
#264=CARTESIAN_POINT('',(-21.203281458,184.204896562,292.475426002));
#265=CARTESIAN_POINT('',(-21.098200545,184.24094079,292.733600665));
#266=CARTESIAN_POINT('',(-19.005680727,184.999524489,298.548249537));
#267=CARTESIAN_POINT('',(-16.692769391,186.050671759,303.986986769));
#268=CARTESIAN_POINT('',(-11.56283533,188.893401097,314.222618514));
#269=CARTESIAN_POINT('',(-8.747365169,190.684585645,319.018753143));
#270=CARTESIAN_POINT('',(-2.756523572,195.060022764,327.596807303));
#271=CARTESIAN_POINT('',(0.416579024,197.641989828,331.377593584));
#272=CARTESIAN_POINT('',(5.363382824,202.147502282,336.06849128));
#273=CARTESIAN_POINT('',(7.044041054,203.754995259,337.469595453));
#274=CARTESIAN_POINT('',(10.464972036,207.196468372,339.916974816));
#275=CARTESIAN_POINT('',(12.20530335,209.030408112,340.963498163));
#276=CARTESIAN_POINT('',(13.977160203,210.990006505,341.816865465));
#277=CARTESIAN_POINT('',(-21.111581356,119.02278103,-1.627495981));
#278=CARTESIAN_POINT('',(-21.090340875,126.401820725,-1.478172804));
#279=CARTESIAN_POINT('',(-21.304608519,133.397399606,-0.472589093));
#280=CARTESIAN_POINT('',(-22.149307441,146.47568973,3.087469434));
#281=CARTESIAN_POINT('',(-22.779635844,152.553546026,5.641584293));
#282=CARTESIAN_POINT('',(-24.371266176,163.648584183,12.016013656));
#283=CARTESIAN_POINT('',(-25.331570118,168.664642648,15.832442389));
#284=CARTESIAN_POINT('',(-27.485713784,177.604501163,24.398786252));
#285=CARTESIAN_POINT('',(-28.679232168,181.530667047,29.147198233));
#286=CARTESIAN_POINT('',(-31.214736764,188.346378119,39.293908253));
#287=CARTESIAN_POINT('',(-32.557003117,191.237430365,44.692885245));
#288=CARTESIAN_POINT('',(-35.316412455,196.054335499,55.913242871));
#289=CARTESIAN_POINT('',(-36.733836875,197.980337041,61.735371154));
#290=CARTESIAN_POINT('',(-40.989643347,202.40498067,79.536122306));
#291=CARTESIAN_POINT('',(-43.833129258,203.547700548,91.844818909));
#292=CARTESIAN_POINT('',(-46.696649998,203.076567849,105.419277894));
#293=CARTESIAN_POINT('',(-46.978862991,203.12247887,106.973231343));
#294=CARTESIAN_POINT('',(-47.552647637,203.109419179,110.070645844));
#295=CARTESIAN_POINT('',(-47.834636971,203.079140191,111.614445422));
#296=CARTESIAN_POINT('',(-48.665582826,202.92227567,116.231330858));
#297=CARTESIAN_POINT('',(-49.199505936,202.72965944,119.289862748));
#298=CARTESIAN_POINT('',(-50.739081434,201.929810112,128.41046562));
#299=CARTESIAN_POINT('',(-51.682426899,201.100796579,134.417105378));
#300=CARTESIAN_POINT('',(-54.252174258,198.060856941,152.261265017));
#301=CARTESIAN_POINT('',(-55.618181629,195.301623615,163.92311446));
#302=CARTESIAN_POINT('',(-57.5595509,190.167929633,186.409268293));
#303=CARTESIAN_POINT('',(-58.200802282,187.718231751,197.487643447));
#304=CARTESIAN_POINT('',(-58.361874981,183.365159909,219.985250944));
#305=CARTESIAN_POINT('',(-57.88122046,181.461505355,231.407249849));
#306=CARTESIAN_POINT('',(-55.418878715,178.900369454,252.945445778));
#307=CARTESIAN_POINT('',(-53.660136765,178.119177384,262.940981914));
#308=CARTESIAN_POINT('',(-49.998942849,177.897702797,277.781232727));
#309=CARTESIAN_POINT('',(-48.608018381,177.982378992,282.702056207));
#310=CARTESIAN_POINT('',(-46.25484613,178.390129242,290.01808427));
#311=CARTESIAN_POINT('',(-45.426007186,178.57282436,292.445859363));
#312=CARTESIAN_POINT('',(-44.114874466,178.922326898,296.067585878));
#313=CARTESIAN_POINT('',(-43.666519827,179.051401033,297.271503815));
#314=CARTESIAN_POINT('',(-42.976885688,179.264526509,299.071929181));
#315=CARTESIAN_POINT('',(-42.744157587,179.33881966,299.671162464));
#316=CARTESIAN_POINT('',(-42.390774006,179.455218647,300.568590298));
#317=CARTESIAN_POINT('',(-42.272264241,179.494844878,300.867495879));
#318=CARTESIAN_POINT('',(-42.033811847,179.575762903,301.46482328));
#319=CARTESIAN_POINT('',(-41.913361059,179.619721309,301.762613439));
#320=CARTESIAN_POINT('',(-39.348890472,180.023870519,308.478068518));
#321=CARTESIAN_POINT('',(-36.522696489,180.873792616,314.823766993));
#322=CARTESIAN_POINT('',(-30.180560529,183.653660583,327.004923458));
#323=CARTESIAN_POINT('',(-26.664179252,185.581138294,332.842861466));
#324=CARTESIAN_POINT('',(-18.982425011,190.675517158,343.58616644));
#325=CARTESIAN_POINT('',(-14.813108636,193.845728423,348.493912709));
#326=CARTESIAN_POINT('',(-8.129110048,199.656743106,354.741735666));
#327=CARTESIAN_POINT('',(-5.830216146,201.769362149,356.637261581));
#328=CARTESIAN_POINT('',(-1.115968404,206.352356138,359.973344254));
#329=CARTESIAN_POINT('',(1.299288515,208.822803543,361.413465786));
#330=CARTESIAN_POINT('',(3.754138391,211.467239221,362.58726154));
#331=CARTESIAN_POINT('',(-27.086744672,118.787837126,20.741891669));
#332=CARTESIAN_POINT('',(-27.020932823,124.319577135,20.883718417));
#333=CARTESIAN_POINT('',(-27.12823048,129.343610618,21.659189215));
#334=CARTESIAN_POINT('',(-27.610090305,138.551565171,24.242882203));
#335=CARTESIAN_POINT('',(-27.98478163,142.740349187,26.051503852));
#336=CARTESIAN_POINT('',(-28.951794708,150.450398891,30.584369931));
#337=CARTESIAN_POINT('',(-29.545156686,153.972739122,33.312557726));
#338=CARTESIAN_POINT('',(-30.910061729,160.40209184,39.614295709));
#339=CARTESIAN_POINT('',(-31.681977333,163.306571173,43.189415923));
#340=CARTESIAN_POINT('',(-33.348657814,168.463973047,51.060572024));
#341=CARTESIAN_POINT('',(-34.243164201,170.715042321,55.355969733));
#342=CARTESIAN_POINT('',(-36.083415891,174.519922498,64.480254226));
#343=CARTESIAN_POINT('',(-37.028787064,176.073098527,69.308336179));
#344=CARTESIAN_POINT('',(-39.826586922,179.659594574,84.259304588));
#345=CARTESIAN_POINT('',(-41.63255104,180.602854315,94.849523082));
#346=CARTESIAN_POINT('',(-43.318184472,180.190535459,106.435635263));
#347=CARTESIAN_POINT('',(-43.581914225,180.229981156,107.746094855));
#348=CARTESIAN_POINT('',(-44.069686162,180.218879261,110.379178047));
#349=CARTESIAN_POINT('',(-44.310459874,180.193116583,111.697236925));
#350=CARTESIAN_POINT('',(-45.02327837,180.058553334,115.65774324));
#351=CARTESIAN_POINT('',(-45.485837349,179.89245559,118.306580412));
#352=CARTESIAN_POINT('',(-46.833537563,179.19229751,126.290408224));
#353=CARTESIAN_POINT('',(-47.678839636,178.455722501,131.663171429));
#354=CARTESIAN_POINT('',(-50.031582893,175.672546099,148.000128822));
#355=CARTESIAN_POINT('',(-51.355880412,173.042203265,159.179794117));
#356=CARTESIAN_POINT('',(-53.301893299,167.896230457,181.719730375));
#357=CARTESIAN_POINT('',(-53.955665991,165.413920026,192.93661782));
#358=CARTESIAN_POINT('',(-54.120427238,160.961728794,215.94647226));
#359=CARTESIAN_POINT('',(-53.630783787,158.991260483,227.744255286));
#360=CARTESIAN_POINT('',(-51.063681381,156.321160542,250.198797818));
#361=CARTESIAN_POINT('',(-49.214435951,155.488298979,260.76178387));
#362=CARTESIAN_POINT('',(-45.293583521,155.251105621,276.65466999));
#363=CARTESIAN_POINT('',(-43.795344743,155.341213699,281.95957343));
#364=CARTESIAN_POINT('',(-41.243215426,155.7834369,289.894201759));
#365=CARTESIAN_POINT('',(-40.341735253,155.982022809,292.535201655));
#366=CARTESIAN_POINT('',(-38.911526155,156.363266713,296.485866522));
#367=CARTESIAN_POINT('',(-38.421793535,156.504238964,297.800942784));
#368=CARTESIAN_POINT('',(-37.667507767,156.737344428,299.770160642));
#369=CARTESIAN_POINT('',(-37.412797686,156.818653166,300.426000013));
#370=CARTESIAN_POINT('',(-37.025789561,156.94612755,301.408821494));
#371=CARTESIAN_POINT('',(-36.895963057,156.989537572,301.736272375));
#372=CARTESIAN_POINT('',(-36.634658443,157.078210426,302.390846538));
#373=CARTESIAN_POINT('',(-36.504894854,157.125637263,302.718348723));
#374=CARTESIAN_POINT('',(-33.240319521,157.718384769,309.87663423));
#375=CARTESIAN_POINT('',(-29.786404258,158.781481649,316.677273477));
#376=CARTESIAN_POINT('',(-22.181714249,162.09936176,329.888321379));
#377=CARTESIAN_POINT('',(-18.027395068,164.352471861,336.30272986));
#378=CARTESIAN_POINT('',(-8.937287912,170.323444847,348.288227916));
#379=CARTESIAN_POINT('',(-3.993018838,174.049188848,353.863963342));
#380=CARTESIAN_POINT('',(3.996027773,180.951177867,361.038323056));
#381=CARTESIAN_POINT('',(6.752643557,183.46994386,363.22841629));
#382=CARTESIAN_POINT('',(12.415030454,188.947223734,367.087683598));
#383=CARTESIAN_POINT('',(15.320587523,191.905890863,368.755926144));
#384=CARTESIAN_POINT('',(18.268457781,195.068395431,370.107882134));
#385=CARTESIAN_POINT('',(-4.717158612,118.502328784,26.714109312));
#386=CARTESIAN_POINT('',(-4.634856139,124.034717205,26.794199648));
#387=CARTESIAN_POINT('',(-4.724689118,129.067001488,27.503655874));
#388=CARTESIAN_POINT('',(-5.169788778,138.313975385,29.946336174));
#389=CARTESIAN_POINT('',(-5.525171478,142.533523944,31.679939965));
#390=CARTESIAN_POINT('',(-6.45236233,150.337217118,36.054186238));
#391=CARTESIAN_POINT('',(-7.025189592,153.922460701,38.698743304));
#392=CARTESIAN_POINT('',(-8.34947751,160.521421488,44.82661199));
#393=CARTESIAN_POINT('',(-9.10128511,163.532689196,48.311460213));
#394=CARTESIAN_POINT('',(-10.731615513,168.959755135,55.999977455));
#395=CARTESIAN_POINT('',(-11.609869006,171.373873199,60.202987924));
#396=CARTESIAN_POINT('',(-13.427295355,175.570068675,69.148346999));
#397=CARTESIAN_POINT('',(-14.366140434,177.35175432,73.889919381));
#398=CARTESIAN_POINT('',(-17.170680178,181.720944437,88.607241931));
#399=CARTESIAN_POINT('',(-19.019518587,183.325348571,99.078048573));
#400=CARTESIAN_POINT('',(-20.816390839,183.698170701,110.621485522));
#401=CARTESIAN_POINT('',(-21.076329372,183.710835846,111.932930084));
#402=CARTESIAN_POINT('',(-21.563001047,183.699755921,114.560076401));
#403=CARTESIAN_POINT('',(-21.802891116,183.674057444,115.873326531));
#404=CARTESIAN_POINT('',(-22.512106927,183.540166258,119.813822491));
#405=CARTESIAN_POINT('',(-22.970992328,183.375168376,122.441864254));
#406=CARTESIAN_POINT('',(-24.304374602,182.682432731,130.34088519));
#407=CARTESIAN_POINT('',(-25.135722874,181.956517932,135.627207358));
#408=CARTESIAN_POINT('',(-27.43859362,179.232280291,151.617910199));
#409=CARTESIAN_POINT('',(-28.719004416,176.680023222,162.452384272));
#410=CARTESIAN_POINT('',(-30.587945729,171.73785563,184.099629847));
#411=CARTESIAN_POINT('',(-31.199289623,169.393808984,194.705289243));
#412=CARTESIAN_POINT('',(-31.352512927,165.253299435,216.104204414));
#413=CARTESIAN_POINT('',(-30.894314262,163.456683063,226.898484925));
#414=CARTESIAN_POINT('',(-28.580781721,161.050326642,247.135042033));
#415=CARTESIAN_POINT('',(-26.921236423,160.308394138,256.589020259));
#416=CARTESIAN_POINT('',(-23.438122501,160.097653054,270.707547527));
#417=CARTESIAN_POINT('',(-22.111396404,160.177952581,275.403128999));
#418=CARTESIAN_POINT('',(-19.859090426,160.568212176,282.405594519));
#419=CARTESIAN_POINT('',(-19.064623325,160.743273233,284.732904241));
#420=CARTESIAN_POINT('',(-17.805776529,161.078833283,288.2102134));
#421=CARTESIAN_POINT('',(-17.374969856,161.202848108,289.367038224));
#422=CARTESIAN_POINT('',(-16.711784942,161.407797464,291.098417802));
#423=CARTESIAN_POINT('',(-16.487893822,161.479268496,291.674901097));
#424=CARTESIAN_POINT('',(-16.147790666,161.591292073,292.538605299));
#425=CARTESIAN_POINT('',(-16.033711887,161.629436097,292.826336576));
#426=CARTESIAN_POINT('',(-15.804128054,161.707344086,293.40144926));
#427=CARTESIAN_POINT('',(-15.68973434,161.746856745,293.689335949));
#428=CARTESIAN_POINT('',(-12.897109777,162.69403874,299.946815248));
#429=CARTESIAN_POINT('',(-9.95647716,163.958360792,305.840493253));
#430=CARTESIAN_POINT('',(-3.56398905,167.339102274,317.106016434));
#431=CARTESIAN_POINT('',(-0.110580985,169.455919212,322.478621537));
#432=CARTESIAN_POINT('',(7.288613526,174.707950454,332.29886878));
#433=CARTESIAN_POINT('',(11.236668821,177.845450253,336.747644217));
#434=CARTESIAN_POINT('',(17.488520645,183.441937044,342.365078671));
#435=CARTESIAN_POINT('',(19.626900757,185.45557697,344.060750162));
#436=CARTESIAN_POINT('',(23.995970894,189.791335967,347.031314159));
#437=CARTESIAN_POINT('',(26.226602358,192.113495432,348.305958521));
#438=CARTESIAN_POINT('',(28.491479593,194.591162715,349.337486059));
#439=(BOUNDED_SURFACE()
B_SPLINE_SURFACE(3,3,((#61,#62,#63,#64,#65,#66,#67,#68,#69,#70,#71,#72,#73,#74,#75,#76,#77,#78,#79,#80,#81,#82,#83,#84,#85,#86,
#87,#88,#89,#90,#91,#92,#93,#94,#95,#96,#97,#98,#99,#100,#101,#102,#103,#104,#105,#106,#107,#108,#109,#110,#111,
#112,#113,#114),(#115,#116,#117,#118,#119,#120,#121,#122,#123,#124,#125,#126,#127,#128,#129,#130,#131,#132,#133,#134,#135,#136,#137,#138,#139,#140,
#141,#142,#143,#144,#145,#146,#147,#148,#149,#150,#151,#152,#153,#154,#155,#156,#157,#158,#159,#160,#161,#162,#163,#164,#165,
#166,#167,#168),(#169,#170,#171,#172,#173,#174,#175,#176,#177,#178,#179,#180,#181,#182,#183,#184,#185,#186,#187,#188,#189,#190,#191,#192,#193,#194,
#195,#196,#197,#198,#199,#200,#201,#202,#203,#204,#205,#206,#207,#208,#209,#210,#211,#212,#213,#214,#215,#216,#217,#218,#219,
#220,#221,#222),(#223,#224,#225,#226,#227,#228,#229,#230,#231,#232,#233,#234,#235,#236,#237,#238,#239,#240,#241,#242,#243,#244,#245,#246,#247,#248,
#249,#250,#251,#252,#253,#254,#255,#256,#257,#258,#259,#260,#261,#262,#263,#264,#265,#266,#267,#268,#269,#270,#271,#272,#273,
#274,#275,#276),(#277,#278,#279,#280,#281,#282,#283,#284,#285,#286,#287,#288,#289,#290,#291,#292,#293,#294,#295,#296,#297,#298,#299,#300,#301,#302,
#303,#304,#305,#306,#307,#308,#309,#310,#311,#312,#313,#314,#315,#316,#317,#318,#319,#320,#321,#322,#323,#324,#325,#326,#327,
#328,#329,#330),(#331,#332,#333,#334,#335,#336,#337,#338,#339,#340,#341,#342,#343,#344,#345,#346,#347,#348,#349,#350,#351,#352,#353,#354,#355,#356,
#357,#358,#359,#360,#361,#362,#363,#364,#365,#366,#367,#368,#369,#370,#371,#372,#373,#374,#375,#376,#377,#378,#379,#380,#381,
#382,#383,#384),(#385,#386,#387,#388,#389,#390,#391,#392,#393,#394,#395,#396,#397,#398,#399,#400,#401,#402,#403,#404,#405,#406,#407,#408,#409,#410,
#411,#412,#413,#414,#415,#416,#417,#418,#419,#420,#421,#422,#423,#424,#425,#426,#427,#428,#429,#430,#431,#432,#433,#434,#435,
#436,#437,#438)),.UNSPECIFIED.,.T.,.F.,.U.)
B_SPLINE_SURFACE_WITH_KNOTS((4,3,4),(4,2,2,2,2,2,2,2,2,2,2,2,2,2,2,2,2,2,2,2,2,2,2,2,2,2,
4),(0.,0.5,1.),(0.,0.041957395,0.08391479,0.125872186,0.167829581,0.209786976,0.251744371,0.335659162,0.346522446,0.357385729,0.379112297,0.422565431,0.509471701,0.591124687,0.672777674,0.743289731,0.77854576,0.796173775,0.804987782,0.809394785,0.811598287,0.813801789,0.860351342,0.906900894,0.953450447,0.976725224,
1.),.UNSPECIFIED.)
GEOMETRIC_REPRESENTATION_ITEM()
RATIONAL_B_SPLINE_SURFACE(((1.,1.,1.,1.,1.,1.,1.,1.,1.,1.,1.,1.,1.,1.,1.,1.,1.,1.,1.,1.,1.,1.,1.,1.,1.,1.,
1.,1.,1.,1.,1.,1.,1.,1.,1.,1.,1.,1.,1.,1.,1.,1.,1.,1.,1.,1.,1.,1.,1.,1.,1.,
1.,1.,1.),(0.333333333,0.333333333,0.333333333,0.333333333,0.333333333,0.333333333,0.333333333,0.333333333,0.333333333,0.333333333,0.333333333,0.333333333,0.333333333,0.333333333,0.333333333,0.333333333,0.333333333,0.333333333,0.333333333,0.333333333,0.333333333,0.333333333,0.333333333,0.333333333,0.333333333,0.333333333,
0.333333333,0.333333333,0.333333333,0.333333333,0.333333333,0.333333333,0.333333333,0.333333333,0.333333333,0.333333333,0.333333333,0.333333333,0.333333333,0.333333333,0.333333333,0.333333333,0.333333333,0.333333333,0.333333333,0.333333333,0.333333333,0.333333333,0.333333333,0.333333333,0.333333333,
0.333333333,0.333333333,0.333333333),(0.333333333,0.333333333,0.333333333,0.333333333,0.333333333,0.333333333,0.333333333,0.333333333,0.333333333,0.333333333,0.333333333,0.333333333,0.333333333,0.333333333,0.333333333,0.333333333,0.333333333,0.333333333,0.333333333,0.333333333,0.333333333,0.333333333,0.333333333,0.333333333,0.333333333,0.333333333,
0.333333333,0.333333333,0.333333333,0.333333333,0.333333333,0.333333333,0.333333333,0.333333333,0.333333333,0.333333333,0.333333333,0.333333333,0.333333333,0.333333333,0.333333333,0.333333333,0.333333333,0.333333333,0.333333333,0.333333333,0.333333333,0.333333333,0.333333333,0.333333333,0.333333333,
0.333333333,0.333333333,0.333333333),(1.,1.,1.,1.,1.,1.,1.,1.,1.,1.,1.,1.,1.,1.,1.,1.,1.,1.,1.,1.,1.,1.,1.,1.,1.,1.,
1.,1.,1.,1.,1.,1.,1.,1.,1.,1.,1.,1.,1.,1.,1.,1.,1.,1.,1.,1.,1.,1.,1.,1.,1.,
1.,1.,1.),(0.333333333,0.333333333,0.333333333,0.333333333,0.333333333,0.333333333,0.333333333,0.333333333,0.333333333,0.333333333,0.333333333,0.333333333,0.333333333,0.333333333,0.333333333,0.333333333,0.333333333,0.333333333,0.333333333,0.333333333,0.333333333,0.333333333,0.333333333,0.333333333,0.333333333,0.333333333,
0.333333333,0.333333333,0.333333333,0.333333333,0.333333333,0.333333333,0.333333333,0.333333333,0.333333333,0.333333333,0.333333333,0.333333333,0.333333333,0.333333333,0.333333333,0.333333333,0.333333333,0.333333333,0.333333333,0.333333333,0.333333333,0.333333333,0.333333333,0.333333333,0.333333333,
0.333333333,0.333333333,0.333333333),(0.333333333,0.333333333,0.333333333,0.333333333,0.333333333,0.333333333,0.333333333,0.333333333,0.333333333,0.333333333,0.333333333,0.333333333,0.333333333,0.333333333,0.333333333,0.333333333,0.333333333,0.333333333,0.333333333,0.333333333,0.333333333,0.333333333,0.333333333,0.333333333,0.333333333,0.333333333,
0.333333333,0.333333333,0.333333333,0.333333333,0.333333333,0.333333333,0.333333333,0.333333333,0.333333333,0.333333333,0.333333333,0.333333333,0.333333333,0.333333333,0.333333333,0.333333333,0.333333333,0.333333333,0.333333333,0.333333333,0.333333333,0.333333333,0.333333333,0.333333333,0.333333333,
0.333333333,0.333333333,0.333333333),(1.,1.,1.,1.,1.,1.,1.,1.,1.,1.,1.,1.,1.,1.,1.,1.,1.,1.,1.,1.,1.,1.,1.,1.,1.,1.,
1.,1.,1.,1.,1.,1.,1.,1.,1.,1.,1.,1.,1.,1.,1.,1.,1.,1.,1.,1.,1.,1.,1.,1.,1.,
1.,1.,1.)))
REPRESENTATION_ITEM('')
SURFACE()
);
#440=CARTESIAN_POINT('',(28.491479593,194.591162715,349.337486059));
#441=CARTESIAN_POINT('',(26.226602358,192.113495432,348.305958521));
#442=CARTESIAN_POINT('',(23.995970894,189.791335967,347.031314159));
#443=CARTESIAN_POINT('',(19.626900757,185.45557697,344.060750162));
#444=CARTESIAN_POINT('',(17.488520645,183.441937044,342.365078671));
#445=CARTESIAN_POINT('',(11.236668821,177.845450253,336.747644217));
#446=CARTESIAN_POINT('',(7.288613526,174.707950454,332.29886878));
#447=CARTESIAN_POINT('',(-0.110580985,169.455919212,322.478621537));
#448=CARTESIAN_POINT('',(-3.56398905,167.339102274,317.106016434));
#449=CARTESIAN_POINT('',(-9.95647716,163.958360792,305.840493253));
#450=CARTESIAN_POINT('',(-12.897109777,162.69403874,299.946815248));
#451=CARTESIAN_POINT('',(-15.68973434,161.746856745,293.689335949));
#452=CARTESIAN_POINT('',(-15.804128054,161.707344086,293.40144926));
#453=CARTESIAN_POINT('',(-16.033711887,161.629436097,292.826336576));
#454=CARTESIAN_POINT('',(-16.147790666,161.591292073,292.538605299));
#455=CARTESIAN_POINT('',(-16.487893822,161.479268496,291.674901097));
#456=CARTESIAN_POINT('',(-16.711784942,161.407797464,291.098417802));
#457=CARTESIAN_POINT('',(-17.374969856,161.202848108,289.367038224));
#458=CARTESIAN_POINT('',(-17.805776529,161.078833283,288.2102134));
#459=CARTESIAN_POINT('',(-19.064623325,160.743273233,284.732904241));
#460=CARTESIAN_POINT('',(-19.859090426,160.568212176,282.405594519));
#461=CARTESIAN_POINT('',(-22.111396404,160.177952581,275.403128999));
#462=CARTESIAN_POINT('',(-23.438122501,160.097653054,270.707547527));
#463=CARTESIAN_POINT('',(-26.921236423,160.308394138,256.589020259));
#464=CARTESIAN_POINT('',(-28.580781721,161.050326642,247.135042033));
#465=CARTESIAN_POINT('',(-30.894314262,163.456683063,226.898484925));
#466=CARTESIAN_POINT('',(-31.352512927,165.253299435,216.104204414));
#467=CARTESIAN_POINT('',(-31.199289623,169.393808984,194.705289243));
#468=CARTESIAN_POINT('',(-30.587945729,171.73785563,184.099629847));
#469=CARTESIAN_POINT('',(-28.719004416,176.680023222,162.452384272));
#470=CARTESIAN_POINT('',(-27.43859362,179.232280291,151.617910199));
#471=CARTESIAN_POINT('',(-25.135722874,181.956517932,135.627207358));
#472=CARTESIAN_POINT('',(-24.304374602,182.682432731,130.34088519));
#473=CARTESIAN_POINT('',(-22.970992328,183.375168376,122.441864254));
#474=CARTESIAN_POINT('',(-22.512106927,183.540166258,119.813822491));
#475=CARTESIAN_POINT('',(-21.802891116,183.674057444,115.873326531));
#476=CARTESIAN_POINT('',(-21.563001047,183.699755921,114.560076401));
#477=CARTESIAN_POINT('',(-21.076329372,183.710835846,111.932930084));
#478=CARTESIAN_POINT('',(-20.816390839,183.698170701,110.621485522));
#479=CARTESIAN_POINT('',(-19.019518587,183.325348571,99.078048573));
#480=CARTESIAN_POINT('',(-17.170680178,181.720944437,88.607241931));
#481=CARTESIAN_POINT('',(-14.366140434,177.35175432,73.889919381));
#482=CARTESIAN_POINT('',(-13.427295355,175.570068675,69.148346999));
#483=CARTESIAN_POINT('',(-11.609869006,171.373873199,60.202987924));
#484=CARTESIAN_POINT('',(-10.731615513,168.959755135,55.999977455));
#485=CARTESIAN_POINT('',(-9.10128511,163.532689196,48.311460213));
#486=CARTESIAN_POINT('',(-8.34947751,160.521421488,44.82661199));
#487=CARTESIAN_POINT('',(-7.025189592,153.922460701,38.698743304));
#488=CARTESIAN_POINT('',(-6.45236233,150.337217118,36.054186238));
#489=CARTESIAN_POINT('',(-5.525171478,142.533523944,31.679939965));
#490=CARTESIAN_POINT('',(-5.169788778,138.313975385,29.946336174));
#491=CARTESIAN_POINT('',(-4.724689118,129.067001488,27.503655874));
#492=CARTESIAN_POINT('',(-4.634856139,124.034717205,26.794199648));
#493=CARTESIAN_POINT('',(-4.717158612,118.502328784,26.714109312));
#494=B_SPLINE_CURVE_WITH_KNOTS('',3,(#440,#441,#442,#443,#444,#445,#446,#447,#448,#449,#450,#451,#452,#453,#454,#455,#456,#457,#458,#459,#460,#461,#462,#463,#464,#465,
#466,#467,#468,#469,#470,#471,#472,#473,#474,#475,#476,#477,#478,#479,#480,#481,#482,#483,#484,#485,#486,#487,#488,#489,#490,
#491,#492,#493),.UNSPECIFIED.,.F.,.F.,(4,2,2,2,2,2,2,2,2,2,2,2,2,2,2,2,2,2,2,2,2,2,2,2,2,2,
4),(0.,0.023274776,0.046549553,0.093099106,0.139648658,0.186198211,0.188401713,0.190605215,0.195012218,0.203826225,0.22145424,0.256710269,0.327222326,0.408875313,0.490528299,0.577434569,0.620887703,0.642614271,0.653477554,0.664340838,0.748255629,0.790213024,0.832170419,0.874127814,0.91608521,0.958042605,
1.),.UNSPECIFIED.);
#495=EDGE_CURVE('',#50,#33,#494,.T.);
#496=ORIENTED_EDGE('',*,*,#495,.T.);
#497=ORIENTED_EDGE('',*,*,#39,.T.);
#498=ORIENTED_EDGE('',*,*,#495,.F.);
#499=ORIENTED_EDGE('',*,*,#56,.F.);
#500=EDGE_LOOP('',(#496,#497,#498,#499));
#501=FACE_BOUND('',#500,.T.);
#502=ADVANCED_FACE('',(#501),#439,.T.);
#503=CLOSED_SHELL('',(#43,#60,#502));
#504=MANIFOLD_SOLID_BREP('Hose 2',#503);
#505=COLOUR_RGB('',0.188235298,0.188235298,0.188235298);
#506=FILL_AREA_STYLE_COLOUR('',#505);
#507=FILL_AREA_STYLE('',(#506));
#508=SURFACE_STYLE_FILL_AREA(#507);
#509=SURFACE_SIDE_STYLE('',(#508));
#510=SURFACE_STYLE_USAGE(.BOTH.,#509);
#511=PRESENTATION_STYLE_ASSIGNMENT((#510));
#26=STYLED_ITEM('',(#511),#504);
#16=SHAPE_REPRESENTATION('root',(#15),#10);
#17=ADVANCED_BREP_SHAPE_REPRESENTATION('root',(#504),#10);
#519=SHAPE_REPRESENTATION_RELATIONSHIP('','',#16,#17);
#520=APPLICATION_CONTEXT('configuration controlled 3D design of mechanical parts and assemblies');
#521=APPLICATION_PROTOCOL_DEFINITION('international standard','configuration_control_3d_design_ed2_mim',2004,#520);
#522=PRODUCT_CONTEXT('',#520,'mechanical');
#523=PRODUCT_DEFINITION_CONTEXT('part definition',#520,'design');
#24=PRODUCT('root','root','',(#522));
#524=PRODUCT_RELATED_PRODUCT_CATEGORY('part','',(#24));
#525=PRODUCT_DEFINITION_FORMATION_WITH_SPECIFIED_SOURCE('','',#24,.NOT_KNOWN.);
#25=PRODUCT_DEFINITION('design','',#525,#523);
#23=PRODUCT_DEFINITION_SHAPE('','',#25);
#526=SHAPE_DEFINITION_REPRESENTATION(#23,#16);
#11=DRAUGHTING_MODEL('',(),#10);
#1=MECHANICAL_DESIGN_GEOMETRIC_PRESENTATION_REPRESENTATION('',(#26),#10);
ENDSEC;
END-ISO-10303-21;
