ISO-10303-21;
HEADER;

/* File generated by HOOPS Exchange Version 24.2.0 */

FILE_DESCRIPTION(('HOOPS Exchange Step'),'2;1');

FILE_NAME('C:\\Users\\andy\\OneDrive\\Desktop\\Scraper CAD\\Front Scraper\\Piston.stp',
'2026-05-10T16:21:38-05:00',
('andy'),
('Unknown organisation'),
'HOOPS Exchange 2024.2',
'HOOPS Exchange',
'Unknown authorisation');

FILE_SCHEMA( ('AP203_CONFIGURATION_CONTROLLED_3D_DESIGN_OF_MECHANICAL_PARTS_AND_ASSEMBLIES_MIM_LF') );

ENDSEC;

DATA;
#3=(NAMED_UNIT(*)PLANE_ANGLE_UNIT()SI_UNIT($,.RADIAN.));
#4=PLANE_ANGLE_MEASURE_WITH_UNIT(PLANE_ANGLE_MEASURE(0.0174532925),#3);
#5=(CONVERSION_BASED_UNIT('DEGREE',#4)NAMED_UNIT(#6)PLANE_ANGLE_UNIT());
#6=DIMENSIONAL_EXPONENTS(0.,0.,0.,0.,0.,0.,0.);
#7=(NAMED_UNIT(*)SI_UNIT($,.STERADIAN.)SOLID_ANGLE_UNIT());
#8=(LENGTH_UNIT()NAMED_UNIT(*)SI_UNIT(.MILLI.,.METRE.));
#9=UNCERTAINTY_MEASURE_WITH_UNIT(LENGTH_MEASURE(1.000000E-05),#8,'DISTANCE_ACCURACY_VALUE','Maximum Tolerance applied to model');
#10=(GEOMETRIC_REPRESENTATION_CONTEXT(3)GLOBAL_UNCERTAINTY_ASSIGNED_CONTEXT((#9))GLOBAL_UNIT_ASSIGNED_CONTEXT((#8,#5,#7))REPRESENTATION_CONTEXT('','root'));
#12=CARTESIAN_POINT('',(0.,0.,0.));
#13=DIRECTION('',(0.,0.,1.));
#14=DIRECTION('',(1.,0.,0.));
#15=AXIS2_PLACEMENT_3D('',#12,#13,#14);
#27=CARTESIAN_POINT('',(44.246554563,74.164517721,-53.664129788));
#28=DIRECTION('',(0.,-0.997250355,0.074106207));
#29=DIRECTION('',(-0.,-0.074106207,-0.997250355));
#30=AXIS2_PLACEMENT_3D('',#27,#28,#29);
#31=CYLINDRICAL_SURFACE('',#30,18.083450637);
#32=CARTESIAN_POINT('',(44.246554563,-263.566320745,-46.700481417));
#33=VERTEX_POINT('',#32);
#34=CARTESIAN_POINT('',(44.246554563,72.824421784,-71.697857352));
#35=VERTEX_POINT('',#34);
#36=CARTESIAN_POINT('',(44.246554563,-263.566320745,-46.700481417));
#37=DIRECTION('',(-0.,0.997250355,-0.074106207));
#38=VECTOR('',#37,337.318248043);
#39=LINE('',#36,#38);
#40=EDGE_CURVE('',#33,#35,#39,.T.);
#41=ORIENTED_EDGE('',*,*,#40,.T.);
#42=CARTESIAN_POINT('',(54.960223217,75.244101694,-39.13612272));
#43=VERTEX_POINT('',#42);
#44=CARTESIAN_POINT('',(44.246554563,74.164517721,-53.664129788));
#45=DIRECTION('',(-0.,0.997250355,-0.074106207));
#46=DIRECTION('',(0.592457096,0.059700109,0.803386884));
#47=AXIS2_PLACEMENT_3D('',#44,#45,#46);
#48=CIRCLE('',#47,18.083450637);
#49=EDGE_CURVE('',#43,#35,#48,.T.);
#50=ORIENTED_EDGE('',*,*,#49,.F.);
#51=CARTESIAN_POINT('',(44.246554563,74.164517721,-53.664129788));
#52=DIRECTION('',(-0.,0.997250355,-0.074106207));
#53=DIRECTION('',(0.592457096,0.059700109,0.803386884));
#54=AXIS2_PLACEMENT_3D('',#51,#52,#53);
#55=CIRCLE('',#54,18.083450637);
#56=EDGE_CURVE('',#35,#43,#55,.T.);
#57=ORIENTED_EDGE('',*,*,#56,.F.);
#58=ORIENTED_EDGE('',*,*,#40,.F.);
#59=CARTESIAN_POINT('',(54.960223217,-261.146640835,-14.138746785));
#60=VERTEX_POINT('',#59);
#61=CARTESIAN_POINT('',(44.246554563,-262.226224808,-28.666753853));
#62=DIRECTION('',(-0.,0.997250355,-0.074106207));
#63=DIRECTION('',(0.592457096,0.059700109,0.803386884));
#64=AXIS2_PLACEMENT_3D('',#61,#62,#63);
#65=CIRCLE('',#64,18.083450637);
#66=EDGE_CURVE('',#33,#60,#65,.T.);
#67=ORIENTED_EDGE('',*,*,#66,.T.);
#68=CARTESIAN_POINT('',(44.246554563,-262.226224808,-28.666753853));
#69=DIRECTION('',(-0.,0.997250355,-0.074106207));
#70=DIRECTION('',(0.592457096,0.059700109,0.803386884));
#71=AXIS2_PLACEMENT_3D('',#68,#69,#70);
#72=CIRCLE('',#71,18.083450637);
#73=EDGE_CURVE('',#60,#33,#72,.T.);
#74=ORIENTED_EDGE('',*,*,#73,.T.);
#75=EDGE_LOOP('',(#41,#50,#57,#58,#67,#74));
#76=FACE_BOUND('',#75,.T.);
#77=ADVANCED_FACE('',(#76),#31,.T.);
#78=CARTESIAN_POINT('',(44.246554563,74.164517721,-53.664129788));
#79=DIRECTION('',(-0.,0.997250355,-0.074106207));
#80=DIRECTION('',(0.,0.074106207,0.997250355));
#81=AXIS2_PLACEMENT_3D('',#78,#79,#80);
#82=PLANE('',#81);
#83=ORIENTED_EDGE('',*,*,#49,.T.);
#84=ORIENTED_EDGE('',*,*,#56,.T.);
#85=EDGE_LOOP('',(#83,#84));
#86=FACE_BOUND('',#85,.T.);
#87=ADVANCED_FACE('',(#86),#82,.T.);
#88=CARTESIAN_POINT('',(64.069953546,-399.311687339,-74.497736549));
#89=DIRECTION('',(-0.,0.061484111,0.998108062));
#90=DIRECTION('',(0.,-0.998108062,0.061484111));
#91=AXIS2_PLACEMENT_3D('',#88,#89,#90);
#92=PLANE('',#91);
#93=CARTESIAN_POINT('',(24.42315558,-399.311687339,-74.497736549));
#94=VERTEX_POINT('',#93);
#95=CARTESIAN_POINT('',(24.42315558,-281.741611658,-81.740130333));
#96=VERTEX_POINT('',#95);
#97=CARTESIAN_POINT('',(24.42315558,-399.311687339,-74.497736549));
#98=DIRECTION('',(-0.,0.998108062,-0.061484111));
#99=VECTOR('',#98,117.79293257);
#100=LINE('',#97,#99);
#101=EDGE_CURVE('',#94,#96,#100,.T.);
#102=ORIENTED_EDGE('',*,*,#101,.T.);
#103=CARTESIAN_POINT('',(64.069953546,-281.741611658,-81.740130333));
#104=VERTEX_POINT('',#103);
#105=CARTESIAN_POINT('',(24.42315558,-281.741611658,-81.740130333));
#106=DIRECTION('',(1.,0.,0.));
#107=VECTOR('',#106,39.646797967);
#108=LINE('',#105,#107);
#109=EDGE_CURVE('',#96,#104,#108,.T.);
#110=ORIENTED_EDGE('',*,*,#109,.T.);
#111=CARTESIAN_POINT('',(64.069953546,-399.311687339,-74.497736549));
#112=VERTEX_POINT('',#111);
#113=CARTESIAN_POINT('',(64.069953546,-399.311687339,-74.497736549));
#114=DIRECTION('',(-0.,0.998108062,-0.061484111));
#115=VECTOR('',#114,117.79293257);
#116=LINE('',#113,#115);
#117=EDGE_CURVE('',#112,#104,#116,.T.);
#118=ORIENTED_EDGE('',*,*,#117,.F.);
#119=CARTESIAN_POINT('',(64.069953546,-399.311687339,-74.497736549));
#120=DIRECTION('',(-1.,-0.,-0.));
#121=VECTOR('',#120,39.646797967);
#122=LINE('',#119,#121);
#123=EDGE_CURVE('',#112,#94,#122,.T.);
#124=ORIENTED_EDGE('',*,*,#123,.T.);
#125=EDGE_LOOP('',(#102,#110,#118,#124));
#126=FACE_BOUND('',#125,.T.);
#127=ADVANCED_FACE('',(#126),#92,.F.);
#128=CARTESIAN_POINT('',(64.069953546,-266.24109063,-82.694972596));
#129=DIRECTION('',(0.,-0.997250355,0.074106207));
#130=DIRECTION('',(-0.,-0.074106207,-0.997250355));
#131=AXIS2_PLACEMENT_3D('',#128,#129,#130);
#132=PLANE('',#131);
#133=ORIENTED_EDGE('',*,*,#66,.F.);
#134=ORIENTED_EDGE('',*,*,#73,.F.);
#135=EDGE_LOOP('',(#133,#134));
#136=FACE_BOUND('',#135,.T.);
#137=CARTESIAN_POINT('',(64.069953546,-265.090228449,-67.207771683));
#138=VERTEX_POINT('',#137);
#139=CARTESIAN_POINT('',(64.069953546,-259.225425673,11.715126699));
#140=VERTEX_POINT('',#139);
#141=CARTESIAN_POINT('',(64.069953546,-265.090228449,-67.207771683));
#142=DIRECTION('',(0.,0.074106207,0.997250355));
#143=VECTOR('',#142,79.140506699);
#144=LINE('',#141,#143);
#145=EDGE_CURVE('',#138,#140,#144,.T.);
#146=ORIENTED_EDGE('',*,*,#145,.F.);
#147=CARTESIAN_POINT('',(24.42315558,-265.090228449,-67.207771683));
#148=VERTEX_POINT('',#147);
#149=CARTESIAN_POINT('',(64.069953546,-265.090228449,-67.207771683));
#150=DIRECTION('',(-1.,-0.,-0.));
#151=VECTOR('',#150,39.646797967);
#152=LINE('',#149,#151);
#153=EDGE_CURVE('',#138,#148,#152,.T.);
#154=ORIENTED_EDGE('',*,*,#153,.T.);
#155=CARTESIAN_POINT('',(24.42315558,-259.225425673,11.715126699));
#156=VERTEX_POINT('',#155);
#157=CARTESIAN_POINT('',(24.42315558,-265.090228449,-67.207771683));
#158=DIRECTION('',(0.,0.074106207,0.997250355));
#159=VECTOR('',#158,79.140506699);
#160=LINE('',#157,#159);
#161=EDGE_CURVE('',#148,#156,#160,.T.);
#162=ORIENTED_EDGE('',*,*,#161,.T.);
#163=CARTESIAN_POINT('',(24.42315558,-259.225425673,11.715126699));
#164=DIRECTION('',(1.,0.,-0.));
#165=VECTOR('',#164,39.646797967);
#166=LINE('',#163,#165);
#167=EDGE_CURVE('',#156,#140,#166,.T.);
#168=ORIENTED_EDGE('',*,*,#167,.T.);
#169=EDGE_LOOP('',(#146,#154,#162,#168));
#170=FACE_BOUND('',#169,.T.);
#171=ADVANCED_FACE('',(#136,#170),#132,.F.);
#172=CARTESIAN_POINT('',(64.069953546,-258.211358986,25.361464889));
#173=DIRECTION('',(0.,-0.044992824,-0.99898731));
#174=DIRECTION('',(-0.,0.99898731,-0.044992824));
#175=AXIS2_PLACEMENT_3D('',#172,#173,#174);
#176=PLANE('',#175);
#177=CARTESIAN_POINT('',(64.069953546,-271.881465611,25.97714508));
#178=VERTEX_POINT('',#177);
#179=CARTESIAN_POINT('',(64.069953546,-390.317698396,31.311327497));
#180=VERTEX_POINT('',#179);
#181=CARTESIAN_POINT('',(64.069953546,-271.881465611,25.97714508));
#182=DIRECTION('',(0.,-0.99898731,0.044992824));
#183=VECTOR('',#182,118.556293541);
#184=LINE('',#181,#183);
#185=EDGE_CURVE('',#178,#180,#184,.T.);
#186=ORIENTED_EDGE('',*,*,#185,.F.);
#187=CARTESIAN_POINT('',(24.42315558,-271.881465611,25.97714508));
#188=VERTEX_POINT('',#187);
#189=CARTESIAN_POINT('',(64.069953546,-271.881465611,25.97714508));
#190=DIRECTION('',(-1.,-0.,0.));
#191=VECTOR('',#190,39.646797967);
#192=LINE('',#189,#191);
#193=EDGE_CURVE('',#178,#188,#192,.T.);
#194=ORIENTED_EDGE('',*,*,#193,.T.);
#195=CARTESIAN_POINT('',(24.42315558,-390.317698396,31.311327497));
#196=VERTEX_POINT('',#195);
#197=CARTESIAN_POINT('',(24.42315558,-271.881465611,25.97714508));
#198=DIRECTION('',(0.,-0.99898731,0.044992824));
#199=VECTOR('',#198,118.556293541);
#200=LINE('',#197,#199);
#201=EDGE_CURVE('',#188,#196,#200,.T.);
#202=ORIENTED_EDGE('',*,*,#201,.T.);
#203=CARTESIAN_POINT('',(64.069953546,-390.317698396,31.311327497));
#204=DIRECTION('',(-1.,-0.,-0.));
#205=VECTOR('',#204,39.646797967);
#206=LINE('',#203,#205);
#207=EDGE_CURVE('',#180,#196,#206,.T.);
#208=ORIENTED_EDGE('',*,*,#207,.F.);
#209=EDGE_LOOP('',(#186,#194,#202,#208));
#210=FACE_BOUND('',#209,.T.);
#211=ADVANCED_FACE('',(#210),#176,.F.);
#212=CARTESIAN_POINT('',(64.069953546,-390.317698396,31.311327497));
#213=DIRECTION('',(-0.,0.996406784,-0.084696634));
#214=DIRECTION('',(0.,0.084696634,0.996406784));
#215=AXIS2_PLACEMENT_3D('',#212,#213,#214);
#216=PLANE('',#215);
#217=ORIENTED_EDGE('',*,*,#207,.T.);
#218=CARTESIAN_POINT('',(24.42315558,-390.317698396,31.311327497));
#219=DIRECTION('',(-0.,-0.084696634,-0.996406784));
#220=VECTOR('',#219,106.190629866);
#221=LINE('',#218,#220);
#222=EDGE_CURVE('',#196,#94,#221,.T.);
#223=ORIENTED_EDGE('',*,*,#222,.T.);
#224=ORIENTED_EDGE('',*,*,#123,.F.);
#225=CARTESIAN_POINT('',(64.069953546,-390.317698396,31.311327497));
#226=DIRECTION('',(-0.,-0.084696634,-0.996406784));
#227=VECTOR('',#226,106.190629866);
#228=LINE('',#225,#227);
#229=EDGE_CURVE('',#180,#112,#228,.T.);
#230=ORIENTED_EDGE('',*,*,#229,.F.);
#231=EDGE_LOOP('',(#217,#223,#224,#230));
#232=FACE_BOUND('',#231,.T.);
#233=ADVANCED_FACE('',(#232),#216,.F.);
#234=CARTESIAN_POINT('',(64.069953546,-75.091796565,-365.215624263));
#235=DIRECTION('',(1.,0.,-0.));
#236=DIRECTION('',(-0.,0.05534459,-0.998467314));
#237=AXIS2_PLACEMENT_3D('',#234,#235,#236);
#238=PLANE('',#237);
#239=CARTESIAN_POINT('',(64.069953546,-378.503824121,-26.176891028));
#240=VERTEX_POINT('',#239);
#241=CARTESIAN_POINT('',(64.069953546,-359.119534738,-43.525113916));
#242=VERTEX_POINT('',#241);
#243=CARTESIAN_POINT('',(64.069953546,-360.137567985,-25.158857781));
#244=DIRECTION('',(1.,0.,-0.));
#245=DIRECTION('',(-0.,0.05534459,-0.998467314));
#246=AXIS2_PLACEMENT_3D('',#243,#244,#245);
#247=CIRCLE('',#246,18.394449057);
#248=EDGE_CURVE('',#240,#242,#247,.T.);
#249=ORIENTED_EDGE('',*,*,#248,.F.);
#250=CARTESIAN_POINT('',(64.069953546,-360.137567985,-25.158857781));
#251=DIRECTION('',(1.,0.,-0.));
#252=DIRECTION('',(-0.,0.05534459,-0.998467314));
#253=AXIS2_PLACEMENT_3D('',#250,#251,#252);
#254=CIRCLE('',#253,18.394449057);
#255=EDGE_CURVE('',#242,#240,#254,.T.);
#256=ORIENTED_EDGE('',*,*,#255,.F.);
#257=EDGE_LOOP('',(#249,#256));
#258=FACE_BOUND('',#257,.T.);
#259=ORIENTED_EDGE('',*,*,#117,.T.);
#260=CARTESIAN_POINT('',(64.069953546,-280.774612347,-66.042256729));
#261=DIRECTION('',(1.,0.,-0.));
#262=DIRECTION('',(-0.,0.,-1.));
#263=AXIS2_PLACEMENT_3D('',#260,#261,#262);
#264=CIRCLE('',#263,15.727629298);
#265=EDGE_CURVE('',#104,#138,#264,.T.);
#266=ORIENTED_EDGE('',*,*,#265,.T.);
#267=ORIENTED_EDGE('',*,*,#145,.T.);
#268=CARTESIAN_POINT('',(64.069953546,-272.479445628,12.700040008));
#269=DIRECTION('',(1.,0.,-0.));
#270=DIRECTION('',(-0.,0.,-1.));
#271=AXIS2_PLACEMENT_3D('',#268,#269,#270);
#272=CIRCLE('',#271,13.290564292);
#273=EDGE_CURVE('',#140,#178,#272,.T.);
#274=ORIENTED_EDGE('',*,*,#273,.T.);
#275=ORIENTED_EDGE('',*,*,#185,.T.);
#276=ORIENTED_EDGE('',*,*,#229,.T.);
#277=EDGE_LOOP('',(#259,#266,#267,#274,#275,#276));
#278=FACE_BOUND('',#277,.T.);
#279=ADVANCED_FACE('',(#258,#278),#238,.T.);
#280=CARTESIAN_POINT('',(24.42315558,-75.091796565,-365.215624263));
#281=DIRECTION('',(1.,0.,-0.));
#282=DIRECTION('',(-0.,0.05534459,-0.998467314));
#283=AXIS2_PLACEMENT_3D('',#280,#281,#282);
#284=PLANE('',#283);
#285=CARTESIAN_POINT('',(24.42315558,-359.119534738,-43.525113916));
#286=VERTEX_POINT('',#285);
#287=CARTESIAN_POINT('',(24.42315558,-378.503824121,-26.176891028));
#288=VERTEX_POINT('',#287);
#289=CARTESIAN_POINT('',(24.42315558,-360.137567985,-25.158857781));
#290=DIRECTION('',(1.,0.,-0.));
#291=DIRECTION('',(-0.,0.05534459,-0.998467314));
#292=AXIS2_PLACEMENT_3D('',#289,#290,#291);
#293=CIRCLE('',#292,18.394449057);
#294=EDGE_CURVE('',#286,#288,#293,.T.);
#295=ORIENTED_EDGE('',*,*,#294,.T.);
#296=CARTESIAN_POINT('',(24.42315558,-360.137567985,-25.158857781));
#297=DIRECTION('',(1.,0.,-0.));
#298=DIRECTION('',(-0.,0.05534459,-0.998467314));
#299=AXIS2_PLACEMENT_3D('',#296,#297,#298);
#300=CIRCLE('',#299,18.394449057);
#301=EDGE_CURVE('',#288,#286,#300,.T.);
#302=ORIENTED_EDGE('',*,*,#301,.T.);
#303=EDGE_LOOP('',(#295,#302));
#304=FACE_BOUND('',#303,.T.);
#305=ORIENTED_EDGE('',*,*,#161,.F.);
#306=CARTESIAN_POINT('',(24.42315558,-280.774612347,-66.042256729));
#307=DIRECTION('',(-1.,-0.,0.));
#308=DIRECTION('',(-0.,0.,-1.));
#309=AXIS2_PLACEMENT_3D('',#306,#307,#308);
#310=CIRCLE('',#309,15.727629298);
#311=EDGE_CURVE('',#148,#96,#310,.T.);
#312=ORIENTED_EDGE('',*,*,#311,.T.);
#313=ORIENTED_EDGE('',*,*,#101,.F.);
#314=ORIENTED_EDGE('',*,*,#222,.F.);
#315=ORIENTED_EDGE('',*,*,#201,.F.);
#316=CARTESIAN_POINT('',(24.42315558,-272.479445628,12.700040008));
#317=DIRECTION('',(-1.,-0.,0.));
#318=DIRECTION('',(-0.,0.,-1.));
#319=AXIS2_PLACEMENT_3D('',#316,#317,#318);
#320=CIRCLE('',#319,13.290564292);
#321=EDGE_CURVE('',#188,#156,#320,.T.);
#322=ORIENTED_EDGE('',*,*,#321,.T.);
#323=EDGE_LOOP('',(#305,#312,#313,#314,#315,#322));
#324=FACE_BOUND('',#323,.T.);
#325=ADVANCED_FACE('',(#304,#324),#284,.F.);
#326=CARTESIAN_POINT('',(194.456501014,-360.137567985,-25.158857781));
#327=DIRECTION('',(-1.,0.,0.));
#328=DIRECTION('',(-0.,-0.998467314,-0.05534459));
#329=AXIS2_PLACEMENT_3D('',#326,#327,#328);
#330=CYLINDRICAL_SURFACE('',#329,18.394449057);
#331=CARTESIAN_POINT('',(24.42315558,-378.503824121,-26.176891028));
#332=DIRECTION('',(1.,-0.,-0.));
#333=VECTOR('',#332,39.646797967);
#334=LINE('',#331,#333);
#335=EDGE_CURVE('',#288,#240,#334,.T.);
#336=ORIENTED_EDGE('',*,*,#335,.F.);
#337=ORIENTED_EDGE('',*,*,#294,.F.);
#338=ORIENTED_EDGE('',*,*,#301,.F.);
#339=ORIENTED_EDGE('',*,*,#335,.T.);
#340=ORIENTED_EDGE('',*,*,#248,.T.);
#341=ORIENTED_EDGE('',*,*,#255,.T.);
#342=EDGE_LOOP('',(#336,#337,#338,#339,#340,#341));
#343=FACE_BOUND('',#342,.T.);
#344=ADVANCED_FACE('',(#343),#330,.F.);
#345=CARTESIAN_POINT('',(64.069953546,-272.479445628,12.700040008));
#346=DIRECTION('',(-1.,-0.,0.));
#347=DIRECTION('',(0.,-1.,0.));
#348=AXIS2_PLACEMENT_3D('',#345,#346,#347);
#349=CYLINDRICAL_SURFACE('',#348,13.290564292);
#350=ORIENTED_EDGE('',*,*,#273,.F.);
#351=ORIENTED_EDGE('',*,*,#167,.F.);
#352=ORIENTED_EDGE('',*,*,#321,.F.);
#353=ORIENTED_EDGE('',*,*,#193,.F.);
#354=EDGE_LOOP('',(#350,#351,#352,#353));
#355=FACE_BOUND('',#354,.T.);
#356=ADVANCED_FACE('',(#355),#349,.T.);
#357=CARTESIAN_POINT('',(64.069953546,-280.774612347,-66.042256729));
#358=DIRECTION('',(-1.,-0.,-0.));
#359=DIRECTION('',(0.,-1.,0.));
#360=AXIS2_PLACEMENT_3D('',#357,#358,#359);
#361=CYLINDRICAL_SURFACE('',#360,15.727629298);
#362=ORIENTED_EDGE('',*,*,#265,.F.);
#363=ORIENTED_EDGE('',*,*,#109,.F.);
#364=ORIENTED_EDGE('',*,*,#311,.F.);
#365=ORIENTED_EDGE('',*,*,#153,.F.);
#366=EDGE_LOOP('',(#362,#363,#364,#365));
#367=FACE_BOUND('',#366,.T.);
#368=ADVANCED_FACE('',(#367),#361,.T.);
#369=CLOSED_SHELL('',(#77,#87,#127,#171,#211,#233,#279,#325,#344,#356,#368));
#370=MANIFOLD_SOLID_BREP('Piston',#369);
#371=COLOUR_RGB('',0.78039217,0.78039217,0.78039217);
#372=FILL_AREA_STYLE_COLOUR('',#371);
#373=FILL_AREA_STYLE('',(#372));
#374=SURFACE_STYLE_FILL_AREA(#373);
#375=SURFACE_SIDE_STYLE('',(#374));
#376=SURFACE_STYLE_USAGE(.BOTH.,#375);
#377=PRESENTATION_STYLE_ASSIGNMENT((#376));
#26=STYLED_ITEM('',(#377),#370);
#16=SHAPE_REPRESENTATION('root',(#15),#10);
#17=ADVANCED_BREP_SHAPE_REPRESENTATION('root',(#370),#10);
#385=SHAPE_REPRESENTATION_RELATIONSHIP('','',#16,#17);
#386=APPLICATION_CONTEXT('configuration controlled 3D design of mechanical parts and assemblies');
#387=APPLICATION_PROTOCOL_DEFINITION('international standard','configuration_control_3d_design_ed2_mim',2004,#386);
#388=PRODUCT_CONTEXT('',#386,'mechanical');
#389=PRODUCT_DEFINITION_CONTEXT('part definition',#386,'design');
#24=PRODUCT('root','root','',(#388));
#390=PRODUCT_RELATED_PRODUCT_CATEGORY('part','',(#24));
#391=PRODUCT_DEFINITION_FORMATION_WITH_SPECIFIED_SOURCE('','',#24,.NOT_KNOWN.);
#25=PRODUCT_DEFINITION('design','',#391,#389);
#23=PRODUCT_DEFINITION_SHAPE('','',#25);
#392=SHAPE_DEFINITION_REPRESENTATION(#23,#16);
#11=DRAUGHTING_MODEL('',(),#10);
#1=MECHANICAL_DESIGN_GEOMETRIC_PRESENTATION_REPRESENTATION('',(#26),#10);
ENDSEC;
END-ISO-10303-21;
