ISO-10303-21;
HEADER;

/* File generated by HOOPS Exchange Version 24.2.0 */

FILE_DESCRIPTION(('HOOPS Exchange Step'),'2;1');

FILE_NAME('C:\\Users\\andy\\OneDrive\\Desktop\\Scraper CAD\\Front Scraper\\Pivot Bolt.stp',
'2026-05-10T16:21:13-05:00',
('andy'),
('Unknown organisation'),
'HOOPS Exchange 2024.2',
'HOOPS Exchange',
'Unknown authorisation');

FILE_SCHEMA( ('AP203_CONFIGURATION_CONTROLLED_3D_DESIGN_OF_MECHANICAL_PARTS_AND_ASSEMBLIES_MIM_LF') );

ENDSEC;

DATA;
#3=(NAMED_UNIT(*)PLANE_ANGLE_UNIT()SI_UNIT($,.RADIAN.));
#4=PLANE_ANGLE_MEASURE_WITH_UNIT(PLANE_ANGLE_MEASURE(0.0174532925),#3);
#5=(CONVERSION_BASED_UNIT('DEGREE',#4)NAMED_UNIT(#6)PLANE_ANGLE_UNIT());
#6=DIMENSIONAL_EXPONENTS(0.,0.,0.,0.,0.,0.,0.);
#7=(NAMED_UNIT(*)SI_UNIT($,.STERADIAN.)SOLID_ANGLE_UNIT());
#8=(LENGTH_UNIT()NAMED_UNIT(*)SI_UNIT(.MILLI.,.METRE.));
#9=UNCERTAINTY_MEASURE_WITH_UNIT(LENGTH_MEASURE(1.000000E-05),#8,'DISTANCE_ACCURACY_VALUE','Maximum Tolerance applied to model');
#10=(GEOMETRIC_REPRESENTATION_CONTEXT(3)GLOBAL_UNCERTAINTY_ASSIGNED_CONTEXT((#9))GLOBAL_UNIT_ASSIGNED_CONTEXT((#8,#5,#7))REPRESENTATION_CONTEXT('','root'));
#12=CARTESIAN_POINT('',(0.,0.,0.));
#13=DIRECTION('',(0.,0.,1.));
#14=DIRECTION('',(1.,0.,0.));
#15=AXIS2_PLACEMENT_3D('',#12,#13,#14);
#27=CARTESIAN_POINT('',(-39.541677152,-105.549229507,296.967286918));
#28=DIRECTION('',(0.,0.582408104,0.81289655));
#29=DIRECTION('',(0.,-0.81289655,0.582408104));
#30=AXIS2_PLACEMENT_3D('',#27,#28,#29);
#31=PLANE('',#30);
#32=CARTESIAN_POINT('',(-19.536279637,-84.227714365,281.691267837));
#33=VERTEX_POINT('',#32);
#34=CARTESIAN_POINT('',(-19.536279637,-105.549229507,296.967286918));
#35=VERTEX_POINT('',#34);
#36=CARTESIAN_POINT('',(-19.536279637,-84.227714365,281.691267837));
#37=DIRECTION('',(0.,-0.81289655,0.582408104));
#38=VECTOR('',#37,26.229063401);
#39=LINE('',#36,#38);
#40=EDGE_CURVE('',#33,#35,#39,.T.);
#41=ORIENTED_EDGE('',*,*,#40,.F.);
#42=CARTESIAN_POINT('',(-39.541677152,-84.227714365,281.691267837));
#43=VERTEX_POINT('',#42);
#44=CARTESIAN_POINT('',(-39.541677152,-84.227714365,281.691267837));
#45=DIRECTION('',(1.,-0.,0.));
#46=VECTOR('',#45,20.005397515);
#47=LINE('',#44,#46);
#48=EDGE_CURVE('',#43,#33,#47,.T.);
#49=ORIENTED_EDGE('',*,*,#48,.F.);
#50=CARTESIAN_POINT('',(-39.541677152,-105.549229507,296.967286918));
#51=VERTEX_POINT('',#50);
#52=CARTESIAN_POINT('',(-39.541677152,-84.227714365,281.691267837));
#53=DIRECTION('',(0.,-0.81289655,0.582408104));
#54=VECTOR('',#53,26.229063401);
#55=LINE('',#52,#54);
#56=EDGE_CURVE('',#43,#51,#55,.T.);
#57=ORIENTED_EDGE('',*,*,#56,.T.);
#58=CARTESIAN_POINT('',(-39.541677152,-105.549229507,296.967286918));
#59=DIRECTION('',(1.,-0.,0.));
#60=VECTOR('',#59,20.005397515);
#61=LINE('',#58,#60);
#62=EDGE_CURVE('',#51,#35,#61,.T.);
#63=ORIENTED_EDGE('',*,*,#62,.T.);
#64=EDGE_LOOP('',(#41,#49,#57,#63));
#65=FACE_BOUND('',#64,.T.);
#66=ADVANCED_FACE('',(#65),#31,.T.);
#67=CARTESIAN_POINT('',(-39.541677152,-84.227714365,281.691267837));
#68=DIRECTION('',(0.,0.995193115,-0.097931938));
#69=DIRECTION('',(0.,0.097931938,0.995193115));
#70=AXIS2_PLACEMENT_3D('',#67,#68,#69);
#71=PLANE('',#70);
#72=CARTESIAN_POINT('',(-19.536279637,-86.796377387,255.588284536));
#73=VERTEX_POINT('',#72);
#74=CARTESIAN_POINT('',(-19.536279637,-86.796377387,255.588284536));
#75=DIRECTION('',(0.,0.097931938,0.995193115));
#76=VECTOR('',#75,26.229063401);
#77=LINE('',#74,#76);
#78=EDGE_CURVE('',#73,#33,#77,.T.);
#79=ORIENTED_EDGE('',*,*,#78,.F.);
#80=CARTESIAN_POINT('',(-39.541677152,-86.796377387,255.588284536));
#81=VERTEX_POINT('',#80);
#82=CARTESIAN_POINT('',(-39.541677152,-86.796377387,255.588284536));
#83=DIRECTION('',(1.,-0.,0.));
#84=VECTOR('',#83,20.005397515);
#85=LINE('',#82,#84);
#86=EDGE_CURVE('',#81,#73,#85,.T.);
#87=ORIENTED_EDGE('',*,*,#86,.F.);
#88=CARTESIAN_POINT('',(-39.541677152,-86.796377387,255.588284536));
#89=DIRECTION('',(0.,0.097931938,0.995193115));
#90=VECTOR('',#89,26.229063401);
#91=LINE('',#88,#90);
#92=EDGE_CURVE('',#81,#43,#91,.T.);
#93=ORIENTED_EDGE('',*,*,#92,.T.);
#94=ORIENTED_EDGE('',*,*,#48,.T.);
#95=EDGE_LOOP('',(#79,#87,#93,#94));
#96=FACE_BOUND('',#95,.T.);
#97=ADVANCED_FACE('',(#96),#71,.T.);
#98=CARTESIAN_POINT('',(-39.541677152,-86.796377387,255.588284536));
#99=DIRECTION('',(0.,0.412785011,-0.910828488));
#100=DIRECTION('',(0.,0.910828488,0.412785011));
#101=AXIS2_PLACEMENT_3D('',#98,#99,#100);
#102=PLANE('',#101);
#103=CARTESIAN_POINT('',(-19.536279637,-110.686555551,244.761320316));
#104=VERTEX_POINT('',#103);
#105=CARTESIAN_POINT('',(-19.536279637,-110.686555551,244.761320316));
#106=DIRECTION('',(0.,0.910828488,0.412785011));
#107=VECTOR('',#106,26.229063401);
#108=LINE('',#105,#107);
#109=EDGE_CURVE('',#104,#73,#108,.T.);
#110=ORIENTED_EDGE('',*,*,#109,.F.);
#111=CARTESIAN_POINT('',(-39.541677152,-110.686555551,244.761320316));
#112=VERTEX_POINT('',#111);
#113=CARTESIAN_POINT('',(-39.541677152,-110.686555551,244.761320316));
#114=DIRECTION('',(1.,-0.,0.));
#115=VECTOR('',#114,20.005397515);
#116=LINE('',#113,#115);
#117=EDGE_CURVE('',#112,#104,#116,.T.);
#118=ORIENTED_EDGE('',*,*,#117,.F.);
#119=CARTESIAN_POINT('',(-39.541677152,-110.686555551,244.761320316));
#120=DIRECTION('',(0.,0.910828488,0.412785011));
#121=VECTOR('',#120,26.229063401);
#122=LINE('',#119,#121);
#123=EDGE_CURVE('',#112,#81,#122,.T.);
#124=ORIENTED_EDGE('',*,*,#123,.T.);
#125=ORIENTED_EDGE('',*,*,#86,.T.);
#126=EDGE_LOOP('',(#110,#118,#124,#125));
#127=FACE_BOUND('',#126,.T.);
#128=ADVANCED_FACE('',(#127),#102,.T.);
#129=CARTESIAN_POINT('',(-39.541677152,-110.686555551,244.761320316));
#130=DIRECTION('',(-0.,-0.582408104,-0.81289655));
#131=DIRECTION('',(0.,0.81289655,-0.582408104));
#132=AXIS2_PLACEMENT_3D('',#129,#130,#131);
#133=PLANE('',#132);
#134=CARTESIAN_POINT('',(-19.536279637,-132.008070693,260.037339397));
#135=VERTEX_POINT('',#134);
#136=CARTESIAN_POINT('',(-19.536279637,-132.008070693,260.037339397));
#137=DIRECTION('',(0.,0.81289655,-0.582408104));
#138=VECTOR('',#137,26.229063401);
#139=LINE('',#136,#138);
#140=EDGE_CURVE('',#135,#104,#139,.T.);
#141=ORIENTED_EDGE('',*,*,#140,.F.);
#142=CARTESIAN_POINT('',(-39.541677152,-132.008070693,260.037339397));
#143=VERTEX_POINT('',#142);
#144=CARTESIAN_POINT('',(-39.541677152,-132.008070693,260.037339397));
#145=DIRECTION('',(1.,-0.,0.));
#146=VECTOR('',#145,20.005397515);
#147=LINE('',#144,#146);
#148=EDGE_CURVE('',#143,#135,#147,.T.);
#149=ORIENTED_EDGE('',*,*,#148,.F.);
#150=CARTESIAN_POINT('',(-39.541677152,-132.008070693,260.037339397));
#151=DIRECTION('',(0.,0.81289655,-0.582408104));
#152=VECTOR('',#151,26.229063401);
#153=LINE('',#150,#152);
#154=EDGE_CURVE('',#143,#112,#153,.T.);
#155=ORIENTED_EDGE('',*,*,#154,.T.);
#156=ORIENTED_EDGE('',*,*,#117,.T.);
#157=EDGE_LOOP('',(#141,#149,#155,#156));
#158=FACE_BOUND('',#157,.T.);
#159=ADVANCED_FACE('',(#158),#133,.T.);
#160=CARTESIAN_POINT('',(-39.541677152,-132.008070693,260.037339397));
#161=DIRECTION('',(-0.,-0.995193115,0.097931938));
#162=DIRECTION('',(-0.,-0.097931938,-0.995193115));
#163=AXIS2_PLACEMENT_3D('',#160,#161,#162);
#164=PLANE('',#163);
#165=CARTESIAN_POINT('',(-19.536279637,-129.439407671,286.140322698));
#166=VERTEX_POINT('',#165);
#167=CARTESIAN_POINT('',(-19.536279637,-129.439407671,286.140322698));
#168=DIRECTION('',(0.,-0.097931938,-0.995193115));
#169=VECTOR('',#168,26.229063401);
#170=LINE('',#167,#169);
#171=EDGE_CURVE('',#166,#135,#170,.T.);
#172=ORIENTED_EDGE('',*,*,#171,.F.);
#173=CARTESIAN_POINT('',(-39.541677152,-129.439407671,286.140322698));
#174=VERTEX_POINT('',#173);
#175=CARTESIAN_POINT('',(-39.541677152,-129.439407671,286.140322698));
#176=DIRECTION('',(1.,-0.,0.));
#177=VECTOR('',#176,20.005397515);
#178=LINE('',#175,#177);
#179=EDGE_CURVE('',#174,#166,#178,.T.);
#180=ORIENTED_EDGE('',*,*,#179,.F.);
#181=CARTESIAN_POINT('',(-39.541677152,-129.439407671,286.140322698));
#182=DIRECTION('',(0.,-0.097931938,-0.995193115));
#183=VECTOR('',#182,26.229063401);
#184=LINE('',#181,#183);
#185=EDGE_CURVE('',#174,#143,#184,.T.);
#186=ORIENTED_EDGE('',*,*,#185,.T.);
#187=ORIENTED_EDGE('',*,*,#148,.T.);
#188=EDGE_LOOP('',(#172,#180,#186,#187));
#189=FACE_BOUND('',#188,.T.);
#190=ADVANCED_FACE('',(#189),#164,.T.);
#191=CARTESIAN_POINT('',(-39.541677152,-129.439407671,286.140322698));
#192=DIRECTION('',(-0.,-0.412785011,0.910828488));
#193=DIRECTION('',(-0.,-0.910828488,-0.412785011));
#194=AXIS2_PLACEMENT_3D('',#191,#192,#193);
#195=PLANE('',#194);
#196=CARTESIAN_POINT('',(-19.536279637,-105.549229507,296.967286918));
#197=DIRECTION('',(0.,-0.910828488,-0.412785011));
#198=VECTOR('',#197,26.229063401);
#199=LINE('',#196,#198);
#200=EDGE_CURVE('',#35,#166,#199,.T.);
#201=ORIENTED_EDGE('',*,*,#200,.F.);
#202=ORIENTED_EDGE('',*,*,#62,.F.);
#203=CARTESIAN_POINT('',(-39.541677152,-105.549229507,296.967286918));
#204=DIRECTION('',(0.,-0.910828488,-0.412785011));
#205=VECTOR('',#204,26.229063401);
#206=LINE('',#203,#205);
#207=EDGE_CURVE('',#51,#174,#206,.T.);
#208=ORIENTED_EDGE('',*,*,#207,.T.);
#209=ORIENTED_EDGE('',*,*,#179,.T.);
#210=EDGE_LOOP('',(#201,#202,#208,#209));
#211=FACE_BOUND('',#210,.T.);
#212=ADVANCED_FACE('',(#211),#195,.T.);
#213=CARTESIAN_POINT('',(-39.541677152,-108.117892529,270.864303617));
#214=DIRECTION('',(-1.,0.,0.));
#215=DIRECTION('',(0.,0.,1.));
#216=AXIS2_PLACEMENT_3D('',#213,#214,#215);
#217=PLANE('',#216);
#218=ORIENTED_EDGE('',*,*,#56,.F.);
#219=ORIENTED_EDGE('',*,*,#92,.F.);
#220=ORIENTED_EDGE('',*,*,#123,.F.);
#221=ORIENTED_EDGE('',*,*,#154,.F.);
#222=ORIENTED_EDGE('',*,*,#185,.F.);
#223=ORIENTED_EDGE('',*,*,#207,.F.);
#224=EDGE_LOOP('',(#218,#219,#220,#221,#222,#223));
#225=FACE_BOUND('',#224,.T.);
#226=ADVANCED_FACE('',(#225),#217,.T.);
#227=CARTESIAN_POINT('',(-19.536279637,-108.117892529,270.864303617));
#228=DIRECTION('',(-1.,0.,0.));
#229=DIRECTION('',(0.,0.,1.));
#230=AXIS2_PLACEMENT_3D('',#227,#228,#229);
#231=PLANE('',#230);
#232=ORIENTED_EDGE('',*,*,#40,.T.);
#233=ORIENTED_EDGE('',*,*,#200,.T.);
#234=ORIENTED_EDGE('',*,*,#171,.T.);
#235=ORIENTED_EDGE('',*,*,#140,.T.);
#236=ORIENTED_EDGE('',*,*,#109,.T.);
#237=ORIENTED_EDGE('',*,*,#78,.T.);
#238=EDGE_LOOP('',(#232,#233,#234,#235,#236,#237));
#239=FACE_BOUND('',#238,.T.);
#240=ADVANCED_FACE('',(#239),#231,.F.);
#241=CLOSED_SHELL('',(#66,#97,#128,#159,#190,#212,#226,#240));
#242=MANIFOLD_SOLID_BREP('Bolt',#241);
#243=COLOUR_RGB('',0.78039217,0.78039217,0.78039217);
#244=FILL_AREA_STYLE_COLOUR('',#243);
#245=FILL_AREA_STYLE('',(#244));
#246=SURFACE_STYLE_FILL_AREA(#245);
#247=SURFACE_SIDE_STYLE('',(#246));
#248=SURFACE_STYLE_USAGE(.BOTH.,#247);
#249=PRESENTATION_STYLE_ASSIGNMENT((#248));
#26=STYLED_ITEM('',(#249),#242);
#16=SHAPE_REPRESENTATION('root',(#15),#10);
#17=ADVANCED_BREP_SHAPE_REPRESENTATION('root',(#242),#10);
#257=SHAPE_REPRESENTATION_RELATIONSHIP('','',#16,#17);
#258=APPLICATION_CONTEXT('configuration controlled 3D design of mechanical parts and assemblies');
#259=APPLICATION_PROTOCOL_DEFINITION('international standard','configuration_control_3d_design_ed2_mim',2004,#258);
#260=PRODUCT_CONTEXT('',#258,'mechanical');
#261=PRODUCT_DEFINITION_CONTEXT('part definition',#258,'design');
#24=PRODUCT('root','root','',(#260));
#262=PRODUCT_RELATED_PRODUCT_CATEGORY('part','',(#24));
#263=PRODUCT_DEFINITION_FORMATION_WITH_SPECIFIED_SOURCE('','',#24,.NOT_KNOWN.);
#25=PRODUCT_DEFINITION('design','',#263,#261);
#23=PRODUCT_DEFINITION_SHAPE('','',#25);
#264=SHAPE_DEFINITION_REPRESENTATION(#23,#16);
#11=DRAUGHTING_MODEL('',(),#10);
#1=MECHANICAL_DESIGN_GEOMETRIC_PRESENTATION_REPRESENTATION('',(#26),#10);
ENDSEC;
END-ISO-10303-21;
