ISO-10303-21;
HEADER;
/* Generated by software containing ST-Developer
 * from STEP Tools, Inc. (www.steptools.com) 
 */

FILE_DESCRIPTION(
/* description */ ('Alibre Inc.'),
/* implementation_level */ '2;1');

FILE_NAME(
/* name */ 'export-38C8F458-80B6-4F74-9852-A8512B8E4335',
/* time_stamp */ '2026-05-27T22:16:27-05:00',
/* author */ (''),
/* organization */ (''),
/* preprocessor_version */ 'ST-DEVELOPER v17',
/* originating_system */ 'Alibre',
/* authorisation */ '');

FILE_SCHEMA (('CONFIG_CONTROL_DESIGN'));
ENDSEC;

DATA;
#10=MECHANICAL_CONTEXT('detailed design',#18,'mechanical');
#11=PRODUCT_RELATED_PRODUCT_CATEGORY('detail','',(#98));
#12=CC_DESIGN_SECURITY_CLASSIFICATION(#14,(#97));
#13=SECURITY_CLASSIFICATION_LEVEL('unclassified');
#14=SECURITY_CLASSIFICATION('name','Security for version',#13);
#15=SHAPE_DEFINITION_REPRESENTATION(#16,#1100);
#16=PRODUCT_DEFINITION_SHAPE('','DefinitionDesc',#96);
#17=APPLICATION_PROTOCOL_DEFINITION('AP definition status',
'config_control_design',1994,#18);
#18=APPLICATION_CONTEXT(
'control the configuration of three dimensional design');
#19=DESIGN_CONTEXT('detailed design',#18,'design');
#20=PERSON_AND_ORGANIZATION_ROLE('creator');
#21=PERSON_AND_ORGANIZATION_ROLE('classification_officer');
#22=PERSON_AND_ORGANIZATION_ROLE('creator');
#23=PERSON_AND_ORGANIZATION_ROLE('design_supplier');
#24=PERSON_AND_ORGANIZATION_ROLE('design_owner');
#25=CC_DESIGN_PERSON_AND_ORGANIZATION_ASSIGNMENT(#57,#20,(#96));
#26=CC_DESIGN_PERSON_AND_ORGANIZATION_ASSIGNMENT(#60,#21,(#14));
#27=CC_DESIGN_PERSON_AND_ORGANIZATION_ASSIGNMENT(#61,#22,(#97));
#28=CC_DESIGN_PERSON_AND_ORGANIZATION_ASSIGNMENT(#62,#23,(#97));
#29=CC_DESIGN_PERSON_AND_ORGANIZATION_ASSIGNMENT(#63,#24,(#98));
#30=DATE_TIME_ROLE('creation_date');
#31=DATE_TIME_ROLE('classification_date');
#32=CC_DESIGN_DATE_AND_TIME_ASSIGNMENT(#86,#30,(#96));
#33=CC_DESIGN_DATE_AND_TIME_ASSIGNMENT(#89,#31,(#14));
#34=CC_DESIGN_APPROVAL(#93,(#96));
#35=CC_DESIGN_APPROVAL(#94,(#97));
#36=CC_DESIGN_APPROVAL(#95,(#14));
#37=APPROVAL_PERSON_ORGANIZATION(#56,#93,#64);
#38=APPROVAL_PERSON_ORGANIZATION(#58,#94,#65);
#39=APPROVAL_PERSON_ORGANIZATION(#59,#95,#66);
#40=ORGANIZATION('DEFINITION_APPROVEDBY_ORG_ID',
'DEFINITION_APPROVEDBY_ORG_NAME','DEFINITION_APPROVEDBY_ORG_DESCR');
#41=ORGANIZATION('DEF_CREATOR_ORG_ID','DEF_CREATOR_ORG_NAME',
'DEF_CREATOR_ORG_DESCR');
#42=ORGANIZATION('APPROVEDBY_ORG_ID','APPROVEDBY_ORG_NAME',
'APPROVEDBY_ORG_DESCR');
#43=ORGANIZATION('SECURITY_APPROVEDBY_ORG_ID',
'SECURITY_APPROVEDBY_ORG_NAME','SECURITY_APPROVEDBY_ORG_DESCR');
#44=ORGANIZATION('CLASSOFFICER_ORG_ID','CLASSOFFICER_ORG_NAME',
'CLASSOFFICER_ORG_DESCR');
#45=ORGANIZATION('CREATOR_ORG_ID','CREATOR_ORG_NAME',
'CREATOR_ORG_DESCR');
#46=ORGANIZATION('SUPPLIER_ORG_ID','SUPPLIER_ORG_NAME',
'SUPPLIER_ORG_DESCR');
#47=ORGANIZATION('OWNER_ORG_ID','OWNER_ORG_NAME','OWNER_ORG_DESCR');
#48=PERSON('DEFINITION_approverID','DEFINITION_APPROVEDBY_LASTNAME',
'DEFINITION_APPROVEDBY_FIRSTNAME',$,$,$);
#49=PERSON('DEF_createrID','DEF_CREATOR_LASTNAME',
'DEF_CREATOR_FIRSTNAME',$,$,$);
#50=PERSON('approverID','APPROVEDBY_LASTNAME','APPROVEDBY_FIRSTNAME',$,
$,$);
#51=PERSON('SECURITY_approverID','SECURITY_LASTNAME',
'SECURITY_APPROVEDBY_FIRSTNAME',$,$,$);
#52=PERSON('classifierID','CLASSOFFICER_LASTNAME',
'CLASSOFFICER_FIRSTNAME',$,$,$);
#53=PERSON('createrID','CREATOR_LASTNAME','CREATOR_FIRSTNAME',$,$,$);
#54=PERSON('supplierID','SUPPLIER_LASTNAME','SUPPLIER_FIRSTNAME',$,$,$);
#55=PERSON('ownerID','OWNER_LASTNAME','OWNER_FIRSTNAME',$,$,$);
#56=PERSON_AND_ORGANIZATION(#48,#40);
#57=PERSON_AND_ORGANIZATION(#49,#41);
#58=PERSON_AND_ORGANIZATION(#50,#42);
#59=PERSON_AND_ORGANIZATION(#51,#43);
#60=PERSON_AND_ORGANIZATION(#52,#44);
#61=PERSON_AND_ORGANIZATION(#53,#45);
#62=PERSON_AND_ORGANIZATION(#54,#46);
#63=PERSON_AND_ORGANIZATION(#55,#47);
#64=APPROVAL_ROLE('definition_approval');
#65=APPROVAL_ROLE('version_approval');
#66=APPROVAL_ROLE('security_approval');
#67=APPROVAL_DATE_TIME(#85,#93);
#68=APPROVAL_DATE_TIME(#87,#94);
#69=APPROVAL_DATE_TIME(#88,#95);
#70=COORDINATED_UNIVERSAL_TIME_OFFSET(5,0,.BEHIND.);
#71=COORDINATED_UNIVERSAL_TIME_OFFSET(5,0,.BEHIND.);
#72=COORDINATED_UNIVERSAL_TIME_OFFSET(5,0,.BEHIND.);
#73=COORDINATED_UNIVERSAL_TIME_OFFSET(5,0,.BEHIND.);
#74=COORDINATED_UNIVERSAL_TIME_OFFSET(5,0,.BEHIND.);
#75=LOCAL_TIME(22,3,11.,#70);
#76=LOCAL_TIME(22,3,11.,#71);
#77=LOCAL_TIME(22,3,11.,#72);
#78=LOCAL_TIME(22,3,11.,#73);
#79=LOCAL_TIME(22,3,11.,#74);
#80=CALENDAR_DATE(2026,27,5);
#81=CALENDAR_DATE(2026,27,5);
#82=CALENDAR_DATE(2026,27,5);
#83=CALENDAR_DATE(2026,27,5);
#84=CALENDAR_DATE(2026,27,5);
#85=DATE_AND_TIME(#80,#75);
#86=DATE_AND_TIME(#81,#76);
#87=DATE_AND_TIME(#82,#77);
#88=DATE_AND_TIME(#83,#78);
#89=DATE_AND_TIME(#84,#79);
#90=APPROVAL_STATUS('not_yet_approved');
#91=APPROVAL_STATUS('not_yet_approved');
#92=APPROVAL_STATUS('not_yet_approved');
#93=APPROVAL(#90,'defintion approval');
#94=APPROVAL(#91,'version approval');
#95=APPROVAL(#92,'security approval');
#96=PRODUCT_DEFINITION('DefinitionID','DefinitionDesc',#97,#19);
#97=PRODUCT_DEFINITION_FORMATION_WITH_SPECIFIED_SOURCE(
'PRODUCT_VERSION_ID','PRODUCT_VERSION_DESCR',#98,.NOT_KNOWN.);
#98=PRODUCT('','TractorMount','',(#10));
#99=(
LENGTH_UNIT()
NAMED_UNIT(*)
SI_UNIT(.CENTI.,.METRE.)
);
#100=(
NAMED_UNIT(*)
PLANE_ANGLE_UNIT()
SI_UNIT($,.RADIAN.)
);
#101=(
NAMED_UNIT(*)
SI_UNIT($,.STERADIAN.)
SOLID_ANGLE_UNIT()
);
#102=UNCERTAINTY_MEASURE_WITH_UNIT(LENGTH_MEASURE(1.E-6),#99,
'DISTANCE_ACCURACY_VALUE',
'Maximum model space distance between geometric entities at asserted c
onnectivities');
#103=(
GEOMETRIC_REPRESENTATION_CONTEXT(3)
GLOBAL_UNCERTAINTY_ASSIGNED_CONTEXT((#102))
GLOBAL_UNIT_ASSIGNED_CONTEXT((#101,#100,#99))
REPRESENTATION_CONTEXT('ID1','3D')
);
#104=CYLINDRICAL_SURFACE('',#688,1.25);
#105=CYLINDRICAL_SURFACE('',#703,1.25);
#106=CYLINDRICAL_SURFACE('',#706,0.4175);
#107=CYLINDRICAL_SURFACE('',#709,0.4175);
#108=CYLINDRICAL_SURFACE('',#712,0.417499999999997);
#109=CYLINDRICAL_SURFACE('',#715,0.4175);
#110=CYLINDRICAL_SURFACE('',#718,0.635000000000001);
#111=CYLINDRICAL_SURFACE('',#720,1.11);
#112=CYLINDRICAL_SURFACE('',#723,0.635);
#113=CYLINDRICAL_SURFACE('',#725,1.11);
#114=CYLINDRICAL_SURFACE('',#729,0.634999999999999);
#115=CYLINDRICAL_SURFACE('',#731,1.11);
#116=CYLINDRICAL_SURFACE('',#735,0.635);
#117=CYLINDRICAL_SURFACE('',#737,1.11);
#118=CYLINDRICAL_SURFACE('',#739,0.437);
#119=CIRCLE('',#685,0.4175);
#120=CIRCLE('',#686,0.4175);
#121=CIRCLE('',#687,1.25);
#122=CIRCLE('',#689,1.25);
#123=CIRCLE('',#691,1.11000000000002);
#124=CIRCLE('',#692,0.634999999999995);
#125=CIRCLE('',#693,0.635000000000009);
#126=CIRCLE('',#694,1.11000000000004);
#127=CIRCLE('',#695,0.635000000000094);
#128=CIRCLE('',#696,1.11);
#129=CIRCLE('',#697,1.11000000000001);
#130=CIRCLE('',#698,0.634999999999991);
#131=CIRCLE('',#700,0.4175);
#132=CIRCLE('',#701,0.417499999999997);
#133=CIRCLE('',#702,1.25);
#134=CIRCLE('',#704,1.25);
#135=CIRCLE('',#707,0.4175);
#136=CIRCLE('',#710,0.4175);
#137=CIRCLE('',#713,0.417499999999997);
#138=CIRCLE('',#716,0.4175);
#139=CIRCLE('',#719,0.634999999999987);
#140=CIRCLE('',#721,1.11);
#141=CIRCLE('',#724,0.635000000000097);
#142=CIRCLE('',#726,1.11000000000002);
#143=CIRCLE('',#730,0.635000000000009);
#144=CIRCLE('',#732,1.11000000000002);
#145=CIRCLE('',#736,0.635000000000006);
#146=CIRCLE('',#738,1.11000000000001);
#147=CIRCLE('',#740,0.437);
#148=CIRCLE('',#741,0.437);
#149=VERTEX_POINT('',#909);
#150=VERTEX_POINT('',#910);
#151=VERTEX_POINT('',#912);
#152=VERTEX_POINT('',#914);
#153=VERTEX_POINT('',#917);
#154=VERTEX_POINT('',#918);
#155=VERTEX_POINT('',#920);
#156=VERTEX_POINT('',#922);
#157=VERTEX_POINT('',#926);
#158=VERTEX_POINT('',#928);
#159=VERTEX_POINT('',#932);
#160=VERTEX_POINT('',#934);
#161=VERTEX_POINT('',#936);
#162=VERTEX_POINT('',#938);
#163=VERTEX_POINT('',#940);
#164=VERTEX_POINT('',#942);
#165=VERTEX_POINT('',#944);
#166=VERTEX_POINT('',#946);
#167=VERTEX_POINT('',#948);
#168=VERTEX_POINT('',#950);
#169=VERTEX_POINT('',#952);
#170=VERTEX_POINT('',#954);
#171=VERTEX_POINT('',#956);
#172=VERTEX_POINT('',#958);
#173=VERTEX_POINT('',#960);
#174=VERTEX_POINT('',#962);
#175=VERTEX_POINT('',#964);
#176=VERTEX_POINT('',#968);
#177=VERTEX_POINT('',#969);
#178=VERTEX_POINT('',#971);
#179=VERTEX_POINT('',#973);
#180=VERTEX_POINT('',#976);
#181=VERTEX_POINT('',#978);
#182=VERTEX_POINT('',#982);
#183=VERTEX_POINT('',#986);
#184=VERTEX_POINT('',#987);
#185=VERTEX_POINT('',#992);
#186=VERTEX_POINT('',#996);
#187=VERTEX_POINT('',#1002);
#188=VERTEX_POINT('',#1003);
#189=VERTEX_POINT('',#1008);
#190=VERTEX_POINT('',#1012);
#191=VERTEX_POINT('',#1018);
#192=VERTEX_POINT('',#1022);
#193=VERTEX_POINT('',#1026);
#194=VERTEX_POINT('',#1030);
#195=VERTEX_POINT('',#1034);
#196=VERTEX_POINT('',#1038);
#197=VERTEX_POINT('',#1042);
#198=VERTEX_POINT('',#1046);
#199=VERTEX_POINT('',#1050);
#200=VERTEX_POINT('',#1054);
#201=VERTEX_POINT('',#1058);
#202=VERTEX_POINT('',#1062);
#203=VERTEX_POINT('',#1066);
#204=VERTEX_POINT('',#1070);
#205=VERTEX_POINT('',#1074);
#206=VERTEX_POINT('',#1076);
#207=VECTOR('',#746,1.);
#208=VECTOR('',#749,1.);
#209=VECTOR('',#754,1.);
#210=VECTOR('',#755,1.);
#211=VECTOR('',#756,1.);
#212=VECTOR('',#759,1.);
#213=VECTOR('',#762,1.);
#214=VECTOR('',#766,1.);
#215=VECTOR('',#769,1.);
#216=VECTOR('',#772,1.);
#217=VECTOR('',#775,1.);
#218=VECTOR('',#776,1.);
#219=VECTOR('',#777,1.);
#220=VECTOR('',#780,1.);
#221=VECTOR('',#783,1.);
#222=VECTOR('',#786,1.);
#223=VECTOR('',#789,1.);
#224=VECTOR('',#791,1.);
#225=VECTOR('',#794,1.);
#226=VECTOR('',#799,1.);
#227=VECTOR('',#800,1.);
#228=VECTOR('',#803,1.);
#229=VECTOR('',#807,1.);
#230=VECTOR('',#808,1.);
#231=VECTOR('',#809,1.);
#232=VECTOR('',#814,1.);
#233=VECTOR('',#816,1.);
#234=VECTOR('',#817,1.);
#235=VECTOR('',#823,1.);
#236=VECTOR('',#824,1.);
#237=VECTOR('',#825,1.);
#238=VECTOR('',#830,1.);
#239=VECTOR('',#832,1.);
#240=VECTOR('',#833,1.);
#241=VECTOR('',#839,1.);
#242=VECTOR('',#840,1.);
#243=VECTOR('',#845,1.);
#244=VECTOR('',#848,1.);
#245=VECTOR('',#852,1.);
#246=VECTOR('',#853,1.);
#247=VECTOR('',#856,1.);
#248=VECTOR('',#861,1.);
#249=VECTOR('',#865,1.);
#250=VECTOR('',#866,1.);
#251=VECTOR('',#868,1.);
#252=VECTOR('',#869,1.);
#253=VECTOR('',#874,1.);
#254=VECTOR('',#877,1.);
#255=VECTOR('',#881,1.);
#256=VECTOR('',#882,1.);
#257=VECTOR('',#884,1.);
#258=VECTOR('',#885,1.);
#259=VECTOR('',#888,1.);
#260=VECTOR('',#893,1.);
#261=VECTOR('',#903,1.);
#262=VECTOR('',#904,1.);
#263=LINE('',#908,#207);
#264=LINE('',#913,#208);
#265=LINE('',#919,#209);
#266=LINE('',#921,#210);
#267=LINE('',#923,#211);
#268=LINE('',#925,#212);
#269=LINE('',#929,#213);
#270=LINE('',#933,#214);
#271=LINE('',#937,#215);
#272=LINE('',#941,#216);
#273=LINE('',#945,#217);
#274=LINE('',#947,#218);
#275=LINE('',#949,#219);
#276=LINE('',#953,#220);
#277=LINE('',#957,#221);
#278=LINE('',#961,#222);
#279=LINE('',#965,#223);
#280=LINE('',#967,#224);
#281=LINE('',#972,#225);
#282=LINE('',#977,#226);
#283=LINE('',#979,#227);
#284=LINE('',#981,#228);
#285=LINE('',#985,#229);
#286=LINE('',#988,#230);
#287=LINE('',#989,#231);
#288=LINE('',#993,#232);
#289=LINE('',#995,#233);
#290=LINE('',#997,#234);
#291=LINE('',#1001,#235);
#292=LINE('',#1004,#236);
#293=LINE('',#1005,#237);
#294=LINE('',#1009,#238);
#295=LINE('',#1011,#239);
#296=LINE('',#1013,#240);
#297=LINE('',#1017,#241);
#298=LINE('',#1019,#242);
#299=LINE('',#1023,#243);
#300=LINE('',#1025,#244);
#301=LINE('',#1029,#245);
#302=LINE('',#1031,#246);
#303=LINE('',#1033,#247);
#304=LINE('',#1037,#248);
#305=LINE('',#1041,#249);
#306=LINE('',#1043,#250);
#307=LINE('',#1045,#251);
#308=LINE('',#1047,#252);
#309=LINE('',#1051,#253);
#310=LINE('',#1053,#254);
#311=LINE('',#1057,#255);
#312=LINE('',#1059,#256);
#313=LINE('',#1061,#257);
#314=LINE('',#1063,#258);
#315=LINE('',#1065,#259);
#316=LINE('',#1069,#260);
#317=LINE('',#1078,#261);
#318=LINE('',#1079,#262);
#319=EDGE_CURVE('',#149,#150,#263,.T.);
#320=EDGE_CURVE('',#150,#151,#119,.T.);
#321=EDGE_CURVE('',#151,#152,#264,.T.);
#322=EDGE_CURVE('',#152,#149,#120,.T.);
#323=EDGE_CURVE('',#153,#154,#121,.T.);
#324=EDGE_CURVE('',#155,#153,#265,.T.);
#325=EDGE_CURVE('',#156,#155,#266,.T.);
#326=EDGE_CURVE('',#154,#156,#267,.T.);
#327=EDGE_CURVE('',#154,#157,#268,.T.);
#328=EDGE_CURVE('',#157,#158,#122,.T.);
#329=EDGE_CURVE('',#158,#153,#269,.T.);
#330=EDGE_CURVE('',#159,#156,#123,.T.);
#331=EDGE_CURVE('',#159,#160,#270,.T.);
#332=EDGE_CURVE('',#160,#161,#124,.T.);
#333=EDGE_CURVE('',#161,#162,#271,.T.);
#334=EDGE_CURVE('',#162,#163,#125,.T.);
#335=EDGE_CURVE('',#163,#164,#272,.T.);
#336=EDGE_CURVE('',#164,#165,#126,.T.);
#337=EDGE_CURVE('',#165,#166,#273,.T.);
#338=EDGE_CURVE('',#167,#166,#274,.T.);
#339=EDGE_CURVE('',#167,#168,#275,.T.);
#340=EDGE_CURVE('',#168,#169,#127,.T.);
#341=EDGE_CURVE('',#169,#170,#276,.T.);
#342=EDGE_CURVE('',#171,#170,#128,.T.);
#343=EDGE_CURVE('',#171,#172,#277,.T.);
#344=EDGE_CURVE('',#172,#173,#129,.T.);
#345=EDGE_CURVE('',#173,#174,#278,.T.);
#346=EDGE_CURVE('',#174,#175,#130,.T.);
#347=EDGE_CURVE('',#175,#157,#279,.T.);
#348=EDGE_CURVE('',#176,#177,#280,.T.);
#349=EDGE_CURVE('',#177,#178,#131,.T.);
#350=EDGE_CURVE('',#178,#179,#281,.T.);
#351=EDGE_CURVE('',#179,#176,#132,.T.);
#352=EDGE_CURVE('',#166,#180,#133,.T.);
#353=EDGE_CURVE('',#181,#165,#282,.T.);
#354=EDGE_CURVE('',#180,#181,#283,.T.);
#355=EDGE_CURVE('',#180,#182,#284,.T.);
#356=EDGE_CURVE('',#182,#167,#134,.T.);
#357=EDGE_CURVE('',#183,#184,#285,.T.);
#358=EDGE_CURVE('',#150,#183,#286,.T.);
#359=EDGE_CURVE('',#149,#184,#287,.T.);
#360=EDGE_CURVE('',#184,#185,#135,.T.);
#361=EDGE_CURVE('',#152,#185,#288,.T.);
#362=EDGE_CURVE('',#185,#186,#289,.T.);
#363=EDGE_CURVE('',#151,#186,#290,.T.);
#364=EDGE_CURVE('',#186,#183,#136,.T.);
#365=EDGE_CURVE('',#187,#188,#291,.T.);
#366=EDGE_CURVE('',#177,#187,#292,.T.);
#367=EDGE_CURVE('',#176,#188,#293,.T.);
#368=EDGE_CURVE('',#188,#189,#137,.T.);
#369=EDGE_CURVE('',#179,#189,#294,.T.);
#370=EDGE_CURVE('',#189,#190,#295,.T.);
#371=EDGE_CURVE('',#178,#190,#296,.T.);
#372=EDGE_CURVE('',#190,#187,#138,.T.);
#373=EDGE_CURVE('',#191,#182,#297,.T.);
#374=EDGE_CURVE('',#168,#191,#298,.T.);
#375=EDGE_CURVE('',#192,#191,#139,.T.);
#376=EDGE_CURVE('',#192,#169,#299,.T.);
#377=EDGE_CURVE('',#164,#193,#300,.T.);
#378=EDGE_CURVE('',#193,#181,#140,.T.);
#379=EDGE_CURVE('',#194,#175,#301,.T.);
#380=EDGE_CURVE('',#158,#194,#302,.T.);
#381=EDGE_CURVE('',#174,#195,#303,.T.);
#382=EDGE_CURVE('',#194,#195,#141,.T.);
#383=EDGE_CURVE('',#196,#159,#304,.T.);
#384=EDGE_CURVE('',#196,#155,#142,.T.);
#385=EDGE_CURVE('',#197,#173,#305,.T.);
#386=EDGE_CURVE('',#195,#197,#306,.T.);
#387=EDGE_CURVE('',#160,#198,#307,.T.);
#388=EDGE_CURVE('',#198,#196,#308,.T.);
#389=EDGE_CURVE('',#199,#198,#143,.T.);
#390=EDGE_CURVE('',#199,#161,#309,.T.);
#391=EDGE_CURVE('',#172,#200,#310,.T.);
#392=EDGE_CURVE('',#200,#197,#144,.T.);
#393=EDGE_CURVE('',#170,#201,#311,.T.);
#394=EDGE_CURVE('',#201,#192,#312,.T.);
#395=EDGE_CURVE('',#202,#163,#313,.T.);
#396=EDGE_CURVE('',#193,#202,#314,.T.);
#397=EDGE_CURVE('',#162,#203,#315,.T.);
#398=EDGE_CURVE('',#202,#203,#145,.T.);
#399=EDGE_CURVE('',#204,#171,#316,.T.);
#400=EDGE_CURVE('',#204,#201,#146,.T.);
#401=EDGE_CURVE('',#205,#205,#147,.T.);
#402=EDGE_CURVE('',#206,#206,#148,.T.);
#403=EDGE_CURVE('',#200,#204,#317,.T.);
#404=EDGE_CURVE('',#203,#199,#318,.T.);
#405=ORIENTED_EDGE('',*,*,#319,.T.);
#406=ORIENTED_EDGE('',*,*,#320,.T.);
#407=ORIENTED_EDGE('',*,*,#321,.T.);
#408=ORIENTED_EDGE('',*,*,#322,.T.);
#409=ORIENTED_EDGE('',*,*,#323,.F.);
#410=ORIENTED_EDGE('',*,*,#324,.F.);
#411=ORIENTED_EDGE('',*,*,#325,.F.);
#412=ORIENTED_EDGE('',*,*,#326,.F.);
#413=ORIENTED_EDGE('',*,*,#323,.T.);
#414=ORIENTED_EDGE('',*,*,#327,.T.);
#415=ORIENTED_EDGE('',*,*,#328,.T.);
#416=ORIENTED_EDGE('',*,*,#329,.T.);
#417=ORIENTED_EDGE('',*,*,#327,.F.);
#418=ORIENTED_EDGE('',*,*,#326,.T.);
#419=ORIENTED_EDGE('',*,*,#330,.F.);
#420=ORIENTED_EDGE('',*,*,#331,.T.);
#421=ORIENTED_EDGE('',*,*,#332,.T.);
#422=ORIENTED_EDGE('',*,*,#333,.T.);
#423=ORIENTED_EDGE('',*,*,#334,.T.);
#424=ORIENTED_EDGE('',*,*,#335,.T.);
#425=ORIENTED_EDGE('',*,*,#336,.T.);
#426=ORIENTED_EDGE('',*,*,#337,.T.);
#427=ORIENTED_EDGE('',*,*,#338,.F.);
#428=ORIENTED_EDGE('',*,*,#339,.T.);
#429=ORIENTED_EDGE('',*,*,#340,.T.);
#430=ORIENTED_EDGE('',*,*,#341,.T.);
#431=ORIENTED_EDGE('',*,*,#342,.F.);
#432=ORIENTED_EDGE('',*,*,#343,.T.);
#433=ORIENTED_EDGE('',*,*,#344,.T.);
#434=ORIENTED_EDGE('',*,*,#345,.T.);
#435=ORIENTED_EDGE('',*,*,#346,.T.);
#436=ORIENTED_EDGE('',*,*,#347,.T.);
#437=ORIENTED_EDGE('',*,*,#348,.T.);
#438=ORIENTED_EDGE('',*,*,#349,.T.);
#439=ORIENTED_EDGE('',*,*,#350,.T.);
#440=ORIENTED_EDGE('',*,*,#351,.T.);
#441=ORIENTED_EDGE('',*,*,#352,.F.);
#442=ORIENTED_EDGE('',*,*,#337,.F.);
#443=ORIENTED_EDGE('',*,*,#353,.F.);
#444=ORIENTED_EDGE('',*,*,#354,.F.);
#445=ORIENTED_EDGE('',*,*,#352,.T.);
#446=ORIENTED_EDGE('',*,*,#355,.T.);
#447=ORIENTED_EDGE('',*,*,#356,.T.);
#448=ORIENTED_EDGE('',*,*,#338,.T.);
#449=ORIENTED_EDGE('',*,*,#357,.F.);
#450=ORIENTED_EDGE('',*,*,#358,.F.);
#451=ORIENTED_EDGE('',*,*,#319,.F.);
#452=ORIENTED_EDGE('',*,*,#359,.T.);
#453=ORIENTED_EDGE('',*,*,#360,.F.);
#454=ORIENTED_EDGE('',*,*,#359,.F.);
#455=ORIENTED_EDGE('',*,*,#322,.F.);
#456=ORIENTED_EDGE('',*,*,#361,.T.);
#457=ORIENTED_EDGE('',*,*,#362,.F.);
#458=ORIENTED_EDGE('',*,*,#361,.F.);
#459=ORIENTED_EDGE('',*,*,#321,.F.);
#460=ORIENTED_EDGE('',*,*,#363,.T.);
#461=ORIENTED_EDGE('',*,*,#364,.F.);
#462=ORIENTED_EDGE('',*,*,#363,.F.);
#463=ORIENTED_EDGE('',*,*,#320,.F.);
#464=ORIENTED_EDGE('',*,*,#358,.T.);
#465=ORIENTED_EDGE('',*,*,#365,.F.);
#466=ORIENTED_EDGE('',*,*,#366,.F.);
#467=ORIENTED_EDGE('',*,*,#348,.F.);
#468=ORIENTED_EDGE('',*,*,#367,.T.);
#469=ORIENTED_EDGE('',*,*,#368,.F.);
#470=ORIENTED_EDGE('',*,*,#367,.F.);
#471=ORIENTED_EDGE('',*,*,#351,.F.);
#472=ORIENTED_EDGE('',*,*,#369,.T.);
#473=ORIENTED_EDGE('',*,*,#370,.F.);
#474=ORIENTED_EDGE('',*,*,#369,.F.);
#475=ORIENTED_EDGE('',*,*,#350,.F.);
#476=ORIENTED_EDGE('',*,*,#371,.T.);
#477=ORIENTED_EDGE('',*,*,#372,.F.);
#478=ORIENTED_EDGE('',*,*,#371,.F.);
#479=ORIENTED_EDGE('',*,*,#349,.F.);
#480=ORIENTED_EDGE('',*,*,#366,.T.);
#481=ORIENTED_EDGE('',*,*,#356,.F.);
#482=ORIENTED_EDGE('',*,*,#373,.F.);
#483=ORIENTED_EDGE('',*,*,#374,.F.);
#484=ORIENTED_EDGE('',*,*,#339,.F.);
#485=ORIENTED_EDGE('',*,*,#365,.T.);
#486=ORIENTED_EDGE('',*,*,#368,.T.);
#487=ORIENTED_EDGE('',*,*,#370,.T.);
#488=ORIENTED_EDGE('',*,*,#372,.T.);
#489=ORIENTED_EDGE('',*,*,#375,.F.);
#490=ORIENTED_EDGE('',*,*,#376,.T.);
#491=ORIENTED_EDGE('',*,*,#340,.F.);
#492=ORIENTED_EDGE('',*,*,#374,.T.);
#493=ORIENTED_EDGE('',*,*,#377,.T.);
#494=ORIENTED_EDGE('',*,*,#378,.T.);
#495=ORIENTED_EDGE('',*,*,#353,.T.);
#496=ORIENTED_EDGE('',*,*,#336,.F.);
#497=ORIENTED_EDGE('',*,*,#328,.F.);
#498=ORIENTED_EDGE('',*,*,#347,.F.);
#499=ORIENTED_EDGE('',*,*,#379,.F.);
#500=ORIENTED_EDGE('',*,*,#380,.F.);
#501=ORIENTED_EDGE('',*,*,#357,.T.);
#502=ORIENTED_EDGE('',*,*,#360,.T.);
#503=ORIENTED_EDGE('',*,*,#362,.T.);
#504=ORIENTED_EDGE('',*,*,#364,.T.);
#505=ORIENTED_EDGE('',*,*,#346,.F.);
#506=ORIENTED_EDGE('',*,*,#381,.T.);
#507=ORIENTED_EDGE('',*,*,#382,.F.);
#508=ORIENTED_EDGE('',*,*,#379,.T.);
#509=ORIENTED_EDGE('',*,*,#383,.T.);
#510=ORIENTED_EDGE('',*,*,#330,.T.);
#511=ORIENTED_EDGE('',*,*,#325,.T.);
#512=ORIENTED_EDGE('',*,*,#384,.F.);
#513=ORIENTED_EDGE('',*,*,#385,.F.);
#514=ORIENTED_EDGE('',*,*,#386,.F.);
#515=ORIENTED_EDGE('',*,*,#381,.F.);
#516=ORIENTED_EDGE('',*,*,#345,.F.);
#517=ORIENTED_EDGE('',*,*,#387,.F.);
#518=ORIENTED_EDGE('',*,*,#331,.F.);
#519=ORIENTED_EDGE('',*,*,#383,.F.);
#520=ORIENTED_EDGE('',*,*,#388,.F.);
#521=ORIENTED_EDGE('',*,*,#389,.F.);
#522=ORIENTED_EDGE('',*,*,#390,.T.);
#523=ORIENTED_EDGE('',*,*,#332,.F.);
#524=ORIENTED_EDGE('',*,*,#387,.T.);
#525=ORIENTED_EDGE('',*,*,#391,.T.);
#526=ORIENTED_EDGE('',*,*,#392,.T.);
#527=ORIENTED_EDGE('',*,*,#385,.T.);
#528=ORIENTED_EDGE('',*,*,#344,.F.);
#529=ORIENTED_EDGE('',*,*,#393,.F.);
#530=ORIENTED_EDGE('',*,*,#341,.F.);
#531=ORIENTED_EDGE('',*,*,#376,.F.);
#532=ORIENTED_EDGE('',*,*,#394,.F.);
#533=ORIENTED_EDGE('',*,*,#395,.F.);
#534=ORIENTED_EDGE('',*,*,#396,.F.);
#535=ORIENTED_EDGE('',*,*,#377,.F.);
#536=ORIENTED_EDGE('',*,*,#335,.F.);
#537=ORIENTED_EDGE('',*,*,#334,.F.);
#538=ORIENTED_EDGE('',*,*,#397,.T.);
#539=ORIENTED_EDGE('',*,*,#398,.F.);
#540=ORIENTED_EDGE('',*,*,#395,.T.);
#541=ORIENTED_EDGE('',*,*,#399,.T.);
#542=ORIENTED_EDGE('',*,*,#342,.T.);
#543=ORIENTED_EDGE('',*,*,#393,.T.);
#544=ORIENTED_EDGE('',*,*,#400,.F.);
#545=ORIENTED_EDGE('',*,*,#401,.F.);
#546=ORIENTED_EDGE('',*,*,#402,.F.);
#547=ORIENTED_EDGE('',*,*,#329,.F.);
#548=ORIENTED_EDGE('',*,*,#380,.T.);
#549=ORIENTED_EDGE('',*,*,#382,.T.);
#550=ORIENTED_EDGE('',*,*,#386,.T.);
#551=ORIENTED_EDGE('',*,*,#392,.F.);
#552=ORIENTED_EDGE('',*,*,#403,.T.);
#553=ORIENTED_EDGE('',*,*,#400,.T.);
#554=ORIENTED_EDGE('',*,*,#394,.T.);
#555=ORIENTED_EDGE('',*,*,#375,.T.);
#556=ORIENTED_EDGE('',*,*,#373,.T.);
#557=ORIENTED_EDGE('',*,*,#355,.F.);
#558=ORIENTED_EDGE('',*,*,#354,.T.);
#559=ORIENTED_EDGE('',*,*,#378,.F.);
#560=ORIENTED_EDGE('',*,*,#396,.T.);
#561=ORIENTED_EDGE('',*,*,#398,.T.);
#562=ORIENTED_EDGE('',*,*,#404,.T.);
#563=ORIENTED_EDGE('',*,*,#389,.T.);
#564=ORIENTED_EDGE('',*,*,#388,.T.);
#565=ORIENTED_EDGE('',*,*,#384,.T.);
#566=ORIENTED_EDGE('',*,*,#324,.T.);
#567=ORIENTED_EDGE('',*,*,#402,.T.);
#568=ORIENTED_EDGE('',*,*,#403,.F.);
#569=ORIENTED_EDGE('',*,*,#391,.F.);
#570=ORIENTED_EDGE('',*,*,#343,.F.);
#571=ORIENTED_EDGE('',*,*,#399,.F.);
#572=ORIENTED_EDGE('',*,*,#401,.T.);
#573=ORIENTED_EDGE('',*,*,#390,.F.);
#574=ORIENTED_EDGE('',*,*,#404,.F.);
#575=ORIENTED_EDGE('',*,*,#397,.F.);
#576=ORIENTED_EDGE('',*,*,#333,.F.);
#577=EDGE_LOOP('',(#405,#406,#407,#408));
#578=EDGE_LOOP('',(#409,#410,#411,#412));
#579=EDGE_LOOP('',(#413,#414,#415,#416));
#580=EDGE_LOOP('',(#417,#418,#419,#420,#421,#422,#423,#424,#425,#426,#427,
#428,#429,#430,#431,#432,#433,#434,#435,#436));
#581=EDGE_LOOP('',(#437,#438,#439,#440));
#582=EDGE_LOOP('',(#441,#442,#443,#444));
#583=EDGE_LOOP('',(#445,#446,#447,#448));
#584=EDGE_LOOP('',(#449,#450,#451,#452));
#585=EDGE_LOOP('',(#453,#454,#455,#456));
#586=EDGE_LOOP('',(#457,#458,#459,#460));
#587=EDGE_LOOP('',(#461,#462,#463,#464));
#588=EDGE_LOOP('',(#465,#466,#467,#468));
#589=EDGE_LOOP('',(#469,#470,#471,#472));
#590=EDGE_LOOP('',(#473,#474,#475,#476));
#591=EDGE_LOOP('',(#477,#478,#479,#480));
#592=EDGE_LOOP('',(#481,#482,#483,#484));
#593=EDGE_LOOP('',(#485,#486,#487,#488));
#594=EDGE_LOOP('',(#489,#490,#491,#492));
#595=EDGE_LOOP('',(#493,#494,#495,#496));
#596=EDGE_LOOP('',(#497,#498,#499,#500));
#597=EDGE_LOOP('',(#501,#502,#503,#504));
#598=EDGE_LOOP('',(#505,#506,#507,#508));
#599=EDGE_LOOP('',(#509,#510,#511,#512));
#600=EDGE_LOOP('',(#513,#514,#515,#516));
#601=EDGE_LOOP('',(#517,#518,#519,#520));
#602=EDGE_LOOP('',(#521,#522,#523,#524));
#603=EDGE_LOOP('',(#525,#526,#527,#528));
#604=EDGE_LOOP('',(#529,#530,#531,#532));
#605=EDGE_LOOP('',(#533,#534,#535,#536));
#606=EDGE_LOOP('',(#537,#538,#539,#540));
#607=EDGE_LOOP('',(#541,#542,#543,#544));
#608=EDGE_LOOP('',(#545));
#609=EDGE_LOOP('',(#546));
#610=EDGE_LOOP('',(#547,#548,#549,#550,#551,#552,#553,#554,#555,#556,#557,
#558,#559,#560,#561,#562,#563,#564,#565,#566));
#611=EDGE_LOOP('',(#567));
#612=EDGE_LOOP('',(#568,#569,#570,#571));
#613=EDGE_LOOP('',(#572));
#614=EDGE_LOOP('',(#573,#574,#575,#576));
#615=FACE_BOUND('',#577,.T.);
#616=FACE_BOUND('',#578,.T.);
#617=FACE_BOUND('',#579,.T.);
#618=FACE_BOUND('',#580,.T.);
#619=FACE_BOUND('',#581,.T.);
#620=FACE_BOUND('',#582,.T.);
#621=FACE_BOUND('',#583,.T.);
#622=FACE_BOUND('',#584,.T.);
#623=FACE_BOUND('',#585,.T.);
#624=FACE_BOUND('',#586,.T.);
#625=FACE_BOUND('',#587,.T.);
#626=FACE_BOUND('',#588,.T.);
#627=FACE_BOUND('',#589,.T.);
#628=FACE_BOUND('',#590,.T.);
#629=FACE_BOUND('',#591,.T.);
#630=FACE_BOUND('',#592,.T.);
#631=FACE_BOUND('',#593,.T.);
#632=FACE_BOUND('',#594,.T.);
#633=FACE_BOUND('',#595,.T.);
#634=FACE_BOUND('',#596,.T.);
#635=FACE_BOUND('',#597,.T.);
#636=FACE_BOUND('',#598,.T.);
#637=FACE_BOUND('',#599,.T.);
#638=FACE_BOUND('',#600,.T.);
#639=FACE_BOUND('',#601,.T.);
#640=FACE_BOUND('',#602,.T.);
#641=FACE_BOUND('',#603,.T.);
#642=FACE_BOUND('',#604,.T.);
#643=FACE_BOUND('',#605,.T.);
#644=FACE_BOUND('',#606,.T.);
#645=FACE_BOUND('',#607,.T.);
#646=FACE_BOUND('',#608,.T.);
#647=FACE_BOUND('',#609,.T.);
#648=FACE_BOUND('',#610,.T.);
#649=FACE_BOUND('',#611,.T.);
#650=FACE_BOUND('',#612,.T.);
#651=FACE_BOUND('',#613,.T.);
#652=FACE_BOUND('',#614,.T.);
#653=ADVANCED_FACE('',(#615,#616),#1082,.F.);
#654=ADVANCED_FACE('',(#617),#104,.T.);
#655=ADVANCED_FACE('',(#618),#1083,.T.);
#656=ADVANCED_FACE('',(#619,#620),#1084,.F.);
#657=ADVANCED_FACE('',(#621),#105,.T.);
#658=ADVANCED_FACE('',(#622),#1085,.F.);
#659=ADVANCED_FACE('',(#623),#106,.F.);
#660=ADVANCED_FACE('',(#624),#1086,.F.);
#661=ADVANCED_FACE('',(#625),#107,.F.);
#662=ADVANCED_FACE('',(#626),#1087,.F.);
#663=ADVANCED_FACE('',(#627),#108,.F.);
#664=ADVANCED_FACE('',(#628),#1088,.F.);
#665=ADVANCED_FACE('',(#629),#109,.F.);
#666=ADVANCED_FACE('',(#630,#631),#1089,.T.);
#667=ADVANCED_FACE('',(#632),#110,.F.);
#668=ADVANCED_FACE('',(#633),#111,.T.);
#669=ADVANCED_FACE('',(#634,#635),#1090,.T.);
#670=ADVANCED_FACE('',(#636),#112,.F.);
#671=ADVANCED_FACE('',(#637),#113,.T.);
#672=ADVANCED_FACE('',(#638),#1091,.T.);
#673=ADVANCED_FACE('',(#639),#1092,.F.);
#674=ADVANCED_FACE('',(#640),#114,.F.);
#675=ADVANCED_FACE('',(#641),#115,.T.);
#676=ADVANCED_FACE('',(#642),#1093,.T.);
#677=ADVANCED_FACE('',(#643),#1094,.F.);
#678=ADVANCED_FACE('',(#644),#116,.F.);
#679=ADVANCED_FACE('',(#645),#117,.T.);
#680=ADVANCED_FACE('',(#646,#647),#118,.F.);
#681=ADVANCED_FACE('',(#648),#1095,.T.);
#682=ADVANCED_FACE('',(#649,#650),#1096,.T.);
#683=ADVANCED_FACE('',(#651,#652),#1097,.F.);
#684=AXIS2_PLACEMENT_3D('',#907,#745,$);
#685=AXIS2_PLACEMENT_3D('',#911,#747,#748);
#686=AXIS2_PLACEMENT_3D('',#915,#750,#751);
#687=AXIS2_PLACEMENT_3D('',#916,#752,#753);
#688=AXIS2_PLACEMENT_3D('',#924,#757,#758);
#689=AXIS2_PLACEMENT_3D('',#927,#760,#761);
#690=AXIS2_PLACEMENT_3D('',#930,#763,$);
#691=AXIS2_PLACEMENT_3D('',#931,#764,#765);
#692=AXIS2_PLACEMENT_3D('',#935,#767,#768);
#693=AXIS2_PLACEMENT_3D('',#939,#770,#771);
#694=AXIS2_PLACEMENT_3D('',#943,#773,#774);
#695=AXIS2_PLACEMENT_3D('',#951,#778,#779);
#696=AXIS2_PLACEMENT_3D('',#955,#781,#782);
#697=AXIS2_PLACEMENT_3D('',#959,#784,#785);
#698=AXIS2_PLACEMENT_3D('',#963,#787,#788);
#699=AXIS2_PLACEMENT_3D('',#966,#790,$);
#700=AXIS2_PLACEMENT_3D('',#970,#792,#793);
#701=AXIS2_PLACEMENT_3D('',#974,#795,#796);
#702=AXIS2_PLACEMENT_3D('',#975,#797,#798);
#703=AXIS2_PLACEMENT_3D('',#980,#801,#802);
#704=AXIS2_PLACEMENT_3D('',#983,#804,#805);
#705=AXIS2_PLACEMENT_3D('',#984,#806,$);
#706=AXIS2_PLACEMENT_3D('',#990,#810,#811);
#707=AXIS2_PLACEMENT_3D('',#991,#812,#813);
#708=AXIS2_PLACEMENT_3D('',#994,#815,$);
#709=AXIS2_PLACEMENT_3D('',#998,#818,#819);
#710=AXIS2_PLACEMENT_3D('',#999,#820,#821);
#711=AXIS2_PLACEMENT_3D('',#1000,#822,$);
#712=AXIS2_PLACEMENT_3D('',#1006,#826,#827);
#713=AXIS2_PLACEMENT_3D('',#1007,#828,#829);
#714=AXIS2_PLACEMENT_3D('',#1010,#831,$);
#715=AXIS2_PLACEMENT_3D('',#1014,#834,#835);
#716=AXIS2_PLACEMENT_3D('',#1015,#836,#837);
#717=AXIS2_PLACEMENT_3D('',#1016,#838,$);
#718=AXIS2_PLACEMENT_3D('',#1020,#841,#842);
#719=AXIS2_PLACEMENT_3D('',#1021,#843,#844);
#720=AXIS2_PLACEMENT_3D('',#1024,#846,#847);
#721=AXIS2_PLACEMENT_3D('',#1027,#849,#850);
#722=AXIS2_PLACEMENT_3D('',#1028,#851,$);
#723=AXIS2_PLACEMENT_3D('',#1032,#854,#855);
#724=AXIS2_PLACEMENT_3D('',#1035,#857,#858);
#725=AXIS2_PLACEMENT_3D('',#1036,#859,#860);
#726=AXIS2_PLACEMENT_3D('',#1039,#862,#863);
#727=AXIS2_PLACEMENT_3D('',#1040,#864,$);
#728=AXIS2_PLACEMENT_3D('',#1044,#867,$);
#729=AXIS2_PLACEMENT_3D('',#1048,#870,#871);
#730=AXIS2_PLACEMENT_3D('',#1049,#872,#873);
#731=AXIS2_PLACEMENT_3D('',#1052,#875,#876);
#732=AXIS2_PLACEMENT_3D('',#1055,#878,#879);
#733=AXIS2_PLACEMENT_3D('',#1056,#880,$);
#734=AXIS2_PLACEMENT_3D('',#1060,#883,$);
#735=AXIS2_PLACEMENT_3D('',#1064,#886,#887);
#736=AXIS2_PLACEMENT_3D('',#1067,#889,#890);
#737=AXIS2_PLACEMENT_3D('',#1068,#891,#892);
#738=AXIS2_PLACEMENT_3D('',#1071,#894,#895);
#739=AXIS2_PLACEMENT_3D('',#1072,#896,#897);
#740=AXIS2_PLACEMENT_3D('',#1073,#898,#899);
#741=AXIS2_PLACEMENT_3D('',#1075,#900,#901);
#742=AXIS2_PLACEMENT_3D('',#1077,#902,$);
#743=AXIS2_PLACEMENT_3D('',#1080,#905,$);
#744=AXIS2_PLACEMENT_3D('',#1081,#906,$);
#745=DIRECTION('',(4.44058685696949E-16,-2.25358703506005E-17,1.));
#746=DIRECTION('',(1.,-1.20201311721228E-16,-4.44058685696949E-16));
#747=DIRECTION('',(4.44058685696949E-16,-2.25358703506005E-17,1.));
#748=DIRECTION('',(0.4175,0.,0.));
#749=DIRECTION('',(-1.,1.20201311721228E-16,4.44058685696949E-16));
#750=DIRECTION('',(4.44058685696949E-16,-2.25358703506005E-17,1.));
#751=DIRECTION('',(0.4175,0.,0.));
#752=DIRECTION('',(4.44058685696949E-16,-2.25358703506005E-17,1.));
#753=DIRECTION('',(-0.883883476483184,-0.883883476483184,0.));
#754=DIRECTION('',(-1.,0.,4.44004086919026E-16));
#755=DIRECTION('',(0.,1.,-4.44089209850062E-17));
#756=DIRECTION('',(1.,-7.31623624171413E-18,-4.44004086919026E-16));
#757=DIRECTION('',(0.,0.,-1.));
#758=DIRECTION('',(-0.883883476483184,-0.883883476483184,0.));
#759=DIRECTION('',(0.,0.,1.));
#760=DIRECTION('',(-4.44058685696949E-16,2.25358703506005E-17,-1.));
#761=DIRECTION('',(-0.883883476483184,0.883883476483184,0.));
#762=DIRECTION('',(0.,0.,-1.));
#763=DIRECTION('',(0.,-1.,0.));
#764=DIRECTION('',(0.,1.,0.));
#765=DIRECTION('',(0.555000000000002,0.,-0.96128819820075));
#766=DIRECTION('',(0.866025403784439,0.,0.5));
#767=DIRECTION('',(0.,1.,0.));
#768=DIRECTION('',(-0.317500000000001,0.,0.549926131403112));
#769=DIRECTION('',(1.,0.,0.));
#770=DIRECTION('',(0.,1.,0.));
#771=DIRECTION('',(3.99680288865056E-15,0.,0.635000000000009));
#772=DIRECTION('',(0.866025403784439,0.,-0.5));
#773=DIRECTION('',(0.,-1.,0.));
#774=DIRECTION('',(-0.555000000000006,0.,-0.961288198200772));
#775=DIRECTION('',(1.,3.43863103360564E-16,0.));
#776=DIRECTION('',(0.,0.,-1.));
#777=DIRECTION('',(-1.,-3.43863103360564E-16,0.));
#778=DIRECTION('',(0.,1.,0.));
#779=DIRECTION('',(-3.5527136788005E-14,0.,-0.635000000000094));
#780=DIRECTION('',(-0.866025403784439,0.,0.5));
#781=DIRECTION('',(0.,1.,0.));
#782=DIRECTION('',(2.22044604925031E-16,0.,1.11));
#783=DIRECTION('',(-1.,0.,0.));
#784=DIRECTION('',(0.,-1.,0.));
#785=DIRECTION('',(-5.55111512312578E-15,0.,1.11000000000001));
#786=DIRECTION('',(-0.866025403784439,0.,-0.5));
#787=DIRECTION('',(0.,1.,0.));
#788=DIRECTION('',(0.317499999999998,0.,-0.54992613140311));
#789=DIRECTION('',(-1.,7.31623624171413E-18,4.44004086919026E-16));
#790=DIRECTION('',(4.4402032749658E-32,-1.33558172813116E-16,1.));
#791=DIRECTION('',(-1.,0.,4.4402032749658E-32));
#792=DIRECTION('',(4.4402032749658E-32,-1.33558172813116E-16,1.));
#793=DIRECTION('',(0.4175,0.,0.));
#794=DIRECTION('',(1.,0.,-4.4402032749658E-32));
#795=DIRECTION('',(4.4402032749658E-32,-1.33558172813116E-16,1.));
#796=DIRECTION('',(0.417499999999997,0.,0.));
#797=DIRECTION('',(4.4402032749658E-32,-1.33558172813116E-16,1.));
#798=DIRECTION('',(0.883883476483184,0.883883476483184,0.));
#799=DIRECTION('',(3.5527136788005E-16,-1.,-1.77635683940025E-16));
#800=DIRECTION('',(-1.,-3.29230630877136E-16,0.));
#801=DIRECTION('',(0.,0.,-1.));
#802=DIRECTION('',(0.883883476483184,-0.883883476483184,0.));
#803=DIRECTION('',(0.,0.,1.));
#804=DIRECTION('',(-4.4402032749658E-32,1.33558172813116E-16,-1.));
#805=DIRECTION('',(0.883883476483184,0.883883476483184,0.));
#806=DIRECTION('',(-1.20201311721228E-16,-1.,0.));
#807=DIRECTION('',(-1.,1.20201311721228E-16,4.44058685696949E-16));
#808=DIRECTION('',(0.,0.,1.));
#809=DIRECTION('',(0.,0.,1.));
#810=DIRECTION('',(0.,0.,1.));
#811=DIRECTION('',(0.4175,0.,0.));
#812=DIRECTION('',(-4.44058685696949E-16,2.25358703506005E-17,-1.));
#813=DIRECTION('',(0.4175,0.,0.));
#814=DIRECTION('',(0.,0.,1.));
#815=DIRECTION('',(1.20201311721228E-16,1.,0.));
#816=DIRECTION('',(1.,-1.20201311721228E-16,-4.44058685696949E-16));
#817=DIRECTION('',(0.,0.,1.));
#818=DIRECTION('',(0.,0.,1.));
#819=DIRECTION('',(0.4175,0.,0.));
#820=DIRECTION('',(-4.44058685696949E-16,2.25358703506005E-17,-1.));
#821=DIRECTION('',(0.4175,0.,0.));
#822=DIRECTION('',(5.18906937882427E-48,1.,1.1686558153949E-16));
#823=DIRECTION('',(1.,0.,-4.4402032749658E-32));
#824=DIRECTION('',(0.,-1.1686558153949E-16,1.));
#825=DIRECTION('',(0.,-1.1686558153949E-16,1.));
#826=DIRECTION('',(0.,-1.1686558153949E-16,1.));
#827=DIRECTION('',(0.417499999999997,0.,0.));
#828=DIRECTION('',(-4.4402032749658E-32,1.33558172813116E-16,-1.));
#829=DIRECTION('',(0.417499999999997,0.,0.));
#830=DIRECTION('',(0.,-1.1686558153949E-16,1.));
#831=DIRECTION('',(-5.18906937882427E-48,-1.,-1.1686558153949E-16));
#832=DIRECTION('',(-1.,0.,4.4402032749658E-32));
#833=DIRECTION('',(0.,-1.1686558153949E-16,1.));
#834=DIRECTION('',(0.,-1.1686558153949E-16,1.));
#835=DIRECTION('',(0.4175,0.,0.));
#836=DIRECTION('',(-4.4402032749658E-32,1.33558172813116E-16,-1.));
#837=DIRECTION('',(0.4175,0.,0.));
#838=DIRECTION('',(4.4402032749658E-32,-1.33558172813116E-16,1.));
#839=DIRECTION('',(1.,3.29230630877136E-16,0.));
#840=DIRECTION('',(-3.5527136788005E-16,1.,7.77156117237609E-17));
#841=DIRECTION('',(-5.7150545526705E-16,1.,7.14381819083812E-17));
#842=DIRECTION('',(2.22044604925031E-15,0.,-0.635000000000001));
#843=DIRECTION('',(0.,-1.,0.));
#844=DIRECTION('',(-0.317499999999998,0.,-0.549926131403105));
#845=DIRECTION('',(3.5527136788005E-16,-1.,-8.88178419700125E-17));
#846=DIRECTION('',(-5.7150545526705E-16,1.,3.57190909541906E-16));
#847=DIRECTION('',(3.10862446895044E-15,4.44089209850063E-16,-1.11));
#848=DIRECTION('',(-3.5527136788005E-16,1.,8.88178419700125E-17));
#849=DIRECTION('',(0.,-1.,0.));
#850=DIRECTION('',(-0.555000000000002,0.,-0.961288198200724));
#851=DIRECTION('',(4.44058685696949E-16,-2.25358703506005E-17,1.));
#852=DIRECTION('',(0.,-1.,9.99200722162641E-17));
#853=DIRECTION('',(1.,0.,-4.44004086919026E-16));
#854=DIRECTION('',(0.,1.,3.57190909541906E-17));
#855=DIRECTION('',(0.3175,0.,-0.549926131403119));
#856=DIRECTION('',(0.,1.,0.));
#857=DIRECTION('',(0.,-1.,0.));
#858=DIRECTION('',(3.5527136788005E-14,0.,-0.635000000000097));
#859=DIRECTION('',(-2.85752727633525E-16,1.,-3.57190909541906E-16));
#860=DIRECTION('',(0.555000000000001,-2.22044604925031E-16,-0.961288198200727));
#861=DIRECTION('',(0.,-1.,0.));
#862=DIRECTION('',(0.,1.,0.));
#863=DIRECTION('',(0.555,0.,-0.961288198200745));
#864=DIRECTION('',(-0.5,-2.10547147241665E-17,0.866025403784439));
#865=DIRECTION('',(0.,-1.,-4.44089209850062E-17));
#866=DIRECTION('',(0.866025403784439,0.,0.5));
#867=DIRECTION('',(-0.5,-2.10547147241665E-17,0.866025403784439));
#868=DIRECTION('',(0.,1.,4.44089209850062E-17));
#869=DIRECTION('',(-0.866025403784439,0.,-0.5));
#870=DIRECTION('',(0.,1.,0.));
#871=DIRECTION('',(0.,0.,0.634999999999999));
#872=DIRECTION('',(0.,-1.,0.));
#873=DIRECTION('',(-3.99680288865056E-15,0.,0.635000000000009));
#874=DIRECTION('',(0.,-1.,0.));
#875=DIRECTION('',(0.,1.,0.));
#876=DIRECTION('',(0.,0.,1.11));
#877=DIRECTION('',(0.,1.,0.));
#878=DIRECTION('',(0.,-1.,0.));
#879=DIRECTION('',(-6.21724893790088E-15,0.,1.11000000000002));
#880=DIRECTION('',(0.5,3.97725996589075E-17,0.866025403784439));
#881=DIRECTION('',(0.,1.,-1.11022302462516E-16));
#882=DIRECTION('',(0.866025403784438,0.,-0.5));
#883=DIRECTION('',(0.5,3.97725996589075E-17,0.866025403784439));
#884=DIRECTION('',(8.88178419700125E-17,-1.,1.0547118733939E-16));
#885=DIRECTION('',(-0.866025403784438,0.,0.5));
#886=DIRECTION('',(0.,1.,-1.42876363816763E-16));
#887=DIRECTION('',(0.3175,0.,0.549926131403118));
#888=DIRECTION('',(0.,1.,0.));
#889=DIRECTION('',(0.,-1.,0.));
#890=DIRECTION('',(0.317500000000002,0.,0.549926131403125));
#891=DIRECTION('',(0.,1.,5.00067273358669E-16));
#892=DIRECTION('',(0.555,-4.44089209850063E-16,0.961288198200727));
#893=DIRECTION('',(0.,-1.,0.));
#894=DIRECTION('',(0.,1.,0.));
#895=DIRECTION('',(5.32907051820075E-15,0.,1.11000000000001));
#896=DIRECTION('',(0.,0.,-1.));
#897=DIRECTION('',(0.,0.437,0.));
#898=DIRECTION('',(0.,0.,1.));
#899=DIRECTION('',(0.,0.437,0.));
#900=DIRECTION('',(0.,0.,-1.));
#901=DIRECTION('',(0.,0.437,0.));
#902=DIRECTION('',(0.,1.,0.));
#903=DIRECTION('',(1.,0.,0.));
#904=DIRECTION('',(-1.,0.,0.));
#905=DIRECTION('',(0.,0.,1.));
#906=DIRECTION('',(0.,0.,1.));
#907=CARTESIAN_POINT('',(-17.7962417042761,-2.17648762869536E-16,-0.648711801799267));
#908=CARTESIAN_POINT('',(-23.503120852138,-0.417499999999997,-0.648711801799264));
#909=CARTESIAN_POINT('',(-31.75,-0.417499999999996,-0.648711801799266));
#910=CARTESIAN_POINT('',(-26.67,-0.417499999999997,-0.648711801799266));
#911=CARTESIAN_POINT('',(-26.67,2.9549751317734E-15,-0.648711801799267));
#912=CARTESIAN_POINT('',(-26.67,0.417500000000003,-0.648711801799266));
#913=CARTESIAN_POINT('',(-23.503120852138,0.417500000000003,-0.648711801799264));
#914=CARTESIAN_POINT('',(-31.75,0.417500000000004,-0.648711801799266));
#915=CARTESIAN_POINT('',(-31.75,3.57707515951516E-15,-0.648711801799267));
#916=CARTESIAN_POINT('',(-31.7210254037844,-8.88178419700125E-16,-0.648711801799267));
#917=CARTESIAN_POINT('',(-31.7210254037844,1.25,-0.64871180179926));
#918=CARTESIAN_POINT('',(-31.7210254037844,-1.25,-0.64871180179926));
#919=CARTESIAN_POINT('',(-32.9710254037844,1.25,-0.64871180179926));
#920=CARTESIAN_POINT('',(-2.8411731409782,1.25,-0.648711801799273));
#921=CARTESIAN_POINT('',(-2.8411731409782,-4.44089209850063E-16,-0.648711801799272));
#922=CARTESIAN_POINT('',(-2.8411731409782,-1.25,-0.648711801799273));
#923=CARTESIAN_POINT('',(-2.62145800476777,-1.25,-0.648711801799273));
#924=CARTESIAN_POINT('',(-31.7210254037844,-8.88178419700125E-16,-0.0868559008996299));
#925=CARTESIAN_POINT('',(-31.7210254037844,-1.25,-0.0868559008996299));
#926=CARTESIAN_POINT('',(-31.7210254037844,-1.25,-0.17371180179926));
#927=CARTESIAN_POINT('',(-31.7210254037844,0.,-0.173711801799266));
#928=CARTESIAN_POINT('',(-31.7210254037844,1.25,-0.17371180179926));
#929=CARTESIAN_POINT('',(-31.7210254037844,1.25,-0.0868559008996299));
#930=CARTESIAN_POINT('',(-2.22044604925031E-16,-1.25,0.));
#931=CARTESIAN_POINT('',(-2.8411731409782,-1.25,0.46128819820075));
#932=CARTESIAN_POINT('',(-2.2861731409782,-1.25,-0.5));
#933=CARTESIAN_POINT('',(-2.2861731409782,-1.25,-0.5));
#934=CARTESIAN_POINT('',(-1.5675,-1.25,-0.0850738685968823));
#935=CARTESIAN_POINT('',(-1.25,-1.25,-0.634999999999994));
#936=CARTESIAN_POINT('',(-1.25,-1.25,0.));
#937=CARTESIAN_POINT('',(-1.25,-1.25,0.));
#938=CARTESIAN_POINT('',(1.25,-1.25,0.));
#939=CARTESIAN_POINT('',(1.25,-1.25,-0.635000000000009));
#940=CARTESIAN_POINT('',(1.5675,-1.25,-0.0850738685968819));
#941=CARTESIAN_POINT('',(1.3772211104458,-1.25,0.0247836995083365));
#942=CARTESIAN_POINT('',(2.2861731409782,-1.25,-0.5));
#943=CARTESIAN_POINT('',(2.84117314097821,-1.25,0.461288198200768));
#944=CARTESIAN_POINT('',(2.8411731409782,-1.25,-0.648711801799273));
#945=CARTESIAN_POINT('',(32.9710254037844,-1.24999999999999,-0.648711801799274));
#946=CARTESIAN_POINT('',(31.7210254037844,-1.24999999999999,-0.648711801799274));
#947=CARTESIAN_POINT('',(31.7210254037844,-1.25,-0.0868559008996368));
#948=CARTESIAN_POINT('',(31.7210254037844,-1.24999999999999,-0.173711801799274));
#949=CARTESIAN_POINT('',(32.9710254037844,-1.24999999999999,-0.173711801799274));
#950=CARTESIAN_POINT('',(2.8411731409782,-1.25,-0.173711801799273));
#951=CARTESIAN_POINT('',(2.84117314097824,-1.25,0.461288198200821));
#952=CARTESIAN_POINT('',(2.5236731409782,-1.25,-0.0886379332023921));
#953=CARTESIAN_POINT('',(1.6147211104458,-1.25,0.436145766305945));
#954=CARTESIAN_POINT('',(1.805,-1.25,0.326288198200727));
#955=CARTESIAN_POINT('',(1.25,-1.25,-0.634999999999998));
#956=CARTESIAN_POINT('',(1.25,-1.25,0.475));
#957=CARTESIAN_POINT('',(-1.25,-1.25,0.475));
#958=CARTESIAN_POINT('',(-1.25,-1.25,0.475));
#959=CARTESIAN_POINT('',(-1.24999999999999,-1.25,-0.635000000000015));
#960=CARTESIAN_POINT('',(-1.805,-1.25,0.326288198200726));
#961=CARTESIAN_POINT('',(-2.5236731409782,-1.25,-0.0886379332023915));
#962=CARTESIAN_POINT('',(-2.5236731409782,-1.25,-0.0886379332023917));
#963=CARTESIAN_POINT('',(-2.8411731409782,-1.25,0.461288198200718));
#964=CARTESIAN_POINT('',(-2.8411731409782,-1.25,-0.173711801799273));
#965=CARTESIAN_POINT('',(-2.62145800476777,-1.25,-0.173711801799273));
#966=CARTESIAN_POINT('',(17.7962417042761,4.98480609383095E-15,-0.648711801799273));
#967=CARTESIAN_POINT('',(23.503120852138,0.4175,-0.648711801799273));
#968=CARTESIAN_POINT('',(31.75,0.4175,-0.648711801799266));
#969=CARTESIAN_POINT('',(26.67,0.4175,-0.648711801799266));
#970=CARTESIAN_POINT('',(26.67,3.11050013870885E-16,-0.648711801799273));
#971=CARTESIAN_POINT('',(26.67,-0.4175,-0.648711801799266));
#972=CARTESIAN_POINT('',(23.503120852138,-0.4175,-0.648711801799274));
#973=CARTESIAN_POINT('',(31.75,-0.417499999999997,-0.648711801799266));
#974=CARTESIAN_POINT('',(31.75,3.11050013870885E-16,-0.648711801799273));
#975=CARTESIAN_POINT('',(31.7210254037844,0.,-0.648711801799273));
#976=CARTESIAN_POINT('',(31.7210254037844,1.25000000000001,-0.648711801799273));
#977=CARTESIAN_POINT('',(2.8411731409782,-4.44089209850063E-16,-0.648711801799273));
#978=CARTESIAN_POINT('',(2.8411731409782,1.25,-0.648711801799273));
#979=CARTESIAN_POINT('',(2.62145800476776,1.25,-0.648711801799273));
#980=CARTESIAN_POINT('',(31.7210254037844,-8.88178419700125E-16,-0.0868559008996368));
#981=CARTESIAN_POINT('',(31.7210254037844,1.25,-0.0868559008996368));
#982=CARTESIAN_POINT('',(31.7210254037844,1.25000000000001,-0.173711801799273));
#983=CARTESIAN_POINT('',(31.7210254037844,0.,-0.173711801799274));
#984=CARTESIAN_POINT('',(-29.21,-0.417499999999997,-0.648711801799263));
#985=CARTESIAN_POINT('',(-23.503120852138,-0.417499999999997,-0.173711801799264));
#986=CARTESIAN_POINT('',(-26.67,-0.417499999999997,-0.173711801799263));
#987=CARTESIAN_POINT('',(-31.75,-0.417499999999996,-0.17371180179926));
#988=CARTESIAN_POINT('',(-26.67,-0.417499999999997,-0.648711801799266));
#989=CARTESIAN_POINT('',(-31.75,-0.417499999999996,-0.648711801799266));
#990=CARTESIAN_POINT('',(-31.75,3.57707515951516E-15,-0.648711801799266));
#991=CARTESIAN_POINT('',(-31.75,3.57707515951516E-15,-0.173711801799266));
#992=CARTESIAN_POINT('',(-31.75,0.417500000000004,-0.17371180179926));
#993=CARTESIAN_POINT('',(-31.75,0.417500000000004,-0.648711801799266));
#994=CARTESIAN_POINT('',(-29.21,0.417500000000003,-0.648711801799263));
#995=CARTESIAN_POINT('',(-23.503120852138,0.417500000000003,-0.173711801799264));
#996=CARTESIAN_POINT('',(-26.67,0.417500000000003,-0.173711801799263));
#997=CARTESIAN_POINT('',(-26.67,0.417500000000003,-0.648711801799266));
#998=CARTESIAN_POINT('',(-26.67,2.9549751317734E-15,-0.648711801799266));
#999=CARTESIAN_POINT('',(-26.67,2.9549751317734E-15,-0.173711801799266));
#1000=CARTESIAN_POINT('',(29.21,0.4175,-0.64871180179928));
#1001=CARTESIAN_POINT('',(23.503120852138,0.4175,-0.173711801799273));
#1002=CARTESIAN_POINT('',(26.67,0.4175,-0.173711801799273));
#1003=CARTESIAN_POINT('',(31.75,0.4175,-0.173711801799273));
#1004=CARTESIAN_POINT('',(26.67,0.4175,-0.648711801799266));
#1005=CARTESIAN_POINT('',(31.75,0.4175,-0.648711801799266));
#1006=CARTESIAN_POINT('',(31.75,3.11050013870884E-16,-0.648711801799266));
#1007=CARTESIAN_POINT('',(31.75,2.55538862639627E-16,-0.173711801799273));
#1008=CARTESIAN_POINT('',(31.75,-0.417499999999997,-0.173711801799274));
#1009=CARTESIAN_POINT('',(31.75,-0.417499999999997,-0.648711801799266));
#1010=CARTESIAN_POINT('',(29.21,-0.4175,-0.64871180179928));
#1011=CARTESIAN_POINT('',(23.503120852138,-0.4175,-0.173711801799274));
#1012=CARTESIAN_POINT('',(26.67,-0.4175,-0.173711801799274));
#1013=CARTESIAN_POINT('',(26.67,-0.4175,-0.648711801799266));
#1014=CARTESIAN_POINT('',(26.67,3.11050013870884E-16,-0.648711801799266));
#1015=CARTESIAN_POINT('',(26.67,2.55538862639627E-16,-0.173711801799273));
#1016=CARTESIAN_POINT('',(17.7962417042761,4.98480609383095E-15,-0.173711801799274));
#1017=CARTESIAN_POINT('',(2.62145800476776,1.25,-0.173711801799273));
#1018=CARTESIAN_POINT('',(2.8411731409782,1.25,-0.173711801799273));
#1019=CARTESIAN_POINT('',(2.8411731409782,-4.44089209850063E-16,-0.173711801799273));
#1020=CARTESIAN_POINT('',(2.8411731409782,-1.25,0.461288198200727));
#1021=CARTESIAN_POINT('',(2.8411731409782,1.25,0.461288198200713));
#1022=CARTESIAN_POINT('',(2.5236731409782,1.25,-0.0886379332023918));
#1023=CARTESIAN_POINT('',(2.5236731409782,-1.25,-0.0886379332023918));
#1024=CARTESIAN_POINT('',(2.8411731409782,-1.25,0.461288198200726));
#1025=CARTESIAN_POINT('',(2.2861731409782,-1.25,-0.5));
#1026=CARTESIAN_POINT('',(2.2861731409782,1.25,-0.5));
#1027=CARTESIAN_POINT('',(2.8411731409782,1.25,0.461288198200724));
#1028=CARTESIAN_POINT('',(-17.7962417042761,-2.17648762869536E-16,-0.173711801799266));
#1029=CARTESIAN_POINT('',(-2.8411731409782,-4.44089209850063E-16,-0.173711801799273));
#1030=CARTESIAN_POINT('',(-2.8411731409782,1.25,-0.173711801799273));
#1031=CARTESIAN_POINT('',(-32.9710254037844,1.25,-0.17371180179926));
#1032=CARTESIAN_POINT('',(-2.8411731409782,-1.25,0.461288198200727));
#1033=CARTESIAN_POINT('',(-2.5236731409782,1.25,-0.0886379332023915));
#1034=CARTESIAN_POINT('',(-2.5236731409782,1.25,-0.0886379332023917));
#1035=CARTESIAN_POINT('',(-2.84117314097824,1.25,0.461288198200824));
#1036=CARTESIAN_POINT('',(-2.8411731409782,-1.25,0.461288198200728));
#1037=CARTESIAN_POINT('',(-2.2861731409782,1.25,-0.5));
#1038=CARTESIAN_POINT('',(-2.2861731409782,1.25,-0.5));
#1039=CARTESIAN_POINT('',(-2.84117314097821,1.25,0.461288198200744));
#1040=CARTESIAN_POINT('',(-2.069197125712,-3.80764150553686E-16,0.173753916551777));
#1041=CARTESIAN_POINT('',(-1.805,-4.44089209850063E-16,0.326288198200726));
#1042=CARTESIAN_POINT('',(-1.805,1.25,0.326288198200726));
#1043=CARTESIAN_POINT('',(-1.6147211104458,1.25,0.436145766305945));
#1044=CARTESIAN_POINT('',(-1.831697125712,-3.80764150553686E-16,-0.237608150245832));
#1045=CARTESIAN_POINT('',(-1.5675,-4.44089209850063E-16,-0.0850738685968823));
#1046=CARTESIAN_POINT('',(-1.5675,1.25,-0.0850738685968823));
#1047=CARTESIAN_POINT('',(-1.3772211104458,1.25,0.0247836995083366));
#1048=CARTESIAN_POINT('',(-1.25,-1.25,-0.635));
#1049=CARTESIAN_POINT('',(-1.25,1.25,-0.635000000000009));
#1050=CARTESIAN_POINT('',(-1.25,1.25,0.));
#1051=CARTESIAN_POINT('',(-1.25,1.25,0.));
#1052=CARTESIAN_POINT('',(-1.25,-1.25,-0.635));
#1053=CARTESIAN_POINT('',(-1.25,1.25,0.475));
#1054=CARTESIAN_POINT('',(-1.25,1.25,0.475));
#1055=CARTESIAN_POINT('',(-1.24999999999999,1.25,-0.635000000000019));
#1056=CARTESIAN_POINT('',(2.069197125712,-4.46693845871769E-16,0.173753916551777));
#1057=CARTESIAN_POINT('',(1.805,-2.22044604925031E-16,0.326288198200727));
#1058=CARTESIAN_POINT('',(1.805,1.25,0.326288198200726));
#1059=CARTESIAN_POINT('',(2.5236731409782,1.25,-0.0886379332023916));
#1060=CARTESIAN_POINT('',(1.831697125712,-4.46693845871769E-16,-0.237608150245832));
#1061=CARTESIAN_POINT('',(1.5675,-4.44089209850063E-16,-0.085073868596882));
#1062=CARTESIAN_POINT('',(1.5675,1.25,-0.0850738685968821));
#1063=CARTESIAN_POINT('',(2.2861731409782,1.25,-0.5));
#1064=CARTESIAN_POINT('',(1.25,-1.25,-0.635));
#1065=CARTESIAN_POINT('',(1.25,-1.25,0.));
#1066=CARTESIAN_POINT('',(1.25,1.25,0.));
#1067=CARTESIAN_POINT('',(1.25,1.25,-0.635000000000007));
#1068=CARTESIAN_POINT('',(1.25,-1.25,-0.635));
#1069=CARTESIAN_POINT('',(1.25,-1.25,0.475));
#1070=CARTESIAN_POINT('',(1.25,1.25,0.475));
#1071=CARTESIAN_POINT('',(1.25,1.25,-0.635000000000011));
#1072=CARTESIAN_POINT('',(-1.51394048812521E-16,-3.88578058618805E-16,0.475));
#1073=CARTESIAN_POINT('',(-1.51394048812521E-16,-3.88578058618805E-16,0.));
#1074=CARTESIAN_POINT('',(-9.7876983689782E-17,-0.437,0.));
#1075=CARTESIAN_POINT('',(-1.51394048812521E-16,-3.88578058618805E-16,0.475));
#1076=CARTESIAN_POINT('',(-1.51394048812521E-16,0.437,0.475));
#1077=CARTESIAN_POINT('',(-2.22044604925031E-16,1.25,0.));
#1078=CARTESIAN_POINT('',(1.25,1.25,0.475));
#1079=CARTESIAN_POINT('',(1.25,1.25,0.));
#1080=CARTESIAN_POINT('',(-1.51394048812521E-16,-3.88578058618805E-16,0.475));
#1081=CARTESIAN_POINT('',(-1.51394048812521E-16,-3.88578058618805E-16,0.));
#1082=PLANE('',#684);
#1083=PLANE('',#690);
#1084=PLANE('',#699);
#1085=PLANE('',#705);
#1086=PLANE('',#708);
#1087=PLANE('',#711);
#1088=PLANE('',#714);
#1089=PLANE('',#717);
#1090=PLANE('',#722);
#1091=PLANE('',#727);
#1092=PLANE('',#728);
#1093=PLANE('',#733);
#1094=PLANE('',#734);
#1095=PLANE('',#742);
#1096=PLANE('',#743);
#1097=PLANE('',#744);
#1098=CLOSED_SHELL('',(#653,#654,#655,#656,#657,#658,#659,#660,#661,#662,
#663,#664,#665,#666,#667,#668,#669,#670,#671,#672,#673,#674,#675,#676,#677,
#678,#679,#680,#681,#682,#683));
#1099=MANIFOLD_SOLID_BREP('',#1098);
#1100=ADVANCED_BREP_SHAPE_REPRESENTATION('',(#1099),#103);
ENDSEC;
END-ISO-10303-21;
