solid ascii
  facet normal 0.000000e+00 1.000000e+00 -0.000000e+00
    outer loop
      vertex   7.218750e+01 2.700000e+01 -5.551115e-16
      vertex   5.618750e+01 2.700000e+01 -5.551115e-16
      vertex   7.218750e+01 2.700000e+01 3.000000e+00
    endloop
  endfacet
  facet normal 0.000000e+00 1.000000e+00 -0.000000e+00
    outer loop
      vertex   7.218750e+01 2.700000e+01 3.000000e+00
      vertex   5.618750e+01 2.700000e+01 -5.551115e-16
      vertex   5.618750e+01 2.700000e+01 3.000000e+00
    endloop
  endfacet
  facet normal -1.000000e+00 0.000000e+00 0.000000e+00
    outer loop
      vertex   7.218750e+01 3.700000e+01 -5.551115e-16
      vertex   7.218750e+01 2.700000e+01 -5.551115e-16
      vertex   7.218750e+01 3.700000e+01 3.000000e+00
    endloop
  endfacet
  facet normal -1.000000e+00 -0.000000e+00 0.000000e+00
    outer loop
      vertex   7.218750e+01 3.700000e+01 3.000000e+00
      vertex   7.218750e+01 2.700000e+01 -5.551115e-16
      vertex   7.218750e+01 2.700000e+01 3.000000e+00
    endloop
  endfacet
  facet normal 1.000000e+00 0.000000e+00 -0.000000e+00
    outer loop
      vertex   5.618750e+01 2.700000e+01 -5.551115e-16
      vertex   5.618750e+01 3.700000e+01 -5.551115e-16
      vertex   5.618750e+01 2.700000e+01 3.000000e+00
    endloop
  endfacet
  facet normal 1.000000e+00 -0.000000e+00 0.000000e+00
    outer loop
      vertex   5.618750e+01 2.700000e+01 3.000000e+00
      vertex   5.618750e+01 3.700000e+01 -5.551115e-16
      vertex   5.618750e+01 3.700000e+01 3.000000e+00
    endloop
  endfacet
  facet normal 0.000000e+00 1.000000e+00 -0.000000e+00
    outer loop
      vertex   -6.618750e+01 2.700000e+01 -5.551115e-16
      vertex   -8.218750e+01 2.700000e+01 -5.551115e-16
      vertex   -6.618750e+01 2.700000e+01 3.000000e+00
    endloop
  endfacet
  facet normal 0.000000e+00 1.000000e+00 -0.000000e+00
    outer loop
      vertex   -6.618750e+01 2.700000e+01 3.000000e+00
      vertex   -8.218750e+01 2.700000e+01 -5.551115e-16
      vertex   -8.218750e+01 2.700000e+01 3.000000e+00
    endloop
  endfacet
  facet normal -1.000000e+00 0.000000e+00 0.000000e+00
    outer loop
      vertex   -6.618750e+01 3.700000e+01 -5.551115e-16
      vertex   -6.618750e+01 2.700000e+01 -5.551115e-16
      vertex   -6.618750e+01 3.700000e+01 3.000000e+00
    endloop
  endfacet
  facet normal -1.000000e+00 -0.000000e+00 0.000000e+00
    outer loop
      vertex   -6.618750e+01 3.700000e+01 3.000000e+00
      vertex   -6.618750e+01 2.700000e+01 -5.551115e-16
      vertex   -6.618750e+01 2.700000e+01 3.000000e+00
    endloop
  endfacet
  facet normal 1.000000e+00 0.000000e+00 -0.000000e+00
    outer loop
      vertex   -8.218750e+01 2.700000e+01 -5.551115e-16
      vertex   -8.218750e+01 3.700000e+01 -5.551115e-16
      vertex   -8.218750e+01 2.700000e+01 3.000000e+00
    endloop
  endfacet
  facet normal 1.000000e+00 -0.000000e+00 0.000000e+00
    outer loop
      vertex   -8.218750e+01 2.700000e+01 3.000000e+00
      vertex   -8.218750e+01 3.700000e+01 -5.551115e-16
      vertex   -8.218750e+01 3.700000e+01 3.000000e+00
    endloop
  endfacet
  facet normal 0.000000e+00 -0.000000e+00 -1.000000e+00
    outer loop
      vertex   -6.618750e+01 3.700000e+01 -5.551115e-16
      vertex   5.618750e+01 3.700000e+01 -5.551115e-16
      vertex   -6.618750e+01 2.700000e+01 -5.551115e-16
    endloop
  endfacet
  facet normal 0.000000e+00 0.000000e+00 -1.000000e+00
    outer loop
      vertex   -6.618750e+01 2.700000e+01 -5.551115e-16
      vertex   5.618750e+01 3.700000e+01 -5.551115e-16
      vertex   5.618750e+01 2.700000e+01 -5.551115e-16
    endloop
  endfacet
  facet normal 0.000000e+00 -0.000000e+00 -1.000000e+00
    outer loop
      vertex   -8.518750e+01 -2.700000e+01 -5.551115e-16
      vertex   5.618750e+01 2.700000e+01 -5.551115e-16
      vertex   -8.518750e+01 -3.700000e+01 -5.551115e-16
    endloop
  endfacet
  facet normal 0.000000e+00 0.000000e+00 -1.000000e+00
    outer loop
      vertex   -8.518750e+01 -2.700000e+01 -5.551115e-16
      vertex   -6.618750e+01 2.700000e+01 -5.551115e-16
      vertex   5.618750e+01 2.700000e+01 -5.551115e-16
    endloop
  endfacet
  facet normal 0.000000e+00 0.000000e+00 -1.000000e+00
    outer loop
      vertex   -8.518750e+01 -2.700000e+01 -5.551115e-16
      vertex   -8.218750e+01 2.700000e+01 -5.551115e-16
      vertex   -6.618750e+01 2.700000e+01 -5.551115e-16
    endloop
  endfacet
  facet normal 0.000000e+00 0.000000e+00 -1.000000e+00
    outer loop
      vertex   -8.518750e+01 -2.700000e+01 -5.551115e-16
      vertex   -1.045929e+02 -2.700000e+01 -5.551115e-16
      vertex   -8.218750e+01 2.700000e+01 -5.551115e-16
    endloop
  endfacet
  facet normal -0.000000e+00 0.000000e+00 -1.000000e+00
    outer loop
      vertex   -8.218750e+01 2.700000e+01 -5.551115e-16
      vertex   -1.045929e+02 -2.700000e+01 -5.551115e-16
      vertex   -1.071875e+02 3.700000e+01 -5.551115e-16
    endloop
  endfacet
  facet normal -0.000000e+00 -0.000000e+00 -1.000000e+00
    outer loop
      vertex   -8.218750e+01 3.700000e+01 -5.551115e-16
      vertex   -8.218750e+01 2.700000e+01 -5.551115e-16
      vertex   -1.071875e+02 3.700000e+01 -5.551115e-16
    endloop
  endfacet
  facet normal 0.000000e+00 0.000000e+00 -1.000000e+00
    outer loop
      vertex   -8.518750e+01 -3.700000e+01 -5.551115e-16
      vertex   5.618750e+01 2.700000e+01 -5.551115e-16
      vertex   1.041875e+02 -3.700000e+01 -5.551115e-16
    endloop
  endfacet
  facet normal 0.000000e+00 0.000000e+00 -1.000000e+00
    outer loop
      vertex   1.041875e+02 -3.700000e+01 -5.551115e-16
      vertex   5.618750e+01 2.700000e+01 -5.551115e-16
      vertex   7.218750e+01 2.700000e+01 -5.551115e-16
    endloop
  endfacet
  facet normal -0.000000e+00 0.000000e+00 -1.000000e+00
    outer loop
      vertex   1.071875e+02 3.700000e+01 -5.551115e-16
      vertex   7.218750e+01 2.700000e+01 -5.551115e-16
      vertex   7.218750e+01 3.700000e+01 -5.551115e-16
    endloop
  endfacet
  facet normal -0.000000e+00 0.000000e+00 -1.000000e+00
    outer loop
      vertex   1.071875e+02 3.700000e+01 -5.551115e-16
      vertex   1.041875e+02 -3.700000e+01 -5.551115e-16
      vertex   7.218750e+01 2.700000e+01 -5.551115e-16
    endloop
  endfacet
  facet normal 1.953993e-15 1.000000e+00 0.000000e+00
    outer loop
      vertex   -8.218750e+01 3.700000e+01 -5.551115e-16
      vertex   -1.071875e+02 3.700000e+01 -5.551115e-16
      vertex   -8.218750e+01 3.700000e+01 3.000000e+00
    endloop
  endfacet
  facet normal 1.953993e-15 1.000000e+00 -0.000000e+00
    outer loop
      vertex   -8.218750e+01 3.700000e+01 3.000000e+00
      vertex   -1.071875e+02 3.700000e+01 -5.551115e-16
      vertex   -1.071875e+02 3.700000e+01 3.000000e+00
    endloop
  endfacet
  facet normal -1.395709e-15 1.000000e+00 0.000000e+00
    outer loop
      vertex   7.218750e+01 3.700000e+01 3.000000e+00
      vertex   1.071875e+02 3.700000e+01 3.000000e+00
      vertex   7.218750e+01 3.700000e+01 -5.551115e-16
    endloop
  endfacet
  facet normal -1.395709e-15 1.000000e+00 0.000000e+00
    outer loop
      vertex   7.218750e+01 3.700000e+01 -5.551115e-16
      vertex   1.071875e+02 3.700000e+01 3.000000e+00
      vertex   1.071875e+02 3.700000e+01 -5.551115e-16
    endloop
  endfacet
  facet normal -1.000000e+00 0.000000e+00 0.000000e+00
    outer loop
      vertex   -8.518750e+01 -2.700000e+01 -5.551115e-16
      vertex   -8.518750e+01 -3.700000e+01 -5.551115e-16
      vertex   -8.518750e+01 -2.700000e+01 3.000000e+00
    endloop
  endfacet
  facet normal -1.000000e+00 -0.000000e+00 0.000000e+00
    outer loop
      vertex   -8.518750e+01 -2.700000e+01 3.000000e+00
      vertex   -8.518750e+01 -3.700000e+01 -5.551115e-16
      vertex   -8.518750e+01 -3.700000e+01 3.000000e+00
    endloop
  endfacet
  facet normal 0.000000e+00 -1.000000e+00 0.000000e+00
    outer loop
      vertex   -1.045929e+02 -2.700000e+01 -5.551115e-16
      vertex   -8.518750e+01 -2.700000e+01 -5.551115e-16
      vertex   -1.045929e+02 -2.700000e+01 3.000000e+00
    endloop
  endfacet
  facet normal 0.000000e+00 -1.000000e+00 0.000000e+00
    outer loop
      vertex   -1.045929e+02 -2.700000e+01 3.000000e+00
      vertex   -8.518750e+01 -2.700000e+01 -5.551115e-16
      vertex   -8.518750e+01 -2.700000e+01 3.000000e+00
    endloop
  endfacet
  facet normal -2.579528e-16 -1.000000e+00 0.000000e+00
    outer loop
      vertex   -8.518750e+01 -3.700000e+01 -5.551115e-16
      vertex   1.041875e+02 -3.700000e+01 -5.551115e-16
      vertex   -8.518750e+01 -3.700000e+01 3.000000e+00
    endloop
  endfacet
  facet normal -2.579528e-16 -1.000000e+00 0.000000e+00
    outer loop
      vertex   -8.518750e+01 -3.700000e+01 3.000000e+00
      vertex   1.041875e+02 -3.700000e+01 -5.551115e-16
      vertex   1.041875e+02 -3.700000e+01 3.000000e+00
    endloop
  endfacet
  facet normal -9.991792e-01 -4.050727e-02 0.000000e+00
    outer loop
      vertex   -1.045929e+02 -2.700000e+01 3.000000e+00
      vertex   -1.071875e+02 3.700000e+01 3.000000e+00
      vertex   -1.045929e+02 -2.700000e+01 -5.551115e-16
    endloop
  endfacet
  facet normal -9.991792e-01 -4.050727e-02 -0.000000e+00
    outer loop
      vertex   -1.045929e+02 -2.700000e+01 -5.551115e-16
      vertex   -1.071875e+02 3.700000e+01 3.000000e+00
      vertex   -1.071875e+02 3.700000e+01 -5.551115e-16
    endloop
  endfacet
  facet normal 9.991792e-01 -4.050727e-02 0.000000e+00
    outer loop
      vertex   1.041875e+02 -3.700000e+01 -5.551115e-16
      vertex   1.071875e+02 3.700000e+01 -5.551115e-16
      vertex   1.041875e+02 -3.700000e+01 3.000000e+00
    endloop
  endfacet
  facet normal 9.991792e-01 -4.050727e-02 0.000000e+00
    outer loop
      vertex   1.041875e+02 -3.700000e+01 3.000000e+00
      vertex   1.071875e+02 3.700000e+01 -5.551115e-16
      vertex   1.071875e+02 3.700000e+01 3.000000e+00
    endloop
  endfacet
  facet normal 0.000000e+00 1.000000e+00 -0.000000e+00
    outer loop
      vertex   5.618750e+01 3.700000e+01 -5.551115e-16
      vertex   -6.618750e+01 3.700000e+01 -5.551115e-16
      vertex   5.618750e+01 3.700000e+01 3.000000e+00
    endloop
  endfacet
  facet normal 0.000000e+00 1.000000e+00 -0.000000e+00
    outer loop
      vertex   5.618750e+01 3.700000e+01 3.000000e+00
      vertex   -6.618750e+01 3.700000e+01 -5.551115e-16
      vertex   -6.618750e+01 3.700000e+01 3.000000e+00
    endloop
  endfacet
  facet normal 0.000000e+00 0.000000e+00 1.000000e+00
    outer loop
      vertex   5.618750e+01 3.700000e+01 3.000000e+00
      vertex   -6.618750e+01 3.700000e+01 3.000000e+00
      vertex   5.618750e+01 2.700000e+01 3.000000e+00
    endloop
  endfacet
  facet normal 0.000000e+00 0.000000e+00 1.000000e+00
    outer loop
      vertex   5.618750e+01 2.700000e+01 3.000000e+00
      vertex   -6.618750e+01 3.700000e+01 3.000000e+00
      vertex   -6.618750e+01 2.700000e+01 3.000000e+00
    endloop
  endfacet
  facet normal 0.000000e+00 -0.000000e+00 1.000000e+00
    outer loop
      vertex   -8.518750e+01 -2.700000e+01 3.000000e+00
      vertex   -6.618750e+01 2.700000e+01 3.000000e+00
      vertex   -8.218750e+01 2.700000e+01 3.000000e+00
    endloop
  endfacet
  facet normal 0.000000e+00 -0.000000e+00 1.000000e+00
    outer loop
      vertex   -1.045929e+02 -2.700000e+01 3.000000e+00
      vertex   -8.218750e+01 2.700000e+01 3.000000e+00
      vertex   -1.071875e+02 3.700000e+01 3.000000e+00
    endloop
  endfacet
  facet normal 0.000000e+00 0.000000e+00 1.000000e+00
    outer loop
      vertex   -1.045929e+02 -2.700000e+01 3.000000e+00
      vertex   -8.518750e+01 -2.700000e+01 3.000000e+00
      vertex   -8.218750e+01 2.700000e+01 3.000000e+00
    endloop
  endfacet
  facet normal 0.000000e+00 -0.000000e+00 1.000000e+00
    outer loop
      vertex   -8.218750e+01 2.700000e+01 3.000000e+00
      vertex   -8.218750e+01 3.700000e+01 3.000000e+00
      vertex   -1.071875e+02 3.700000e+01 3.000000e+00
    endloop
  endfacet
  facet normal -0.000000e+00 0.000000e+00 1.000000e+00
    outer loop
      vertex   -6.618750e+01 2.700000e+01 3.000000e+00
      vertex   -8.518750e+01 -2.700000e+01 3.000000e+00
      vertex   5.618750e+01 2.700000e+01 3.000000e+00
    endloop
  endfacet
  facet normal 0.000000e+00 0.000000e+00 1.000000e+00
    outer loop
      vertex   5.618750e+01 2.700000e+01 3.000000e+00
      vertex   -8.518750e+01 -2.700000e+01 3.000000e+00
      vertex   -8.518750e+01 -3.700000e+01 3.000000e+00
    endloop
  endfacet
  facet normal 0.000000e+00 0.000000e+00 1.000000e+00
    outer loop
      vertex   1.041875e+02 -3.700000e+01 3.000000e+00
      vertex   5.618750e+01 2.700000e+01 3.000000e+00
      vertex   -8.518750e+01 -3.700000e+01 3.000000e+00
    endloop
  endfacet
  facet normal 0.000000e+00 0.000000e+00 1.000000e+00
    outer loop
      vertex   1.041875e+02 -3.700000e+01 3.000000e+00
      vertex   7.218750e+01 2.700000e+01 3.000000e+00
      vertex   5.618750e+01 2.700000e+01 3.000000e+00
    endloop
  endfacet
  facet normal 0.000000e+00 -0.000000e+00 1.000000e+00
    outer loop
      vertex   1.041875e+02 -3.700000e+01 3.000000e+00
      vertex   1.071875e+02 3.700000e+01 3.000000e+00
      vertex   7.218750e+01 2.700000e+01 3.000000e+00
    endloop
  endfacet
  facet normal 0.000000e+00 -0.000000e+00 1.000000e+00
    outer loop
      vertex   7.218750e+01 2.700000e+01 3.000000e+00
      vertex   1.071875e+02 3.700000e+01 3.000000e+00
      vertex   7.218750e+01 3.700000e+01 3.000000e+00
    endloop
  endfacet
endsolid
